<?xml version="1.0" standalone="no"?>
<!DOCTYPE svg PUBLIC "-//W3C//DTD SVG 1.1//EN" "http://www.w3.org/Graphics/SVG/1.1/DTD/svg11.dtd" >
<svg xmlns="http://www.w3.org/2000/svg" xmlns:xlink="http://www.w3.org/1999/xlink" version="1.1">
<metadata>
Created by FontForge 20170910 at Tue Jan  5 04:24:37 2016
 By jimmywarting
Copyright(c) 2015 Beijing QiSiZhonghe Technology Co.Ltd. ,All rights reserved.
</metadata>
<defs>
<font id="AaFangMeng" horiz-adv-x="1000" vert-adv-y="1000" >
  <font-face 
    font-family="AaFangMeng"
    font-weight="400"
    font-stretch="normal"
    units-per-em="1000"
    panose-1="2 2 6 0 4 1 1 1 1 1"
    ascent="800"
    descent="-200"
    x-height="485"
    cap-height="640"
    bbox="-10 -205 1010 949"
    underline-thickness="50"
    underline-position="-317"
    unicode-range="U+001B-FFE5"
  />
<missing-glyph horiz-adv-x="350" 
 />
    <glyph glyph-name=".notdef" horiz-adv-x="350" 
 />
    <glyph glyph-name="grave" unicode="`" horiz-adv-x="396" vert-adv-y="899" 
d="M184 651l91 -113l-34 -44l-120 87z" />
    <glyph glyph-name="uniFE43" unicode="&#xfe43;" 
d="M716 209l-20 -121l121 -22l18 245l-656 1l-2 -88zM111 175l2 188l776 -1l-28 -353l-233 35l13 117z" />
    <glyph glyph-name="a" unicode="a" horiz-adv-x="538" vert-adv-y="921" 
d="M233 -3l-161 61l38 410l361 23v-416l46 2l4 -66l-161 -14v37zM364 99l12 329l-146 -13l-17 -318l52 -25z" />
    <glyph glyph-name="b" unicode="b" horiz-adv-x="534" vert-adv-y="893" 
d="M98 -20l-14 661l119 6l11 -188l85 32l185 -57l-3 -403l-239 -31l1 -11zM220 365l18 -296l147 20l3 305l-61 23z" />
    <glyph glyph-name="uni3009" unicode="&#x3009;" 
d="M184 718l66 65l370 -413l-1 -71l-365 -445l-60 72l324 413z" />
    <glyph glyph-name="uniFF03" unicode="&#xff03;" 
d="M319 1l-2 141l-93 -9l-1 70l94 9l-2 197l-99 -9l-1 70l99 8l-3 171l111 3l9 -165l166 12l1 137l92 -2l-1 -127l81 7l6 -62l-87 -8l-1 -197l90 9l6 -71l-97 -9v-150l-93 3v139l-146 -14l8 -150zM444 224l151 14l1 198l-163 -16z" />
    <glyph glyph-name="uni3001" unicode="&#x3001;" 
d="M429 -112l-173 137l44 73l205 -98z" />
    <glyph glyph-name="c" unicode="c" horiz-adv-x="463" vert-adv-y="921" 
d="M85 21l-9 396l249 77l131 -71l-40 -71l-118 74l-92 -33l15 -304l202 9l-2 -99z" />
    <glyph glyph-name="d" unicode="d" horiz-adv-x="535" vert-adv-y="893" 
d="M220 -3l-148 61l38 410l250 17l8 163l111 -6l2 -645l-145 12l1 23zM358 428l-151 -15l-16 -310l64 -29l86 24z" />
    <glyph glyph-name="e" unicode="e" horiz-adv-x="513" vert-adv-y="921" 
d="M81 -4l-17 409l193 86l205 -18v-239l-253 -59l6 -97l252 34l5 -100zM203 247l159 36l1 130l-108 11l-61 -29z" />
    <glyph glyph-name="f" unicode="f" horiz-adv-x="355" vert-adv-y="893" 
d="M21 409l76 14v175l170 71l105 -62l-36 -74l-87 56l-37 -16l9 -129l99 18l9 -56l-105 -25l24 -383l-153 -9v360l-62 -15z" />
    <glyph glyph-name="uni3002" unicode="&#x3002;" 
d="M373 -6l90 -3l6 75l-84 7zM320 150l218 -25l-14 -201l-240 5z" />
    <glyph glyph-name="g" unicode="g" horiz-adv-x="542" vert-adv-y="922" 
d="M216 -4l-144 62l38 411l243 17v13l130 -7l-21 -659l-303 13l2 89l190 -24v127zM353 429l-139 -14l-17 -317l54 -25l100 30z" />
    <glyph glyph-name="uni3003" unicode="&#x3003;" 
d="M459 688l70 -34l-207 -425l-70 33zM677 688l70 -34l-207 -425l-70 33z" />
    <glyph glyph-name="h" unicode="h" horiz-adv-x="556" vert-adv-y="893" 
d="M98 -2l-14 643l118 6l12 -192l93 36l201 -57l-19 -403l-97 7l20 360l-83 25l-109 -51l22 -365z" />
    <glyph glyph-name="i" unicode="i" horiz-adv-x="300" vert-adv-y="902" 
d="M89 445l117 4l31 -440l-152 -12zM92 527l-17 112l116 7l9 -104z" />
    <glyph glyph-name="uni3005" unicode="&#x3005;" 
d="M827 358l-211 -331l110 -42l-25 -83l-351 98l32 117l115 -45l176 274l-160 65l-219 -305l-121 87l291 407l121 -88l-25 -35l155 -65l11 17z" />
    <glyph glyph-name="j" unicode="j" horiz-adv-x="288" vert-adv-y="901" 
d="M120 527l-17 112l117 7l8 -104zM19 -154l3 89l100 -23l-13 533l137 4l-4 -616z" />
    <glyph glyph-name="uni3006" unicode="&#x3006;" 
d="M278 -59l-133 -11l-21 421l318 51l127 -127l256 210l50 -60l-250 -205l80 -80l-73 -74l-88 88l-263 -216zM260 290l14 -257l215 176l-100 101z" />
    <glyph glyph-name="k" unicode="k" horiz-adv-x="521" vert-adv-y="893" 
d="M98 -2l-14 643l118 6l21 -326l223 170l29 -45l-142 -113l173 -279l-74 -57l-172 277l-33 -27l15 -240z" />
    <glyph glyph-name="uni2196" unicode="&#x2196;" 
d="M308 460l133 -326l-75 -33l-208 508l56 54l488 -206l-30 -79l-319 137l488 -472l-69 -69z" />
    <glyph glyph-name="uni3007" unicode="&#x3007;" 
d="M594 712l340 -131l-13 -566l-128 -179l-728 44l19 720zM179 -56l571 -47l106 162l14 464l-309 119l-384 -89z" />
    <glyph glyph-name="l" unicode="l" horiz-adv-x="247" vert-adv-y="893" 
d="M85 -4l-1 649l119 2l27 -646z" />
    <glyph glyph-name="m" unicode="m" horiz-adv-x="750" vert-adv-y="921" 
d="M108 -4l-28 477l126 13l3 -41l302 54l193 -57l-4 -393l-116 -16l20 375l-92 29l-42 -11l-15 -362l-77 -8l-18 339l-143 -40l30 -345z" />
    <glyph glyph-name="n" unicode="n" horiz-adv-x="535" vert-adv-y="921" 
d="M87 -4l-27 477l127 8l2 -26l92 36l201 -57l-10 -403l-96 7l11 360l-83 25l-108 -50l31 -363z" />
    <glyph glyph-name="uni300A" unicode="&#x300a;" 
d="M260 339l324 -413l-60 -72l-365 445l-1 71l370 413l66 -65zM547 339l324 -413l-60 -72l-365 445l-1 71l370 413l66 -65z" />
    <glyph glyph-name="uni300B" unicode="&#x300b;" 
d="M405 718l66 65l370 -413l-1 -71l-365 -445l-60 72l324 413zM118 718l66 65l370 -413l-1 -71l-365 -445l-60 72l324 413z" />
    <glyph glyph-name="o" unicode="o" horiz-adv-x="550" vert-adv-y="921" 
d="M89 10l-17 405l249 77l182 -75l-27 -419zM392 65l17 305l-114 54l-92 -32l20 -321z" />
    <glyph glyph-name="p" unicode="p" horiz-adv-x="527" vert-adv-y="921" 
d="M98 -166l-14 648l118 7l3 -34l92 36l185 -57l-2 -402l-247 -33l9 -156zM209 374l20 -306l155 22l3 313l-72 22z" />
    <glyph glyph-name="uniFE44" unicode="&#xfe44;" 
d="M284 572l20 121l-121 22l-18 -245l656 -1l2 88zM889 606l-2 -188l-776 1l28 353l233 -35l-13 -117z" />
    <glyph glyph-name="q" unicode="q" horiz-adv-x="526" vert-adv-y="921" 
d="M215 -4l-139 62l22 411l258 18l1 12l109 -7l3 -649l-145 -9l10 199zM353 430l-156 -15l-10 -310l67 -33l83 27z" />
    <glyph glyph-name="r" unicode="r" horiz-adv-x="371" vert-adv-y="921" 
d="M371 382l-160 -192l15 -179l-140 -14l-27 487l126 8l17 -194l124 136z" />
    <glyph glyph-name="edieresis" unicode="&#xeb;" horiz-adv-x="525" vert-adv-y="906" 
d="M73 -4l-17 409l193 86l205 -18v-239l-253 -59l6 -97l252 34l5 -100zM195 247l159 36l1 130l-108 11l-61 -29zM137 632l102 -14l-8 -98l-109 6zM302 632l100 -14l-8 -98l-109 6z" />
    <glyph glyph-name="uni2489" unicode="&#x2489;" vert-adv-y="900" 
d="M659 150l120 -15l-10 -104l-129 6zM337 169l6 -68l180 34l8 -83l-296 -15l-1 131l177 150l27 207l-42 33l-137 -84l-39 88l174 80l155 -113l-17 -195z" />
    <glyph glyph-name="uni300C" unicode="&#x300c;" 
d="M572 0l-116 2v780h1l409 -18l-15 -112l-250 32z" />
    <glyph glyph-name="uni300D" unicode="&#x300d;" 
d="M406 711l116 -2v-780h-1l-409 18l15 112l250 -32z" />
    <glyph glyph-name="uniFE42" unicode="&#xfe42;" 
d="M891 536l-2 -116h-780v1l18 409l112 -15l-32 -250z" />
    <glyph glyph-name="uni2488" unicode="&#x2488;" vert-adv-y="902" 
d="M565 150l119 -15l-9 -104l-129 6zM315 610l82 1l32 -569l-114 -5v573z" />
    <glyph glyph-name="s" unicode="s" horiz-adv-x="497" vert-adv-y="921" 
d="M425 0l-349 4l4 85l232 -25l11 138l-231 -21v1l3 247l227 72l145 -57l-40 -76l-119 63l-89 -29l3 -146l218 12z" />
    <glyph glyph-name="t" unicode="t" horiz-adv-x="382" vert-adv-y="906" 
d="M130 424l3 171l134 -4l-8 -145l88 16l9 -56l-102 -24l-16 -302l32 -15l71 56l41 -80l-104 -52l-153 70l4 292l-69 -17l-10 75z" />
    <glyph glyph-name="u" unicode="u" horiz-adv-x="490" vert-adv-y="921" 
d="M190 491l-7 -376l81 -46l72 39l9 373l97 -2l-14 -470l-94 -2l1 27l-91 -37l-179 77l-8 413z" />
    <glyph glyph-name="uni300E" unicode="&#x300e;" vert-adv-y="636" 
d="M550 609l121 -20l22 121l-245 18l-1 -656l88 -2zM584 4l-188 2l1 776l353 -28l-35 -233l-117 13z" />
    <glyph glyph-name="v" unicode="v" horiz-adv-x="479" vert-adv-y="921" 
d="M37 445l122 49l97 -355l137 352l75 -39l-175 -447l-109 -19z" />
    <glyph glyph-name="uni2487" unicode="&#x2487;" vert-adv-y="895" 
d="M774 560l-27 -523l-232 27l-2 518l137 71zM945 610l-18 -544l-171 -178l-152 28l21 84l117 -29l109 109l9 515l-97 105l-129 -24l-12 85l152 28zM378 -84l-153 -28l-171 178l18 544l171 179l153 -28l-13 -76l-125 21l-109 -110l-9 -515l96 -105l120 24zM309 177l6 -69
l145 34l8 -82l-241 -16l-1 131l143 151l22 208l-34 33l-111 -85l-31 89l141 80l126 -113l-14 -196zM692 107l20 416l-63 47l-48 -31l5 -419z" />
    <glyph glyph-name="w" unicode="w" horiz-adv-x="746" vert-adv-y="921" 
d="M56 454l131 40l69 -386l94 207l-14 37l86 42l108 -246l89 343l76 -18l-105 -450l-130 -24l-76 227l-107 -230l-122 -10z" />
    <glyph glyph-name="uni2486" unicode="&#x2486;" vert-adv-y="895" 
d="M630 280l-54 -30l-144 58l36 330l258 6l-34 -599l-230 12l1 85l157 -27zM941 610l-18 -544l-171 -178l-152 28l21 84l117 -29l108 109l9 515l-97 105l-128 -24l-12 85l152 28zM382 -84l-153 -28l-170 178l18 544l170 179l153 -28l-13 -76l-125 21l-109 -110l-9 -515
l97 -105l119 24zM285 619l73 1l28 -569l-100 -5zM631 346l15 234l-88 -6l-21 -217l51 -35z" />
    <glyph glyph-name="uni300F" unicode="&#x300f;" 
d="M450 26l-121 20l-22 -121l245 -18l1 656l-88 2zM416 631l188 -2l-1 -776l-353 28l35 233l117 -13z" />
    <glyph glyph-name="x" unicode="x" horiz-adv-x="523" vert-adv-y="921" 
d="M212 225l-160 184l104 99l139 -190l151 167l52 -58l-154 -176l146 -199l-70 -66l-153 176l-151 -171l-59 62z" />
    <glyph glyph-name="uni2485" unicode="&#x2485;" vert-adv-y="895" 
d="M735 615l-19 -239l13 -1l-2 -319l-291 -10l-31 183l80 111l-43 215l103 98zM936 610l-18 -544l-171 -178l-152 28l21 84l117 -29l109 109l9 515l-97 105l-129 -24l-12 85l152 28zM387 -84l-153 -28l-171 178l18 544l171 179l153 -28l-13 -76l-125 21l-109 -110l-9 -515
l96 -105l120 24zM274 619l73 1l28 -569l-100 -5zM549 332l-48 -72l29 -156l127 3l7 212zM636 385l12 171l-94 24l-32 -33l31 -154z" />
    <glyph glyph-name="y" unicode="y" horiz-adv-x="509" vert-adv-y="921" 
d="M260 -4l-180 78l1 413l133 4l-14 -378l80 -44l68 36l6 381l100 -2l-22 -650l-297 12l3 90l206 -27l3 123z" />
    <glyph glyph-name="z" unicode="z" horiz-adv-x="453" vert-adv-y="921" 
d="M441 8l-376 -11l178 415l-176 -3l1 73l343 3l-181 -411l209 4z" />
    <glyph glyph-name="braceleft" unicode="{" horiz-adv-x="715" vert-adv-y="893" 
d="M441 651l121 -37l-18 -84l-120 46l-27 -17l-2 -202l-126 -105l123 -124l8 -214l120 38l18 -84l-134 -32l-124 40l19 211l-97 116l19 96l74 53l-7 210z" />
    <glyph glyph-name="bar" unicode="|" horiz-adv-x="162" vert-adv-y="893" 
d="M80 652h65v-816h-65v816z" />
    <glyph glyph-name="braceright" unicode="}" horiz-adv-x="715" vert-adv-y="893" 
d="M521 203l-97 -116l20 -211l-123 -40l-135 32l20 84l118 -38l8 214l125 124l-128 105l-2 202l-28 17l-118 -46l-20 84l122 37l153 -89l-7 -210l74 -53z" />
    <glyph glyph-name="endash" unicode="&#x2013;" 
d="M311 299l-11 98l392 13l8 -68z" />
    <glyph glyph-name="asciitilde" unicode="~" horiz-adv-x="680" vert-adv-y="929" 
d="M461 628l110 -12l-29 -137l-228 -16l-19 123l-73 11l-14 -33l27 -74l-88 -37l-26 96l66 106v1h1l171 -27h1l19 -111l71 5z" />
    <glyph glyph-name="notequal" unicode="&#x2260;" 
d="M390 288l-254 -13l-12 78l303 11l31 65l-332 2l-2 87l381 9l112 231l70 -34l-94 -195l274 7l8 -108l-331 1l-30 -62l353 14l8 -68l-397 -21l-143 -296l-70 33z" />
    <glyph glyph-name="Euro" unicode="&#x20ac;" horiz-adv-x="900" vert-adv-y="898" 
d="M546 654l149 -85l-39 -75l-146 96l-115 -51l10 -133l166 13l6 -62l-167 -16l6 -77l162 15l7 -71l-164 -15l9 -123l224 17l-1 -89l-352 26l-5 158l-86 -7l-4 69l89 9l-1 77l-95 -8l-4 68l97 7l-4 155z" />
    <glyph glyph-name="H" unicode="H" horiz-adv-x="661" vert-adv-y="898" 
d="M479 26l2 283l-234 -30l15 -277l-153 -4l-9 648l127 2l16 -292l238 26l1 252l96 -2l-3 -609z" />
    <glyph glyph-name="uniFF2E" unicode="&#xff2e;" 
d="M640 23l1 26l-262 417l28 -460l-161 -8l-2 645l125 5v-23l277 -438l14 451h96l-18 -617z" />
    <glyph glyph-name="uni2484" unicode="&#x2484;" vert-adv-y="895" 
d="M396 -84l-153 -28l-171 178l18 544l171 179l153 -28l-13 -76l-125 21l-109 -110l-9 -515l96 -105l120 24zM927 610l-18 -544l-171 -178l-152 28l21 84l117 -29l109 109l9 515l-97 105l-129 -24l-12 85l152 28zM622 559l-168 -25l-3 78l288 16h1l-126 -588l-79 27z
M310 619l73 1l28 -569l-100 -5z" />
    <glyph glyph-name="uni2483" unicode="&#x2483;" vert-adv-y="895" 
d="M727 62l-266 -12l-11 523l159 76l119 -52l-26 -80l-93 59l-67 -34l3 -129l100 14l98 -110zM927 610l-18 -544l-171 -178l-152 28l21 84l117 -29l109 109l9 515l-97 105l-129 -24l-12 85l152 28zM396 -84l-153 -28l-171 178l18 544l171 179l153 -28l-13 -76l-125 21
l-109 -110l-9 -515l96 -105l120 24zM288 619l72 1l28 -569l-100 -5v573zM547 347l8 -237l98 -3l13 184l-54 67z" />
    <glyph glyph-name="uni2482" unicode="&#x2482;" vert-adv-y="895" 
d="M914 610l-18 -544l-171 -178l-152 28l21 84l117 -29l108 109l9 515l-97 105l-128 -24l-12 85l152 28zM409 -84l-153 -28l-170 178l18 544l170 179l153 -28l-13 -76l-125 21l-109 -110l-9 -515l97 -105l119 24zM632 152l-13 170l-161 9l28 288l227 25l2 -81l-155 5
l-14 -174l157 1l28 -279l-181 -78l-116 72l37 77l86 -71zM301 619l73 1l28 -569l-100 -5z" />
    <glyph glyph-name="uni2481" unicode="&#x2481;" vert-adv-y="895" 
d="M918 610l-18 -544l-171 -178l-152 28l21 84l117 -29l109 109l9 515l-97 105l-129 -24l-12 85l152 28zM405 -84l-153 -28l-171 178l18 544l171 179l153 -28l-13 -76l-125 21l-109 -110l-9 -515l96 -105l120 24zM605 51l8 177l-176 -13l35 405l84 3l-14 -337l75 4l21 355
l67 -3l-21 -349l72 4l2 -57l-78 -7l-11 -187zM288 619l72 1l28 -569l-100 -5v573z" />
    <glyph glyph-name="uni2480" unicode="&#x2480;" vert-adv-y="895" 
d="M909 610l-18 -544l-171 -178l-152 28l21 84l117 -29l109 109l9 515l-97 105l-129 -24l-12 85l152 28zM414 -84l-153 -28l-171 178l18 544l171 179l153 -28l-13 -76l-125 21l-109 -110l-9 -515l96 -105l120 24zM727 504l-112 -148l103 -179l-7 -71l-243 -62l-9 102l188 27
l-74 121l-13 -18l-67 87l128 159l-42 45l-120 -67l-28 88l156 63zM297 619l72 1l28 -569l-100 -5v573z" />
    <glyph glyph-name="ecircumflex" unicode="&#xea;" horiz-adv-x="525" vert-adv-y="902" 
d="M73 -4l-17 409l193 86l205 -18v-239l-253 -59l6 -97l252 34l5 -100zM195 247l159 36l1 130l-108 11l-61 -29zM309 688l111 -126l-42 -45l-103 114l-77 -127l-89 41l114 163z" />
    <glyph glyph-name="uni248F" unicode="&#x248f;" vert-adv-y="900" 
d="M685 150l120 -15l-10 -104l-129 6zM567 606l-21 -239l16 -1l-4 -319l-329 -10l-35 183l90 111l-48 215l116 98zM356 323l-54 -72l32 -156l146 3l6 212zM456 376l13 171l-107 24l-37 -33l36 -154z" />
    <glyph glyph-name="quotesinglbase" unicode="&#x201a;" horiz-adv-x="500" 
d="M194 113l133 -16l-14 -168l-83 2l12 55l-69 2z" />
    <glyph glyph-name="uni248E" unicode="&#x248e;" vert-adv-y="901" 
d="M460 550l-190 -25l-3 78l327 16l-143 -588l-90 27zM613 150l120 -15l-10 -104l-129 6z" />
    <glyph glyph-name="uni248D" unicode="&#x248d;" vert-adv-y="900" 
d="M660 150l120 -15l-10 -104l-129 6zM534 53l-301 -12l-13 523l180 76l135 -52l-31 -80l-103 59l-77 -34l4 -129l113 14l111 -110zM330 338l9 -237l111 -3l14 184l-59 67z" />
    <glyph glyph-name="uni248C" unicode="&#x248c;" vert-adv-y="901" 
d="M666 150l119 -15l-10 -104l-128 6zM439 143l-16 170l-182 9l31 288l259 25l2 -81l-176 5l-16 -174l179 1l31 -279l-205 -78l-131 72l41 77l97 -71z" />
    <glyph glyph-name="uni248B" unicode="&#x248b;" vert-adv-y="900" 
d="M658 150l120 -15l-10 -104l-129 6zM412 42l9 177l-200 -13l40 405l95 3l-15 -337l84 4l24 355l76 -3l-23 -349l80 4l3 -57l-89 -7l-12 -187z" />
    <glyph glyph-name="uni248A" unicode="&#x248a;" vert-adv-y="900" 
d="M666 150l119 -15l-10 -104l-128 6zM549 495l-126 -148l116 -179l-8 -71l-276 -62l-10 102l214 27l-85 121l-14 -18l-77 87l147 159l-49 45l-136 -67l-31 88l176 63z" />
    <glyph glyph-name="Adieresis" unicode="&#xc4;" horiz-adv-x="659" vert-adv-y="882" 
d="M162 -15l-138 62l246 621l108 -47l-7 -21l240 -549l-86 -45l-82 195l-217 -27zM253 253l160 17l-85 204zM189 816l102 -13l-8 -98l-109 6zM354 816l100 -13l-8 -98l-108 6z" />
    <glyph glyph-name="germandbls" unicode="&#xdf;" horiz-adv-x="696" vert-adv-y="899" 
d="M254 -68l-153 -4v700l126 2v-16l95 40l191 -79l-12 -204l64 5l-6 -349l-168 -16l-8 69l77 10l4 206l-222 -22zM412 363l15 184l-74 32l-121 -63l7 -169z" />
    <glyph glyph-name="Odieresis" unicode="&#xd6;" horiz-adv-x="668" vert-adv-y="882" 
d="M358 655l215 -99l-39 -559l-454 30l-3 553zM223 532l15 -433l209 -15l27 445l-104 48zM230 816l101 -13l-8 -98l-109 6zM394 816l100 -13l-8 -98l-108 6z" />
    <glyph glyph-name="uniFF5B" unicode="&#xff5b;" 
d="M560 761l120 -37l-18 -83l-119 46l-27 -17l-2 -247l-127 -105l123 -125l8 -258l120 38l18 -85l-134 -31l-123 39l18 257l-97 116l19 95l74 54l-6 254z" />
    <glyph glyph-name="second" unicode="&#x2033;" vert-adv-y="903" 
d="M662 606l-134 -239l-38 29l95 253zM510 606l-134 -239l-38 29l94 253z" />
    <glyph glyph-name="uniFF5C" unicode="&#xff5c;" 
d="M468 652h64v-816h-64v816z" />
    <glyph glyph-name="Scaron" unicode="&#x160;" horiz-adv-x="565" vert-adv-y="880" 
d="M362 86v201l-310 -21l4 305l300 83l161 -84l-43 -85l-151 86l-121 -35l-2 -194l289 20l-6 -348l-422 -12l-4 104zM278 671l-114 163l89 42l77 -127l103 114l43 -46l-112 -125z" />
    <glyph glyph-name="uniFF5A" unicode="&#xff5a;" 
d="M688 8l-376 -11l177 415l-174 -3v73l342 3l-180 -411l209 4z" />
    <glyph glyph-name="logicaland" unicode="&#x2227;" 
d="M517 544l-313 -543l-72 60l345 584l71 1l319 -595l-71 -53z" />
    <glyph glyph-name="uni226F" unicode="&#x226f;" 
d="M411 584l454 -120l3 -138l-294 -79l91 -188l-70 -33l-97 200l-339 -91l-28 128l310 79l-86 180l-214 56l20 73l151 -40l-69 143l70 34zM454 496l64 -134l225 58z" />
    <glyph glyph-name="imacron" unicode="&#x12b;" horiz-adv-x="324" vert-adv-y="905" 
d="M64 610h203v-72h-203v72zM96 445l117 4l30 -440l-152 -12z" />
    <glyph glyph-name="uniFF2F" unicode="&#xff2f;" 
d="M534 655l213 -99l-38 -559l-454 30l-3 553zM398 532l16 -433l208 -15l27 445l-104 48z" />
    <glyph glyph-name="uniFF5D" unicode="&#xff5d;" 
d="M593 672l-7 -254l75 -54l19 -95l-98 -116l19 -257l-123 -39l-135 31l19 85l119 -38l9 258l123 125l-127 105l-2 247l-28 17l-118 -46l-19 83l121 37z" />
    <glyph glyph-name="uniFF5E" unicode="&#xff5e;" 
d="M615 628l110 -12l-29 -137l-228 -16l-20 123l-73 11l-13 -33l27 -74l-88 -37l-26 96l66 106v1h1l171 -27h1l19 -111l71 5z" />
    <glyph glyph-name="acircumflex" unicode="&#xe2;" horiz-adv-x="538" vert-adv-y="902" 
d="M213 -3l-161 61l38 410l361 23l-12 -416l58 2l4 -66l-161 -14l1 37zM344 99l12 329l-146 -13l-17 -318l52 -25zM309 688l111 -126l-42 -45l-103 114l-77 -127l-89 41l114 163z" />
    <glyph glyph-name="uniFF3B" unicode="&#xff3b;" 
d="M656 -56l154 -24l-8 -78l-297 35l-18 920l287 26l8 -69l-156 -19z" />
    <glyph glyph-name="uniFF26" unicode="&#xff26;" 
d="M441 544l13 -195l212 15l4 -72l-211 -17l18 -270l-169 -7l-1 647l126 4l2 -26l252 22l6 -73z" />
    <glyph glyph-name="uniFF36" unicode="&#xff36;" 
d="M762 597l-214 -581l-114 -20l-196 598l140 56l129 -483l171 465z" />
    <glyph glyph-name="uniFE10.001" 
d="M476 240l15 63l-80 4l25 142l152 -17l-16 -194z" />
    <glyph glyph-name="uni2170" unicode="&#x2170;" vert-adv-y="905" 
d="M432 445l118 4l31 -440l-152 -12zM436 527l-17 112l116 7l9 -104z" />
    <glyph glyph-name="twosuperior" unicode="&#xb2;" horiz-adv-x="337" vert-adv-y="899" 
d="M146 428l1 -40l116 20l4 -53l-189 -9v86l117 76l15 88l-24 11l-106 -38l-20 55l116 32l107 -61l-9 -85z" />
    <glyph glyph-name="quoteleft" unicode="&#x2018;" horiz-adv-x="500" 
d="M271 732l-13 -55l69 -3l-21 -124l-133 15l14 169z" />
    <glyph glyph-name="uni2494" unicode="&#x2494;" vert-adv-y="900" 
d="M159 610l83 1l31 -569l-113 -5zM721 150l120 -15l-10 -104l-129 6zM650 495l-127 -148l116 -179l-8 -71l-275 -62l-10 102l213 27l-84 121l-14 -18l-77 87l147 159l-49 45l-136 -67l-31 88l176 63z" />
    <glyph glyph-name="uni2266" unicode="&#x2266;" 
d="M257 450l612 -157l-28 -128l-709 191l3 138l704 187l20 -73zM875 -8l-12 -78l-739 38l8 68zM875 125l-12 -78l-739 38l8 68z" />
    <glyph glyph-name="uniFF58" unicode="&#xff58;" 
d="M436 225l-159 184l103 99l140 -190l150 167l52 -58l-154 -176l146 -199l-70 -66l-153 176l-149 -171l-61 62z" />
    <glyph glyph-name="uniFE11.001" 
d="M480 452l135 -151l-61 -59l-169 117z" />
    <glyph glyph-name="uniFE38" unicode="&#xfe38;" 
d="M904 432l-283 8l-59 -92l-106 -23l-129 120l-285 -23l-44 152l35 166l94 -23l-42 -147l287 -11l138 -152l117 157l274 2l19 34l-51 147l93 23l41 -149z" />
    <glyph glyph-name="Agrave" unicode="&#xc0;" horiz-adv-x="659" vert-adv-y="880" 
d="M162 -15l-138 62l246 621l108 -47l-7 -21l240 -549l-86 -45l-82 195l-217 -27zM253 253l160 17l-85 204zM291 859l90 -112l-33 -44l-121 87z" />
    <glyph glyph-name="divide" unicode="&#xf7;" horiz-adv-x="540" vert-adv-y="917" 
d="M110 269l-9 88l318 12l6 -61zM223 234l108 -14l-9 -105l-116 6zM223 538l108 -14l-9 -105l-116 7z" />
    <glyph glyph-name="uniFF59" unicode="&#xff59;" 
d="M492 -4l-179 78l1 413l132 4l-14 -378l81 -44l67 36l6 381l100 -2l-20 -650l-298 12l2 90l206 -27l3 123z" />
    <glyph glyph-name="uniFF52" unicode="&#xff52;" 
d="M656 382l-161 -192l17 -179l-141 -14l-27 487l127 8l16 -194l124 136z" />
    <glyph glyph-name="uniFF56" unicode="&#xff56;" 
d="M285 445l121 49l98 -355l136 352l75 -39l-175 -447l-109 -19z" />
    <glyph glyph-name="therefore" unicode="&#x2234;" 
d="M183 133l133 -16l-11 -116l-143 7zM705 133l133 -16l-11 -116l-143 7zM445 557l133 -16l-11 -116l-143 7z" />
    <glyph glyph-name="uni2162" unicode="&#x2162;" vert-adv-y="903" 
d="M330 640l30 -637l-152 -4l-1 639zM545 640l31 -637l-153 -4v639zM762 640l31 -637l-152 -4l-1 639z" />
    <glyph glyph-name="ordmasculine" unicode="&#xba;" horiz-adv-x="328" vert-adv-y="899" 
d="M171 648l104 -81l-39 -221l-167 19l-9 216zM133 559l8 -150l57 -9l27 151l-49 38z" />
    <glyph glyph-name="uniFF53" unicode="&#xff53;" 
d="M654 0l-349 4l4 85l231 -25l12 138l-232 -21v1l4 247l226 72l145 -57l-39 -76l-120 63l-89 -29l3 -146l217 12z" />
    <glyph glyph-name="uniFF50" unicode="&#xff50;" 
d="M315 -166l-14 648l117 7l3 -34l92 36l185 -57l-2 -402l-247 -33l10 -156zM425 374l20 -306l155 22l3 313l-72 22z" />
    <glyph glyph-name="mu" unicode="&#xb5;" horiz-adv-x="513" vert-adv-y="916" 
d="M193 491l-6 -280h2l-3 -55v-41l81 -46l72 39l9 373l97 -2l-14 -470l-94 -2l1 27l-91 -37l-67 28l-4 -118l-109 -4l-1 248l-6 336z" />
    <glyph glyph-name="uni01DA" unicode="&#x1da;" horiz-adv-x="513" vert-adv-y="888" 
d="M60 487l8 -413l179 -77l91 37l-1 -27l94 2l14 470l-97 2l-9 -373l-72 -39l-81 46l7 376zM122 508l109 -6l8 98l-102 14zM285 508l109 -6l8 98l-100 14zM223 623l-114 163l89 41l77 -127l103 114l42 -45l-111 -126z" />
    <glyph glyph-name="uni01DC" unicode="&#x1dc;" horiz-adv-x="513" vert-adv-y="888" 
d="M193 491l-7 -376l81 -46l72 39l9 373l97 -2l-14 -470l-94 -2l1 27l-91 -37l-179 77l-8 413zM137 614l102 -14l-8 -98l-109 6zM302 614l100 -14l-8 -98l-109 6zM231 800l91 -112l-34 -45l-120 88z" />
    <glyph glyph-name="nacute" unicode="&#x144;" horiz-adv-x="559" vert-adv-y="903" 
d="M91 -4l-27 477l127 8l2 -26l92 36l201 -57l-10 -403l-96 7l11 360l-83 25l-108 -50l31 -363zM378 581l-120 -87l-34 44l91 113z" />
    <glyph glyph-name="currency" unicode="&#xa4;" horiz-adv-x="577" vert-adv-y="929" 
d="M353 67l-190 13l-67 -81l-32 36l65 78l-3 214l-66 59l30 36l63 -55l149 57l109 -63l80 20l8 -44l-61 -18l-28 -206l51 -52l-59 -64zM231 318l8 -192l106 -10l25 203l-60 34z" />
    <glyph glyph-name="uniFF1F" unicode="&#xff1f;" 
d="M495 754l272 -177l-220 -398l-138 54l171 381l-61 41l-223 -128l-63 113zM539 -33l-166 8l25 142l152 -17z" />
    <glyph glyph-name="uniFF1D" unicode="&#xff1d;" 
d="M675 301l7 -61l-356 -43l-9 70zM675 495l7 -115l-364 2l-1 97z" />
    <glyph glyph-name="uniFF51" unicode="&#xff51;" 
d="M442 -4l-139 62l22 411l258 18l1 12l109 -7l3 -649l-145 -9l9 199zM580 430l-157 -15l-9 -310l66 -33l84 27z" />
    <glyph glyph-name="uni01CE" unicode="&#x1ce;" horiz-adv-x="538" vert-adv-y="902" 
d="M341 34l-1 -37l161 14l-4 66l-58 -2l12 416l-361 -23l-38 -410l161 -61zM245 72l-52 25l17 318l146 13l-12 -329zM223 504l-114 163l89 41l77 -127l103 115l42 -46l-111 -125z" />
    <glyph glyph-name="uniFF2B" unicode="&#xff2b;" 
d="M397 391l233 248l47 -56l-173 -186l234 -330l-84 -67l-223 317l-30 -32l13 -283l-153 -4l2 647l123 2z" />
    <glyph glyph-name="uniFF57" unicode="&#xff57;" 
d="M180 454l130 40l70 -386l94 207l-14 37l86 42l109 -246l88 343l76 -18l-105 -450l-129 -24l-78 227l-107 -230l-121 -10z" />
    <glyph glyph-name="uniFF1E" unicode="&#xff1e;" 
d="M725 250l-406 -172l-45 140l344 141l-336 142l24 66l410 -168l5 -84z" />
    <glyph glyph-name="uniFF1B" unicode="&#xff1b;" 
d="M300 -132l25 103l-80 4l25 142l152 -17l-26 -234zM441 407l-166 8l25 142l152 -17z" />
    <glyph glyph-name="uniFF1C" unicode="&#xff1c;" 
d="M382 359l343 -141l-45 -140l-406 172l4 65l5 84l410 168l24 -66z" />
    <glyph glyph-name="uniFF1A" unicode="&#xff1a;" 
d="M461 -33l-166 8l25 142l152 -17zM491 407l-166 8l25 142l152 -17z" />
    <glyph glyph-name="uniFF16" unicode="&#xff16;" 
d="M666 26l-341 -13l-13 551l202 80l153 -55l-34 -84l-117 63l-87 -36l4 -136l127 14l127 -116zM436 326l10 -250l126 -3l15 194l-67 70z" />
    <glyph glyph-name="uniFF17" unicode="&#xff17;" 
d="M533 550l-216 -27l-3 83l370 17h1v-1l-162 -620l-101 29z" />
    <glyph glyph-name="uniFF14" unicode="&#xff14;" 
d="M509 13l10 188l-226 -14l44 428l109 2l-17 -356l95 4l27 375l88 -3l-28 -368l91 5l4 -62l-100 -6l-14 -197z" />
    <glyph glyph-name="igrave" unicode="&#xec;" horiz-adv-x="308" vert-adv-y="904" 
d="M128 651l90 -113l-33 -44l-121 87zM95 445l117 4l30 -440l-152 -12z" />
    <glyph glyph-name="uni2163" unicode="&#x2163;" vert-adv-y="903" 
d="M850 597l-214 -581l-114 -20l-196 598l141 56l128 -483l171 465zM272 640l31 -637l-152 -4l-1 639z" />
    <glyph glyph-name="radical" unicode="&#x221a;" 
d="M225 552l289 -514l447 782l40 -38l-520 -920h-43l-306 574l-105 -57l-28 45z" />
    <glyph glyph-name="uniFF15" unicode="&#xff15;" 
d="M564 121l-19 178l-206 10l36 305l292 25l2 -86l-198 6l-19 -183l202 1l36 -294l-231 -83l-150 76l47 81l110 -74z" />
    <glyph glyph-name="intersection" unicode="&#x2229;" 
d="M225 -4l-29 568l289 118l318 -64l-13 -583l-119 7l14 536l-172 28l-154 -56l39 -539z" />
    <glyph glyph-name="exclamdown" unicode="&#xa1;" horiz-adv-x="406" vert-adv-y="920" 
d="M253 -167l-152 11l31 440l117 -4zM147 481l117 -6l-18 -112l-108 14z" />
    <glyph glyph-name="uniFF12" unicode="&#xff12;" 
d="M445 148l8 -72l204 36l8 -88l-334 -16l-1 138l198 159l31 218l-48 35l-154 -89l-43 93l194 85l178 -119l-20 -206z" />
    <glyph glyph-name="uniFF13" unicode="&#xff13;" 
d="M690 492l-144 -157l131 -188l-9 -76l-312 -65l-11 108l240 28l-94 128l-16 -19l-87 92l165 168l-53 47l-155 -71l-36 93l201 67z" />
    <glyph glyph-name="uniFF10" unicode="&#xff10;" 
d="M682 551l-39 -550l-322 29l-4 543l192 76zM568 75l26 437l-86 50l-69 -33l8 -441z" />
    <glyph glyph-name="uniFF11" unicode="&#xff11;" 
d="M435 613l94 2l35 -602l-128 -4z" />
    <glyph glyph-name="uni222E" unicode="&#x222e;" 
d="M421 496l-8 168l209 79l129 -68l-45 -83l-106 63l-45 -18l5 -115l172 -97l23 -224l-101 -101v-3l-75 -2l10 -201l-209 -79l-129 68l45 83l106 -63l46 18l-8 171l-196 -5l15 354zM564 440l13 -288h7l74 85l-13 160zM371 149l66 1l-12 257l-56 -20z" />
    <glyph glyph-name="uniFF18" unicode="&#xff18;" 
d="M711 608l-25 -251l20 -2l-5 -336l-374 -10l-39 193l102 117l-55 226l133 104zM471 310l-61 -75l37 -166l165 4l7 223zM585 365l16 182l-123 24l-41 -34l40 -163z" />
    <glyph glyph-name="uniFF54" unicode="&#xff54;" 
d="M414 424l2 171l135 -4l-8 -145l88 16l9 -56l-101 -24l-17 -302l32 -15l71 56l41 -80l-104 -52l-153 70l5 292l-70 -17l-11 75z" />
    <glyph glyph-name="approxequal" unicode="&#x2248;" 
d="M642 562l136 -14l-36 -152l-281 -17l-25 136l-90 12l-16 -36l33 -83l-109 -41l-32 107l81 118v1h2l212 -30h1l23 -123l88 5zM642 337l136 -14l-36 -152l-281 -17l-25 136l-90 12l-16 -36l33 -83l-109 -41l-32 107l81 118v1h2l212 -30h1l23 -123l88 5z" />
    <glyph glyph-name="uniFF19" unicode="&#xff19;" 
d="M565 256l-70 -32l-184 61l47 349l331 5l-45 -632l-294 13l1 89l201 -27zM569 325l17 246l-113 -5l-26 -229l66 -37z" />
    <glyph glyph-name="uni001B" horiz-adv-x="43" vert-adv-y="970" 
 />
    <glyph glyph-name="uni01D0" unicode="&#x1d0;" horiz-adv-x="445" vert-adv-y="902" 
d="M128 -3l152 12l-31 440l-117 -4zM144 504l-114 163l89 41l76 -127l104 115l42 -46l-111 -125z" />
    <glyph glyph-name="uni01D2" unicode="&#x1d2;" horiz-adv-x="550" vert-adv-y="902" 
d="M456 -2l27 419l-182 75l-249 -77l17 -405zM203 71l-20 321l92 32l114 -54l-17 -305zM223 504l-114 163l89 41l77 -127l103 115l42 -46l-111 -125z" />
    <glyph glyph-name="uniFF55" unicode="&#xff55;" 
d="M439 491l-7 -376l81 -46l72 39l10 373l97 -2l-14 -470l-94 -2l1 27l-91 -37l-179 77l-8 413z" />
    <glyph glyph-name="uni01D4" unicode="&#x1d4;" horiz-adv-x="513" vert-adv-y="902" 
d="M60 487l8 -413l179 -77l91 37l-1 -27l94 2l14 470l-97 2l-9 -373l-72 -39l-81 46l7 376zM223 504l-114 163l89 41l77 -127l103 115l42 -46l-111 -125z" />
    <glyph glyph-name="uni01D6" unicode="&#x1d6;" horiz-adv-x="513" vert-adv-y="892" 
d="M193 491l-7 -376l81 -46l72 39l9 373l97 -2l-14 -470l-94 -2l1 27l-91 -37l-179 77l-8 413zM137 614l102 -14l-8 -98l-109 6zM302 614l100 -14l-8 -98l-109 6zM169 709h203v-72h-203v72z" />
    <glyph glyph-name="ograve" unicode="&#xf2;" horiz-adv-x="550" vert-adv-y="904" 
d="M69 10l-17 405l249 77l182 -75l-27 -419zM372 65l17 305l-114 54l-92 -32l20 -321zM250 651l91 -113l-34 -44l-120 87z" />
    <glyph glyph-name="uni2497" unicode="&#x2497;" vert-adv-y="900" 
d="M150 610l83 1l31 -569l-113 -5zM730 150l120 -15l-10 -104l-129 6zM640 53l-301 -12l-13 523l180 76l135 -52l-30 -80l-104 59l-76 -34l3 -129l113 14l111 -110zM436 338l9 -237l112 -3l13 184l-59 67z" />
    <glyph glyph-name="uni2490" unicode="&#x2490;" vert-adv-y="900" 
d="M449 271l-62 -30l-162 58l40 330l293 6l-38 -599l-261 12l1 85l178 -27zM451 337l16 234l-99 -6l-25 -217l60 -35zM655 150l119 -15l-9 -104l-129 6z" />
    <glyph glyph-name="otilde" unicode="&#xf5;" horiz-adv-x="550" vert-adv-y="904" 
d="M69 10l-17 405l249 77l182 -75l-27 -419zM372 65l17 305l-114 54l-92 -32l20 -321zM380 644l88 -10l-23 -108l-182 -13l-16 97l-58 9l-11 -26l22 -59l-71 -29l-20 76l52 85v1h1l137 -22h1l15 -88l57 4z" />
    <glyph glyph-name="guillemotright" unicode="&#xbb;" horiz-adv-x="751" vert-adv-y="924" 
d="M325 485l49 66l200 -152l-1 -80l-206 -162l-50 76l159 126zM109 485l49 66l200 -152l-2 -80l-205 -162l-50 76l158 126z" />
    <glyph glyph-name="ydieresis" unicode="&#xff;" horiz-adv-x="509" vert-adv-y="906" 
d="M240 -4l-180 78l1 413l133 4l-14 -378l80 -44l68 36l6 381l100 -2l-22 -650l-297 12l3 90l206 -27l3 123zM145 638l102 -13l-8 -99l-109 7zM310 638l101 -13l-9 -99l-108 7z" />
    <glyph glyph-name="quoteright" unicode="&#x2019;" horiz-adv-x="500" 
d="M229 552l13 55l-69 3l21 124l133 -15l-14 -169z" />
    <glyph glyph-name="ucircumflex" unicode="&#xfb;" horiz-adv-x="513" vert-adv-y="902" 
d="M193 491l-7 -376l81 -46l72 39l9 373l97 -2l-14 -470l-94 -2l1 27l-91 -37l-179 77l-8 413zM301 688l111 -126l-42 -45l-103 114l-77 -127l-89 41l114 163z" />
    <glyph glyph-name="logicalor" unicode="&#x2228;" 
d="M796 646l71 -53l-319 -595l-71 1l-345 584l72 60l313 -543z" />
    <glyph glyph-name="uni338E" unicode="&#x338e;" vert-adv-y="920" 
d="M124 -8l-20 470l89 11l2 -40l214 54l138 -57l-3 -387l-82 -14l14 368l-66 29l-29 -11l-11 -357l-54 -8l-14 334l-101 -39l21 -340zM706 -8l-101 60l26 405l173 16v14l92 -7l-15 -648l-216 12l2 88l135 -25v126zM804 418l-99 -14l-13 -312l39 -25l71 30z" />
    <glyph glyph-name="uni2491" unicode="&#x2491;" vert-adv-y="901" 
d="M159 610l83 1l31 -569l-113 -5zM721 150l120 -15l-10 -104l-129 6zM664 551l-34 -521l-286 27l-3 516l170 71zM562 100l25 414l-77 47l-60 -31l6 -417z" />
    <glyph glyph-name="uni2215" unicode="&#x2215;" 
d="M648 758l70 -34l-366 -755l-70 33z" />
    <glyph glyph-name="Lslash" unicode="&#x141;" horiz-adv-x="615" vert-adv-y="900" 
d="M297 481l101 4l6 -61l-104 -14l14 -324l243 38l12 -101l-404 -25h-1v396l-75 -9l-9 88l84 3v170l127 2z" />
    <glyph glyph-name="greaterequal" unicode="&#x2265;" 
d="M135 578l20 73l704 -187l3 -138l-709 -191l-28 128l612 157zM862 261l12 -78l-716 -188l-13 68z" />
    <glyph glyph-name="uniFE17" unicode="&#xfe17;" 
d="M270 148l-21 84l526 -9l-28 -84l117 -13l35 173l-799 13l35 -176zM73 78l-49 283l951 -16l-48 -277l-265 34l30 80l-361 2l22 -73z" />
    <glyph glyph-name="uni2493" unicode="&#x2493;" vert-adv-y="900" 
d="M159 610l83 1l31 -569l-113 -5zM721 150l120 -15l-10 -104l-129 6zM444 169l6 -68l180 34l9 -83l-297 -15v131l176 150l27 207l-42 33l-137 -84l-39 88l174 80l156 -113l-18 -195z" />
    <glyph glyph-name="Uacute" unicode="&#xda;" horiz-adv-x="640" vert-adv-y="880" 
d="M77 67l4 583l149 -6l-15 -517l134 -51l97 40l-6 507l98 2l9 -596l-100 -5v15l-108 -44zM434 790l-120 -87l-34 44l91 112z" />
    <glyph glyph-name="uniFF28" unicode="&#xff28;" 
d="M639 26l2 283l-234 -30l16 -277l-153 -4l-9 648l126 2l17 -292l237 26l1 252l96 -2l-2 -609z" />
    <glyph glyph-name="uni3225" unicode="&#x3225;" vert-adv-y="763" 
d="M945 580l-18 -544l-171 -178l-152 28l21 84l117 -29l109 109l9 515l-97 105l-129 -24l-12 85l152 28zM378 -114l-153 -28l-171 178l18 544l171 179l153 -28l-13 -76l-125 21l-109 -110l-9 -515l96 -105l120 24zM819 354l-638 -17v58l638 17v-58zM361 285l98 -50
l-159 -204l-53 28zM693 247l105 -164l-63 -46l-145 159zM409 549l101 64l98 -132l-68 -49z" />
    <glyph glyph-name="circleplus" unicode="&#x2295;" 
d="M594 782l340 -131l-13 -566l-128 -179l-728 44l19 720zM179 14l571 -47l106 162l14 464l-309 119l-384 -89zM444 81l-4 229l-210 -21l-11 78l219 18l-4 226l136 3l17 -217l217 18l8 -68l-219 -22l20 -240z" />
    <glyph glyph-name="ring" unicode="&#x2da;" vert-adv-y="898" 
d="M512 648l103 -81l-39 -145l-184 19l-8 140zM457 559l7 -74l74 -10l22 78l-45 36z" />
    <glyph glyph-name="fl" unicode="&#xf002;" vert-adv-y="892" 
d="M236 409l77 14l1 175l169 71l104 -62l-36 -74l-86 56l-37 -16l8 -129l100 18l9 -56l-105 -25l23 -383l-152 -9l2 360l-64 -15zM619 -4l-1 649l119 2l26 -646z" />
    <glyph glyph-name="Ocircumflex" unicode="&#xd4;" horiz-adv-x="668" vert-adv-y="880" 
d="M358 655l215 -99l-39 -559l-454 30l-3 553zM223 532l15 -433l209 -15l27 445l-104 48zM381 850l112 -125l-43 -46l-103 115l-77 -127l-89 41l114 163z" />
    <glyph glyph-name="uniFF25" unicode="&#xff25;" 
d="M415 625l260 21l7 -73l-263 -26l7 -189l212 20l5 -71l-213 -23l8 -201l275 36l6 -99l-278 -14v-13l-161 -4l8 657l126 2z" />
    <glyph glyph-name="iacute" unicode="&#xed;" horiz-adv-x="300" vert-adv-y="904" 
d="M245 581l-120 -87l-34 44l91 113zM59 445l118 4l30 -440l-152 -12z" />
    <glyph glyph-name="Atilde" unicode="&#xc3;" horiz-adv-x="707" vert-adv-y="880" 
d="M162 -15l-138 62l246 621l108 -47l-7 -21l240 -549l-86 -45l-82 195l-217 -27zM444 845l110 -13l-29 -136l-228 -16l-21 123l-72 11l-13 -33l27 -75l-89 -36l-25 96l65 106v1h1l172 -27h1l19 -111l71 5zM253 253l160 17l-85 204z" />
    <glyph glyph-name="brokenbar" unicode="&#xa6;" horiz-adv-x="162" vert-adv-y="897" 
d="M60 652h65v-267h-65v267zM60 266h65v-266h-65v266z" />
    <glyph glyph-name="Ydieresis" unicode="&#x178;" horiz-adv-x="634" vert-adv-y="882" 
d="M525 634l60 -51l-192 -284l7 -297l-137 -6l4 262l-231 287l122 109l193 -266zM217 814l101 -13l-8 -98l-108 6zM381 814l101 -13l-8 -98l-109 6z" />
    <glyph glyph-name="Eacute" unicode="&#xc9;" horiz-adv-x="563" vert-adv-y="880" 
d="M216 625l260 21l7 -73l-264 -26l7 -189l212 20l6 -71l-214 -23l8 -201l275 36l6 -99l-278 -14l1 -13l-162 -4l8 657l127 2zM374 789l-120 -87l-34 44l91 113z" />
    <glyph glyph-name="uni3220" unicode="&#x3220;" vert-adv-y="765" 
d="M945 580l-18 -544l-171 -178l-152 28l21 84l117 -29l109 109l9 515l-97 105l-129 -24l-12 85l152 28zM378 -114l-153 -28l-171 178l18 544l171 179l153 -28l-13 -76l-125 21l-109 -110l-9 -515l96 -105l120 24zM231 349l535 42v-88l-535 -20v66z" />
    <glyph glyph-name="uni3221" unicode="&#x3221;" vert-adv-y="763" 
d="M945 580l-18 -544l-171 -178l-152 28l21 84l117 -29l109 109l9 515l-97 105l-129 -24l-12 85l152 28zM378 -114l-153 -28l-171 178l18 544l171 179l153 -28l-13 -76l-125 21l-109 -110l-9 -515l96 -105l120 24zM263 204l468 27l4 -92l-472 4v61zM351 504l292 -15l8 -62
l-311 -10z" />
    <glyph glyph-name="uni3222" unicode="&#x3222;" vert-adv-y="763" 
d="M945 580l-18 -544l-171 -178l-152 28l21 84l117 -29l109 109l9 515l-97 105l-129 -24l-12 85l152 28zM378 -114l-153 -28l-171 178l18 544l171 179l153 -28l-13 -76l-125 21l-109 -110l-9 -515l96 -105l120 24zM248 143l499 29l4 -96l-503 5v62zM327 549l312 -15l9 -64
l-331 -12zM597 346v-63h-236v63h236z" />
    <glyph glyph-name="uni33A1" unicode="&#x33a1;" vert-adv-y="885" 
d="M147 -4l-28 477l125 13l4 -41l301 54l194 -57l-5 -393l-115 -16l20 375l-93 29l-41 -11l-15 -362l-77 -8l-18 339l-143 -40l30 -345zM743 612l1 -41l116 20l4 -52l-189 -10v87l117 75l14 88l-23 12l-107 -39l-19 55l115 33l108 -62l-10 -84z" />
    <glyph glyph-name="umacron" unicode="&#x16b;" horiz-adv-x="513" vert-adv-y="905" 
d="M193 491l-7 -376l81 -46l72 39l9 373l97 -2l-14 -470l-94 -2l1 27l-91 -37l-179 77l-8 413zM169 610h203v-72h-203v72z" />
    <glyph glyph-name="uniFF27" unicode="&#xff27;" 
d="M641 124v119l-98 -7l-3 70l191 15l4 -307l-94 -9v26l-364 -24l-12 492l225 161l216 -54l-31 -107l-193 65l-88 -65l37 -408z" />
    <glyph glyph-name="uni3226" unicode="&#x3226;" vert-adv-y="763" 
d="M802 380l-331 -48l14 -222l167 25l68 101l65 -16l-16 -180l-339 6l-53 -4l-17 275l-156 -23l-7 66l159 23l-10 161l113 7l9 -151l323 47zM945 580l-18 -544l-171 -178l-152 28l21 84l117 -29l109 109l9 515l-97 105l-129 -24l-12 85l152 28zM378 -114l-153 -28l-171 178
l18 544l171 179l153 -28l-13 -76l-125 21l-109 -110l-9 -515l96 -105l120 24z" />
    <glyph glyph-name="ordfeminine" unicode="&#xaa;" horiz-adv-x="408" vert-adv-y="899" 
d="M165 346l-105 61l43 218l220 23l-13 -243l33 5l4 -52l-96 -12l1 36zM258 440l9 145l-106 -14l-21 -139l45 -25z" />
    <glyph glyph-name="uniFF2D" unicode="&#xff2d;" 
d="M666 649l140 -57l-33 -593l-81 6l32 437l-181 -338l-74 46l9 25l-147 279l27 -454l-156 -4l-9 637l126 6l197 -369z" />
    <glyph glyph-name="uni3227" unicode="&#x3227;" vert-adv-y="763" 
d="M945 580l-18 -544l-171 -178l-152 28l21 84l117 -29l109 109l9 515l-97 105l-129 -24l-12 85l152 28zM378 -114l-153 -28l-171 178l18 544l171 179l153 -28l-13 -76l-125 21l-109 -110l-9 -515l96 -105l120 24zM832 123l-110 -57l-228 424l108 56zM389 392l-134 -323
l-70 30l94 323z" />
    <glyph glyph-name="element" unicode="&#x2208;" 
d="M826 304l-492 25l15 -229l486 -17l-3 -76l-656 23l-11 325l74 57l-16 227l236 88l370 -45l-12 -80l-356 41l-91 -35l17 -205l443 -17z" />
    <glyph glyph-name="oslash" unicode="&#xf8;" horiz-adv-x="550" vert-adv-y="916" 
d="M206 5l-53 -120l-57 29l41 93l-68 3l-17 405l249 77l39 -17l44 98l56 -30l-40 -92l83 -34l-27 -419zM369 379l-135 -310l138 -4l17 305zM183 392l15 -245l113 260l-36 17z" />
    <glyph glyph-name="OE" unicode="&#x152;" horiz-adv-x="968" vert-adv-y="898" 
d="M581 625l260 21l6 -73l-264 -26l8 -189l211 20l6 -71l-214 -23l8 -201l276 36l5 -99l-277 -14l1 -13l-162 -4v14l-365 24l-3 553l281 75l95 -44v35l127 2zM223 532l15 -433l208 -15l6 455l-82 38z" />
    <glyph glyph-name="question" unicode="?" horiz-adv-x="666" vert-adv-y="897" 
d="M315 652l203 -146l-164 -329l-103 44l127 315l-45 34l-165 -106l-47 94zM240 117l109 -14l-9 -104l-117 6z" />
    <glyph glyph-name="atilde" unicode="&#xe3;" horiz-adv-x="538" vert-adv-y="904" 
d="M213 -3l-161 61l38 410l361 23l-12 -416l58 2l4 -66l-161 -14l1 37zM344 99l12 329l-146 -13l-17 -318l52 -25zM364 644l88 -10l-23 -108l-182 -13l-16 97l-58 9l-11 -26l22 -59l-71 -29l-20 76l52 85v1h1l137 -22h1l15 -88l57 4z" />
    <glyph glyph-name="Ccedilla" unicode="&#xc7;" horiz-adv-x="583" vert-adv-y="900" 
d="M396 -167l-171 4l4 68l102 -26l11 75l-110 -3v1l17 81l-161 12l-11 511l280 99l184 -83l-42 -90l-178 89l-112 -44l30 -420l246 16l3 -107l-178 13l-5 -30h105z" />
    <glyph glyph-name="uniFE5A.001" 
d="M566 624l-20 -604l-190 -198l-169 31l23 94l130 -33l121 122l10 572l-108 116l-143 -26l-13 94l169 31z" />
    <glyph glyph-name="Ucircumflex" unicode="&#xdb;" horiz-adv-x="640" vert-adv-y="880" 
d="M77 67l4 583l149 -6l-15 -517l134 -51l97 40l-6 507l98 2l9 -596l-100 -5v15l-108 -44zM370 850l112 -125l-44 -46l-103 115l-77 -127l-89 41l115 163z" />
    <glyph glyph-name="uni2109" unicode="&#x2109;" vert-adv-y="897" 
d="M307 666l103 -81l-38 -145l-184 19l-8 140zM253 577l7 -74l74 -10l22 78l-46 36zM568 486l14 -195l211 14l5 -71l-212 -17l18 -270l-136 -7l-1 647l94 3l2 -26l252 23l5 -73z" />
    <glyph glyph-name="uni2103" unicode="&#x2103;" vert-adv-y="897" 
d="M501 460l22 -434l263 17l3 -111l-373 30l-11 528l249 102l190 -85l-43 -93l-185 92zM283 666l104 -81l-39 -145l-184 19l-8 140zM229 577l7 -74l74 -10l22 78l-45 36z" />
    <glyph glyph-name="onehalf" unicode="&#xbd;" horiz-adv-x="693" vert-adv-y="903" 
d="M158 -28l-57 30l297 680l56 -30zM121 645l59 2l19 -297l-77 -4zM426 83l1 -41l115 20l5 -52l-190 -10v86l118 76l14 88l-23 12l-107 -39l-20 55l116 32l108 -61l-10 -84z" />
    <glyph glyph-name="Thorn" unicode="&#xde;" horiz-adv-x="661" vert-adv-y="899" 
d="M110 0l-9 648l110 2l4 -102l151 41l168 -161l-111 -297l-186 -22l2 -105zM221 471l13 -282l105 15l79 234l-71 72z" />
    <glyph glyph-name="Egrave" unicode="&#xc8;" horiz-adv-x="563" vert-adv-y="880" 
d="M216 625l260 21l7 -73l-264 -26l7 -189l212 20l6 -71l-214 -23l8 -201l275 36l6 -99l-278 -14l1 -13l-162 -4l8 657l127 2zM253 859l91 -112l-34 -44l-120 87z" />
    <glyph glyph-name="emacron" unicode="&#x113;" horiz-adv-x="525" vert-adv-y="905" 
d="M73 -4l-17 409l193 86l205 -18v-239l-253 -59l6 -97l252 34l5 -100zM195 247l159 36l1 130l-108 11l-61 -29zM166 610h202v-72h-202v72z" />
    <glyph glyph-name="uni3228" unicode="&#x3228;" vert-adv-y="763" 
d="M500 588l-49 -130l187 14v-328l194 33l-7 -119h-268l-32 328l-101 -3l-127 -345l-70 22l119 321l-121 -3l-3 62l150 12l59 158zM945 580l-18 -544l-171 -178l-152 28l21 84l117 -29l109 109l9 515l-97 105l-129 -24l-12 85l152 28zM378 -114l-153 -28l-171 178l18 544
l171 179l153 -28l-13 -76l-125 21l-109 -110l-9 -515l96 -105l120 24z" />
    <glyph glyph-name="multiply" unicode="&#xd7;" horiz-adv-x="615" vert-adv-y="921" 
d="M388 87l-119 159l-122 -134l-46 49l129 136l-117 157l84 79l121 -143l128 134l39 -43l-127 -139l134 -158z" />
    <glyph glyph-name="uni226E" unicode="&#x226e;" 
d="M424 247l-293 79l3 138l453 120l99 204l70 -34l-70 -143l152 40l20 -73l-215 -57l-86 -179l311 -79l-28 -128l-339 91l-97 -200l-70 33zM480 362l64 133l-288 -75z" />
    <glyph glyph-name="uniFE5C" unicode="&#xfe5c;" 
d="M463 727l-8 -283l92 -59l23 -106l-120 -129l23 -285l-152 -44l-166 35l23 94l147 -42l11 287l152 138l-157 117l-2 274l-34 19l-147 -51l-23 93l149 41z" />
    <glyph glyph-name="uniFE5B" unicode="&#xfe5b;" 
d="M726 826l149 -41l-23 -93l-147 51l-34 -19l-2 -274l-157 -117l152 -138l11 -287l147 42l23 -94l-166 -35l-152 44l23 285l-120 129l23 106l92 59l-8 283z" />
    <glyph glyph-name="uniFE4A" unicode="&#xfe4a;" 
d="M676 712h250v-80h-250v80zM73 712h250v-80h-250v80zM439 744l133 -16l-11 -116l-143 7z" />
    <glyph glyph-name="uniFE5E" unicode="&#xfe5e;" 
d="M374 735l-156 19l8 69l287 -26l-18 -940l-297 -35l-8 78l154 24z" />
    <glyph glyph-name="uniFE5D" unicode="&#xfe5d;" 
d="M656 -76l154 -24l-8 -78l-297 35l-18 940l287 26l8 -69l-156 -19z" />
    <glyph glyph-name="uni249A" unicode="&#x249a;" vert-adv-y="900" 
d="M165 610l83 1l31 -569l-113 -5zM554 271l-61 -30l-163 58l40 330l294 6l-39 -599l-261 12l1 85l178 -27zM557 337l15 234l-99 -6l-24 -217l59 -35zM715 150l120 -15l-10 -104l-129 6z" />
    <glyph glyph-name="uni249B" unicode="&#x249b;" vert-adv-y="900" 
d="M759 551l-34 -521l-285 27l-4 516l170 71zM657 100l26 414l-78 47l-60 -31l6 -417zM181 169l7 -68l180 34l8 -83l-296 -15l-1 131l176 150l27 207l-42 33l-137 -84l-39 88l174 80l156 -113l-17 -195zM815 150l120 -15l-10 -104l-129 6z" />
    <glyph glyph-name="uniFE5F" unicode="&#xfe5f;" 
d="M319 1l-2 141l-93 -9l-1 70l94 9l-2 197l-99 -9l-1 70l99 8l-3 171l111 3l9 -165l166 12l1 137l92 -2l-1 -127l81 7l6 -62l-87 -8l-1 -197l90 9l6 -71l-97 -9v-150l-93 3v139l-146 -14l8 -150zM444 224l151 14l1 198l-163 -16z" />
    <glyph glyph-name="ellipsis" unicode="&#x2026;" 
d="M143 402l133 -16l-11 -116l-143 7zM442 402l133 -16l-11 -116l-143 7zM744 402l133 -16l-11 -116l-143 7z" />
    <glyph glyph-name="uni2252" unicode="&#x2252;" 
d="M867 381l8 -68l-739 -38l-12 78zM867 536l8 -108l-749 3l-2 87zM625 215l133 -16l-11 -116l-143 7zM251 738l133 -16l-11 -116l-143 7z" />
    <glyph glyph-name="uni3231" unicode="&#x3231;" vert-adv-y="763" 
d="M752 480l-95 -12l6 -101l134 24l7 -63l-138 -14l6 -94l169 -40l-28 -91l-138 71l10 -147l-90 -3l-19 295l-19 -2l-106 -244l-50 25l91 213l-60 -6l-10 35l151 26l-7 105l-54 -6l-9 -81l-87 12l24 191l85 -7l-6 -57l43 6l-6 105l91 8l6 -102l91 12zM945 580l-18 -544
l-171 -178l-152 28l21 84l117 -29l109 109l9 515l-97 105l-129 -24l-12 85l152 28zM378 -114l-153 -28l-171 178l18 544l171 179l153 -28l-13 -76l-125 21l-109 -110l-9 -515l96 -105l120 24zM405 411l-44 -2l5 -134l58 -18l-14 -47l-42 11l6 -199l-86 -3l-7 227l-24 7
l-5 -133l-80 15l41 267l-33 -2l-2 53l96 4l-4 114l86 5l4 -114l41 2zM260 307l19 -6l-3 104l-12 -1z" />
    <glyph glyph-name="caron" unicode="&#x2c7;" vert-adv-y="901" 
d="M458 452l-115 163l89 41l77 -127l103 114l44 -45l-112 -126z" />
    <glyph glyph-name="uni01D8" unicode="&#x1d8;" horiz-adv-x="513" vert-adv-y="888" 
d="M193 491l-7 -376l81 -46l72 39l9 373l97 -2l-14 -470l-94 -2l1 27l-91 -37l-179 77l-8 413zM137 614l102 -14l-8 -98l-109 6zM302 614l100 -14l-8 -98l-109 6zM373 716l-120 -87l-34 44l91 113z" />
    <glyph glyph-name="lessequal" unicode="&#x2264;" 
d="M262 420l612 -157l-28 -128l-709 191l3 138l704 187l20 -73zM854 63l-13 -68l-716 188l12 78z" />
    <glyph glyph-name="partialdiff" unicode="&#x2202;" 
d="M262 390l181 90l149 -52l41 146l-96 64l-157 -36l-20 102l198 16l223 -144l-155 -593l-408 111zM474 389l-99 -57l-31 -214l152 -33l76 268z" />
    <glyph glyph-name="uniFF0F" unicode="&#xff0f;" 
d="M620 682l56 -30l-296 -680l-56 30z" />
    <glyph glyph-name="Idieresis" unicode="&#xcf;" horiz-adv-x="446" vert-adv-y="882" 
d="M272 640l31 -637l-153 -4v639zM100 814l102 -13l-8 -98l-109 6zM265 814l100 -13l-8 -98l-108 6z" />
    <glyph glyph-name="idieresis" unicode="&#xef;" horiz-adv-x="410" vert-adv-y="906" 
d="M80 632l101 -14l-8 -98l-109 6zM244 632l101 -14l-8 -98l-109 6zM131 445l118 4l30 -440l-152 -12z" />
    <glyph glyph-name="degree" unicode="&#xb0;" horiz-adv-x="346" vert-adv-y="908" 
d="M187 648l104 -81l-39 -145l-183 19l-9 140zM133 559l8 -74l73 -10l23 78l-45 36z" />
    <glyph glyph-name="uniFE31" unicode="&#xfe31;" 
d="M460 756h80v-906h-80v906z" />
    <glyph glyph-name="uniFE51" unicode="&#xfe51;" 
d="M429 -112l-173 137l44 73l205 -98z" />
    <glyph glyph-name="uni2498" unicode="&#x2498;" vert-adv-y="901" 
d="M555 550l-191 -25l-3 78l327 16h1l-143 -588l-90 27zM217 610l83 1l32 -569l-114 -5zM663 150l120 -15l-10 -104l-129 6z" />
    <glyph glyph-name="uniFE50.001" 
d="M325 -92l15 63l-80 4l25 142l152 -17l-16 -194z" />
    <glyph glyph-name="uni2499" unicode="&#x2499;" vert-adv-y="900" 
d="M143 610l82 1l32 -569l-113 -5zM738 150l119 -15l-10 -104l-128 6zM665 606l-22 -239l16 -1l-3 -319l-330 -10l-35 183l90 111l-48 215l117 98zM453 323l-54 -72l33 -156l145 3l7 212zM553 376l14 171l-108 24l-36 -33l36 -154z" />
    <glyph glyph-name="uniFE52" unicode="&#xfe52;" 
d="M309 -6l90 -3l6 75l-84 7zM256 150l218 -25l-14 -201l-240 5z" />
    <glyph glyph-name="uni2495" unicode="&#x2495;" vert-adv-y="900" 
d="M159 610l83 1l31 -569l-113 -5zM721 150l120 -15l-10 -104l-129 6zM520 42l9 177l-200 -13l40 405l95 3l-15 -337l84 4l24 355l76 -3l-23 -349l80 4l3 -57l-89 -7l-12 -187z" />
    <glyph glyph-name="uni2496" unicode="&#x2496;" vert-adv-y="901" 
d="M159 610l83 1l31 -569l-113 -5zM721 150l120 -15l-10 -104l-129 6zM540 143l-16 170l-182 9l31 288l259 25l2 -81l-176 5l-17 -174l180 1l31 -279l-205 -78l-132 72l42 77l97 -71z" />
    <glyph glyph-name="uni2166" unicode="&#x2166;" vert-adv-y="903" 
d="M567 597l-184 -579l-96 -20l-168 614l120 38l110 -482l146 464zM687 640l26 -636l-121 -3l-1 637zM855 640l26 -636l-123 -3v637z" />
    <glyph glyph-name="uni2492" unicode="&#x2492;" vert-adv-y="902" 
d="M200 610l83 1l32 -569l-114 -5zM680 150l120 -15l-10 -104l-129 6zM475 610l83 1l31 -569l-113 -5z" />
    <glyph glyph-name="uniFE55" unicode="&#xfe55;" 
d="M411 -33l-166 8l25 142l152 -17zM441 407l-166 8l25 142l152 -17z" />
    <glyph glyph-name="uniFE54.001" 
d="M310 -92l15 63l-80 4l25 142l152 -17l-16 -194zM441 407l-166 8l25 142l152 -17z" />
    <glyph glyph-name="uniFE57" unicode="&#xfe57;" 
d="M269 751l188 -12l-38 -529l-145 5zM411 -33l-166 8l25 142l152 -17z" />
    <glyph glyph-name="quotedblleft" unicode="&#x201c;" horiz-adv-x="800" 
d="M545 732l-13 -55l69 -3l-21 -124l-133 15l14 169zM337 732l-13 -55l69 -3l-21 -124l-133 15l14 169z" />
    <glyph glyph-name="uni2199" unicode="&#x2199;" 
d="M308 177l464 486l69 -69l-488 -472l319 137l30 -79l-488 -206l-56 54l208 508l75 -33z" />
    <glyph glyph-name="uni2198" unicode="&#x2198;" 
d="M690 177l-132 326l75 33l208 -508l-56 -54l-488 206l30 79l319 -137l-488 472l69 69z" />
    <glyph glyph-name="uniFE56" unicode="&#xfe56;" 
d="M495 754l272 -177l-220 -398l-138 54l171 381l-61 41l-223 -128l-63 113zM539 -33l-166 8l25 142l152 -17z" />
    <glyph glyph-name="uni247B" unicode="&#x247b;" vert-adv-y="895" 
d="M658 615l-19 -239l14 -1l-3 -319l-290 -10l-31 183l79 111l-42 215l102 98zM896 610l-18 -544l-171 -178l-152 28l21 84l117 -29l108 109l9 515l-97 105l-128 -24l-12 85l152 28zM427 -84l-153 -28l-170 178l18 544l170 179l153 -28l-13 -76l-125 21l-109 -110l-9 -515
l97 -105l119 24zM472 332l-48 -72l29 -156l128 3l6 212zM559 385l13 171l-95 24l-32 -33l32 -154z" />
    <glyph glyph-name="uniFE14" unicode="&#xfe14;" 
d="M451 -71l25 93l-80 4l25 142l152 -17l-26 -224zM592 458l-166 8l25 142l152 -17z" />
    <glyph glyph-name="uniFE33" unicode="&#xfe33;" 
d="M460 756h80v-906h-80v906z" />
    <glyph glyph-name="uni247C" unicode="&#x247c;" vert-adv-y="895" 
d="M558 280l-54 -30l-144 58l36 330l258 6l-34 -599l-230 12l1 85l157 -27zM909 610l-18 -544l-171 -178l-152 28l21 84l117 -29l109 109l9 515l-97 105l-129 -24l-12 85l152 28zM414 -84l-153 -28l-171 178l18 544l171 179l153 -28l-13 -76l-125 21l-109 -110l-9 -515
l96 -105l120 24zM559 346l15 234l-88 -6l-21 -217l51 -35z" />
    <glyph glyph-name="uni2172" unicode="&#x2172;" vert-adv-y="905" 
d="M234 445l117 4l31 -440l-152 -12zM237 527l-17 112l116 7l9 -104zM435 445l117 4l32 -440l-153 -12zM439 527l-17 112l115 7l9 -104zM630 445l117 4l32 -440l-153 -12zM633 527l-16 112l115 7l9 -104z" />
    <glyph glyph-name="uni247A" unicode="&#x247a;" vert-adv-y="895" 
d="M405 -84l-153 -28l-171 178l18 544l171 179l153 -28l-13 -76l-125 21l-109 -110l-9 -515l96 -105l120 24zM918 610l-18 -544l-171 -178l-152 28l21 84l117 -29l109 109l9 515l-97 105l-129 -24l-12 85l152 28zM532 559l-168 -25l-3 78l288 16h1l-126 -588l-79 27z" />
    <glyph glyph-name="uniFF09" unicode="&#xff09;" 
d="M566 594l-20 -544l-190 -198l-169 31l23 94l130 -33l121 122l10 512l-108 116l-143 -26l-13 94l169 31z" />
    <glyph glyph-name="uniFF08" unicode="&#xff08;" 
d="M819 -107l-170 -31l-189 198l20 534l189 199l170 -31l-14 -84l-139 23l-121 -122l-10 -502l107 -117l133 27z" />
    <glyph glyph-name="uniFE59.001" 
d="M819 -147l-170 -31l-189 198l20 604l189 199l170 -31l-14 -84l-139 23l-121 -122l-10 -572l107 -117l133 27z" />
    <glyph glyph-name="uniFF04" unicode="&#xff04;" 
d="M570 653l161 -84l-42 -84l-137 78l-16 -213l168 12l-6 -348l-189 -5l-5 -78l-63 6l6 70l-170 -5l-5 104l181 -12l15 185l-200 -13l2 305l225 62l8 89l62 -7l-6 -64zM531 283l-16 -193l86 -5v203zM472 346l17 211l-88 -26l-3 -191z" />
    <glyph glyph-name="uni2173" unicode="&#x2173;" vert-adv-y="905" 
d="M211 445l117 4l31 -440l-152 -12zM214 527l-17 112l116 7l9 -104zM371 445l122 49l97 -355l137 352l75 -39l-175 -447l-109 -19z" />
    <glyph glyph-name="ecaron" unicode="&#x11b;" horiz-adv-x="525" vert-adv-y="902" 
d="M464 12l-5 100l-252 -34l-6 97l253 59v239l-205 18l-193 -86l17 -409zM186 395l61 29l108 -11l-1 -130l-159 -36zM223 504l-114 163l89 41l77 -127l103 115l42 -46l-111 -125z" />
    <glyph glyph-name="threesuperior" unicode="&#xb3;" horiz-adv-x="302" vert-adv-y="899" 
d="M250 573l-62 -73l63 -89l-7 -38l-164 -36l-8 54l125 18l-38 58l-9 -12l-43 44l84 81l-26 30l-88 -44l-17 48l118 39z" />
    <glyph glyph-name="guillemotleft" unicode="&#xab;" horiz-adv-x="751" vert-adv-y="917" 
d="M240 359l159 -126l-51 -76l-204 162l-3 80l201 152l49 -66zM456 359l159 -126l-50 -76l-205 162l-3 80l201 152l49 -66z" />
    <glyph glyph-name="uni247F" unicode="&#x247f;" vert-adv-y="895" 
d="M909 610l-18 -544l-171 -178l-152 28l21 84l117 -29l109 109l9 515l-97 105l-129 -24l-12 85l152 28zM414 -84l-153 -28l-171 178l18 544l171 179l153 -28l-13 -76l-125 21l-109 -110l-9 -515l96 -105l120 24zM552 177l6 -69l145 34l8 -82l-241 -16l-1 131l143 151
l22 208l-34 33l-111 -85l-31 89l141 80l126 -113l-14 -196zM315 619l72 1l28 -569l-100 -5v573z" />
    <glyph glyph-name="uniFE12" unicode="&#xfe12;" 
d="M462 300l90 -3l6 75l-84 7zM409 456l218 -25l-14 -201l-240 5z" />
    <glyph glyph-name="Ecircumflex" unicode="&#xca;" horiz-adv-x="563" vert-adv-y="880" 
d="M216 625l260 21l7 -73l-264 -26l7 -189l212 20l6 -71l-214 -23l8 -201l275 36l6 -99l-278 -14l1 -13l-162 -4l8 657l127 2zM328 850l111 -126l-43 -45l-103 114l-76 -127l-89 41l114 163z" />
    <glyph glyph-name="uni247D" unicode="&#x247d;" vert-adv-y="895" 
d="M720 560l-27 -523l-232 27l-2 518l137 71zM909 610l-18 -544l-171 -178l-152 28l21 84l117 -29l109 109l9 515l-97 105l-129 -24l-12 85l152 28zM414 -84l-153 -28l-171 178l18 544l171 179l153 -28l-13 -76l-125 21l-109 -110l-9 -515l96 -105l120 24zM297 619l72 1
l28 -569l-100 -5v573zM638 107l20 416l-63 47l-48 -31l5 -419z" />
    <glyph glyph-name="uni247E" unicode="&#x247e;" vert-adv-y="895" 
d="M891 610l-18 -544l-171 -178l-152 28l21 84l117 -29l109 109l9 515l-97 105l-129 -24l-12 85l152 28zM432 -84l-153 -28l-171 178l18 544l171 179l153 -28l-13 -76l-125 21l-109 -110l-9 -515l96 -105l120 24zM351 619l72 1l28 -569l-100 -5v573zM561 619l73 1l28 -569
l-100 -5z" />
    <glyph glyph-name="breve" unicode="&#x2d8;" vert-adv-y="916" 
d="M458 282l-115 163l89 41l77 -127l103 114l44 -46l-112 -125z" />
    <glyph glyph-name="uniFE3C" unicode="&#xfe3c;" 
d="M182 724l-27 -133l137 -67l407 10l152 81l-33 129l114 24l31 -348l-926 -22l31 350z" />
    <glyph glyph-name="uniFE3B" unicode="&#xfe3b;" 
d="M68 4l-31 350l926 -22l-31 -348l-114 24l33 129l-152 81l-407 10l-137 -67l27 -133z" />
    <glyph glyph-name="threequarters" unicode="&#xbe;" horiz-adv-x="738" vert-adv-y="903" 
d="M291 573l-62 -73l63 -89l-7 -38l-164 -36l-8 54l125 18l-38 58l-10 -12l-42 44l83 81l-26 30l-88 -44l-16 48l118 39zM231 -28l-57 30l297 680l56 -30zM505 0l6 76l-122 -9l27 220l67 2l-10 -177l42 3l16 187l54 -1l-17 -183l32 3l3 -38l-38 -5l-9 -81z" />
    <glyph glyph-name="ugrave" unicode="&#xf9;" horiz-adv-x="513" vert-adv-y="904" 
d="M193 491l-7 -376l81 -46l72 39l9 373l97 -2l-14 -470l-94 -2l1 27l-91 -37l-179 77l-8 413zM240 651l90 -113l-34 -44l-119 87z" />
    <glyph glyph-name="uni2267" unicode="&#x2267;" 
d="M140 608l20 73l704 -187l3 -138l-709 -191l-28 128l612 157zM867 20l8 -68l-739 -38l-12 78zM867 153l8 -68l-739 -38l-12 78z" />
    <glyph glyph-name="dieresis" unicode="&#xa8;" horiz-adv-x="401" vert-adv-y="899" 
d="M76 650l101 -14l-8 -98l-109 6zM240 650l100 -14l-8 -98l-108 6z" />
    <glyph glyph-name="sterling" unicode="&#xa3;" horiz-adv-x="667" vert-adv-y="899" 
d="M513 558l-47 -94l-149 106l-45 -34l31 -136l98 17l9 -56l-93 -23l25 -108l-72 -142l257 38l12 -101l-405 -25l97 204l-35 105l-83 -20l-12 75l74 13l-43 129l203 146z" />
    <glyph glyph-name="periodcentered" unicode="&#xb7;" horiz-adv-x="319" vert-adv-y="926" 
d="M118 362l108 -15l-9 -104l-116 6z" />
    <glyph glyph-name="Eth" unicode="&#xd0;" horiz-adv-x="737" vert-adv-y="898" 
d="M186 -26l-5 306l-92 -11l-9 88l99 4l-2 268l134 2l1 -21l159 41l201 -170l-141 -459l-194 -22l2 -23zM325 298l9 -218l113 13l75 407l-71 72l-134 -39l6 -167l75 3l6 -61z" />
    <glyph glyph-name="uni2465" unicode="&#x2465;" vert-adv-y="890" 
d="M585 734l306 -118l-12 -510l-115 -161l-655 40l17 648zM212 43l513 -43l96 146l12 418l-278 107l-345 -80zM643 80l-231 -10l-11 456l140 66l103 -45l-23 -71l-80 53l-59 -30l2 -113l88 13l86 -96zM486 329l7 -207l86 -2l11 160l-46 58z" />
    <glyph glyph-name="uni2464" unicode="&#x2464;" vert-adv-y="890" 
d="M585 734l306 -118l-12 -510l-115 -161l-655 40l17 648zM212 43l513 -43l96 146l12 418l-278 107l-345 -80zM568 159l-12 148l-141 8l24 251l199 21l2 -70l-135 4l-13 -151l138 1l24 -243l-157 -68l-102 62l33 67l74 -61z" />
    <glyph glyph-name="uni2467" unicode="&#x2467;" vert-adv-y="890" 
d="M585 734l306 -118l-12 -510l-115 -161l-655 40l17 648zM212 43l513 -43l96 146l12 418l-278 107l-345 -80zM643 562l-17 -207l11 -2l-2 -278l-253 -8l-26 158l68 98l-36 187l89 85zM480 315l-42 -62l26 -137l111 4l6 184zM556 361l11 150l-83 21l-28 -29l27 -135z" />
    <glyph glyph-name="uni2466" unicode="&#x2466;" vert-adv-y="890" 
d="M585 734l306 -118l-12 -510l-115 -161l-655 40l17 648zM212 43l513 -43l96 146l12 418l-278 107l-345 -80zM545 514l-147 -21l-3 68l252 13l-110 -513l-68 24z" />
    <glyph glyph-name="uni2461" unicode="&#x2461;" vert-adv-y="890" 
d="M585 734l306 -118l-12 -510l-115 -161l-655 40l17 648zM212 43l513 -43l96 146l12 418l-278 107l-345 -80zM482 181l5 -60l127 30l7 -72l-211 -14v114l126 132l18 182l-30 27l-96 -73l-27 77l122 70l110 -99l-11 -171z" />
    <glyph glyph-name="uni2460" unicode="&#x2460;" vert-adv-y="890" 
d="M585 734l306 -118l-12 -510l-115 -161l-655 40l17 648zM212 43l513 -43l96 146l12 418l-278 107l-345 -80zM482 565l63 2l26 -497l-88 -3z" />
    <glyph glyph-name="uni2463" unicode="&#x2463;" vert-adv-y="890" 
d="M585 734l306 -118l-12 -510l-115 -161l-655 40l17 648zM212 43l513 -43l96 146l12 418l-278 107l-345 -80zM532 70l7 155l-155 -11l32 353l73 2l-12 -294l65 4l19 309l58 -3l-18 -303l62 4l2 -51l-68 -5l-10 -163z" />
    <glyph glyph-name="Iacute" unicode="&#xcd;" horiz-adv-x="324" vert-adv-y="880" 
d="M207 640l31 -637l-152 -4l-1 639zM255 789l-120 -87l-34 44l91 113z" />
    <glyph glyph-name="uniFE3E" unicode="&#xfe3e;" 
d="M899 662l65 -66l-413 -370l-71 1l-445 365l72 60l413 -324zM899 949l65 -66l-413 -370l-71 1l-445 365l72 60l413 -324z" />
    <glyph glyph-name="ncaron" unicode="&#x148;" horiz-adv-x="559" vert-adv-y="902" 
d="M231 10l-31 363l108 50l83 -25l-11 -360l96 -7l10 403l-201 57l-92 -36l-2 26l-127 -8l27 -477zM223 504l-114 163l89 41l77 -127l103 115l42 -46l-111 -125z" />
    <glyph glyph-name="uni2462" unicode="&#x2462;" vert-adv-y="890" 
d="M585 734l306 -118l-12 -510l-115 -161l-655 40l17 648zM212 43l513 -43l96 146l12 418l-278 107l-345 -80zM667 466l-96 -129l89 -156l-7 -63l-212 -53l-7 89l164 24l-65 104l-10 -15l-59 75l111 140l-36 38l-105 -58l-24 77l136 55z" />
    <glyph glyph-name="uni2469" unicode="&#x2469;" vert-adv-y="890" 
d="M585 734l306 -118l-12 -510l-115 -161l-655 40l17 648zM212 43l513 -43l96 146l12 418l-278 107l-345 -80zM342 565l63 2l25 -497l-87 -3zM715 515l-25 -456l-201 23l-3 452l121 61zM643 120l18 363l-55 40l-43 -27l4 -365z" />
    <glyph glyph-name="uni33D5" unicode="&#x33d5;" vert-adv-y="892" 
d="M119 -6l-20 478l91 13l2 -41l218 55l138 -58l-2 -395l-83 -15l13 376l-65 29l-31 -11l-11 -364l-56 -8l-12 341l-104 -40l23 -347zM621 444l84 4l22 -442l-110 -11zM622 526l-12 113l83 7l7 -104zM795 -6v651l86 2l19 -649z" />
    <glyph glyph-name="uni2468" unicode="&#x2468;" vert-adv-y="890" 
d="M585 734l306 -118l-12 -510l-115 -161l-655 40l17 648zM212 43l513 -43l96 146l12 418l-278 107l-345 -80zM559 270l-48 -25l-125 50l32 288l226 4l-31 -521l-200 10l1 74l137 -23zM560 328l13 204l-76 -5l-19 -189l45 -30z" />
    <glyph glyph-name="uni246E" unicode="&#x246e;" vert-adv-y="890" 
d="M585 734l306 -118l-12 -510l-115 -161l-655 40l17 648zM212 43l513 -43l96 146l12 418l-278 107l-345 -80zM331 565l63 2l25 -497l-87 -3zM622 159l-12 148l-141 8l24 251l199 21l2 -70l-135 4l-13 -151l138 1l24 -243l-157 -68l-102 62l33 67l74 -61z" />
    <glyph glyph-name="uni246D" unicode="&#x246d;" vert-adv-y="890" 
d="M585 734l306 -118l-12 -510l-115 -161l-655 40l17 648zM212 43l513 -43l96 146l12 418l-278 107l-345 -80zM331 565l63 2l25 -497l-87 -3zM609 70l8 155l-155 -11l31 353l73 2l-12 -294l65 4l19 309l59 -3l-18 -303l62 4l2 -51l-69 -5l-10 -163z" />
    <glyph glyph-name="uni246F" unicode="&#x246f;" vert-adv-y="890" 
d="M585 734l306 -118l-12 -510l-115 -161l-655 40l17 648zM212 43l513 -43l96 146l12 418l-278 107l-345 -80zM331 565l63 2l25 -497l-87 -3zM706 80l-231 -10l-11 456l140 66l103 -45l-23 -71l-80 53l-59 -30l2 -113l88 13l86 -96zM549 329l7 -207l86 -2l11 160l-46 58z
" />
    <glyph glyph-name="uni246A" unicode="&#x246a;" vert-adv-y="890" 
d="M585 734l306 -118l-12 -510l-115 -161l-655 40l17 648zM212 43l513 -43l96 146l12 418l-278 107l-345 -80zM394 565l63 2l25 -497l-87 -3zM565 565l63 2l25 -497l-87 -3z" />
    <glyph glyph-name="uni246C" unicode="&#x246c;" vert-adv-y="890" 
d="M585 734l306 -118l-12 -510l-115 -161l-655 40l17 648zM212 43l513 -43l96 146l12 418l-278 107l-345 -80zM340 565l63 2l25 -497l-87 -3zM725 466l-96 -129l89 -156l-6 -63l-212 -53l-8 89l164 24l-65 104l-10 -15l-59 75l112 140l-36 38l-106 -58l-24 77l137 55z" />
    <glyph glyph-name="uni246B" unicode="&#x246b;" vert-adv-y="890" 
d="M585 734l306 -118l-12 -510l-115 -161l-655 40l17 648zM212 43l513 -43l96 146l12 418l-278 107l-345 -80zM349 565l63 2l25 -497l-87 -3zM571 181l4 -60l127 30l7 -72l-210 -14v114l125 132l19 182l-31 27l-95 -73l-28 77l122 70l110 -99l-11 -171z" />
    <glyph glyph-name="florin" unicode="&#x192;" horiz-adv-x="454" vert-adv-y="899" 
d="M95 409l83 17l-7 172l169 71l105 -62l-36 -74l-86 56l-37 -16l6 -129l102 18l9 -56l-109 -25l20 -476l-169 -72l-105 62l37 74l85 -56l38 16l-19 427l-75 -22z" />
    <glyph glyph-name="uniFE18" unicode="&#xfe18;" 
d="M135 573l-35 -176l799 13l-35 173l-117 -13l28 -84l-526 -9l21 84zM353 598l-22 -73l361 2l-30 80l265 34l48 -277l-951 -16l49 283z" />
    <glyph glyph-name="Icircumflex" unicode="&#xce;" horiz-adv-x="481" vert-adv-y="880" 
d="M307 640l31 -637l-152 -4l-1 639zM285 850l111 -126l-42 -45l-104 114l-76 -127l-89 41l114 163z" />
    <glyph glyph-name="uni33D2" unicode="&#x33d2;" vert-adv-y="896" 
d="M95 -3l-1 652l85 2l18 -649zM258 11l-11 407l177 77l129 -76l-18 -420zM474 66l13 307l-81 54l-68 -32l16 -323zM715 -3l-104 61l27 414l174 17v13l93 -7l-15 -662l-217 13l1 90l137 -25l1 128zM812 432l-99 -14l-13 -319l39 -25l73 30v328z" />
    <glyph glyph-name="twodotenleader" unicode="&#x2025;" 
d="M195 402l133 -16l-11 -116l-143 7zM693 402l133 -16l-11 -116l-143 7z" />
    <glyph glyph-name="uni33D1" unicode="&#x33d1;" vert-adv-y="892" 
d="M178 -4l-1 649l118 2l27 -646zM428 -4l-27 477l127 8l2 -26l92 36l201 -57l-10 -403l-97 7l12 360l-83 25l-108 -50l31 -363z" />
    <glyph glyph-name="uni203B" unicode="&#x203b;" vert-adv-y="896" 
d="M499 375l217 245l45 -49l-218 -245l218 -244l-46 -49l-216 243l-216 -243l-46 49l218 244l-218 245l45 49zM447 120l107 -15l-9 -104l-115 6zM732 388l108 -15l-9 -104l-116 6zM176 388l108 -15l-9 -104l-116 6zM447 648l107 -14l-9 -105l-115 6z" />
    <glyph glyph-name="arrowright" unicode="&#x2192;" 
d="M728 383l-323 137l30 76l506 -212l-2 -78l-490 -199l-35 77l323 128l-679 -11v98z" />
    <glyph glyph-name="plusminus" unicode="&#xb1;" horiz-adv-x="732" vert-adv-y="918" 
d="M283 149l-3 206l-170 -18l-9 70l177 16l-3 203l110 3l14 -195l175 16l8 -61l-178 -20l16 -216zM126 7l-9 88l474 17l7 -62z" />
    <glyph glyph-name="yen" unicode="&#xa5;" horiz-adv-x="790" vert-adv-y="897" 
d="M590 644l60 -51l-193 -284v-3l109 5l7 -88l-114 1l2 -62l105 10l7 -61l-111 -14l3 -85l-137 -6l1 75l-112 -14l-10 71l123 11l1 76l-122 1l-2 69l99 5l-205 255l121 109l194 -266z" />
    <glyph glyph-name="tilde" unicode="&#x2dc;" vert-adv-y="894" 
d="M615 628l110 -12l-29 -137l-228 -16l-20 123l-73 11l-13 -33l27 -74l-88 -37l-26 96l66 106v1h1l171 -27h1l19 -111l71 5z" />
    <glyph glyph-name="uni01F9" unicode="&#x1f9;" horiz-adv-x="559" vert-adv-y="903" 
d="M91 -4l-27 477l127 8l2 -26l92 36l201 -57l-10 -403l-96 7l11 360l-83 25l-108 -50l31 -363zM259 651l91 -113l-34 -44l-120 87z" />
    <glyph glyph-name="uni2312" unicode="&#x2312;" 
d="M21 293l-21 117l320 189l400 -20l281 -189l-19 -108l-84 14l11 77l-202 136l-380 15l-229 -127l17 -80z" />
    <glyph glyph-name="uni02CB" unicode="&#x2cb;" vert-adv-y="903" 
d="M486 651l90 -113l-33 -44l-120 87z" />
    <glyph glyph-name="uni02CA" unicode="&#x2ca;" vert-adv-y="903" 
d="M576 581l-119 -87l-34 44l90 113z" />
    <glyph glyph-name="guilsinglright" unicode="&#x203a;" vert-adv-y="924" 
d="M405 436l48 65l141 -102l-1 -80l-138 -109l-50 75l90 74z" />
    <glyph glyph-name="zcaron" unicode="&#x17e;" horiz-adv-x="433" vert-adv-y="902" 
d="M406 78l-209 -4l181 411l-343 -3l-1 -73l176 3l-178 -415l376 11zM206 504l-114 163l89 41l77 -127l103 115l43 -46l-112 -125z" />
    <glyph glyph-name="odieresis" unicode="&#xf6;" horiz-adv-x="550" vert-adv-y="906" 
d="M69 10l-17 405l249 77l182 -75l-27 -419zM372 65l17 305l-114 54l-92 -32l20 -321zM153 638l102 -13l-8 -99l-109 7zM318 638l101 -13l-8 -99l-109 7z" />
    <glyph glyph-name="Udieresis" unicode="&#xdc;" horiz-adv-x="640" vert-adv-y="882" 
d="M77 67l4 583l149 -6l-15 -517l134 -51l97 40l-6 507l98 2l9 -596l-100 -5v15l-108 -44zM189 816l102 -13l-8 -98l-109 6zM354 816l100 -13l-8 -98l-108 6z" />
    <glyph glyph-name="acute" unicode="&#xb4;" horiz-adv-x="261" vert-adv-y="899" 
d="M214 581l-119 -87l-35 44l91 113z" />
    <glyph glyph-name="uniFE64" unicode="&#xfe64;" 
d="M382 359l343 -141l-45 -140l-406 172l4 65l5 84l410 168l24 -66z" />
    <glyph glyph-name="uniFE65" unicode="&#xfe65;" 
d="M725 250l-406 -172l-45 140l344 141l-336 142l24 66l410 -168l5 -84z" />
    <glyph glyph-name="Igrave" unicode="&#xcc;" horiz-adv-x="327" vert-adv-y="880" 
d="M226 640l32 -637l-153 -4v639zM148 859l91 -112l-35 -44l-119 87z" />
    <glyph glyph-name="uniFE66" unicode="&#xfe66;" 
d="M675 301l7 -61l-356 -43l-9 70zM675 495l7 -115l-364 2l-1 97z" />
    <glyph glyph-name="uniFE60" unicode="&#xfe60;" 
d="M589 -18l-34 85l-208 -54l-65 254l166 67l-86 214l116 104l228 -31l-10 -246l-129 -53l63 -154l70 25l17 -83l-57 -16l30 -70zM546 372l63 25v180l-114 15l-28 -28zM530 131l-62 152l-62 -25l43 -156z" />
    <glyph glyph-name="uniFE61" unicode="&#xfe61;" 
d="M495 468l-72 -87l-33 36l70 83l-87 14l9 48l80 -10l-9 100l86 2l-8 -101l88 22l8 -43l-77 -24l69 -71l-59 -64z" />
    <glyph glyph-name="uni02C9" unicode="&#x2c9;" vert-adv-y="904" 
d="M413 616h174v-72h-174v72z" />
    <glyph glyph-name="uniFF35" unicode="&#xff35;" 
d="M264 67l5 583l148 -6l-14 -517l134 -51l96 40l-5 507l98 2l9 -596l-100 -5v15l-109 -44z" />
    <glyph glyph-name="uniFE62" unicode="&#xfe62;" 
d="M441 82l-2 206l-170 -19l-9 70l177 16l-4 204l111 3l14 -196l175 16l6 -61l-177 -20l16 -216z" />
    <glyph glyph-name="uniFE63" unicode="&#xfe63;" 
d="M347 269l-9 88l318 12l6 -61z" />
    <glyph glyph-name="uacute" unicode="&#xfa;" horiz-adv-x="513" vert-adv-y="904" 
d="M193 491l-7 -376l81 -46l72 39l9 373l97 -2l-14 -470l-94 -2l1 27l-91 -37l-179 77l-8 413zM360 581l-120 -87l-34 44l91 113z" />
    <glyph glyph-name="Acircumflex" unicode="&#xc2;" horiz-adv-x="659" vert-adv-y="880" 
d="M162 -15l-138 62l246 621l108 -47l-7 -21l240 -549l-86 -45l-82 195l-217 -27zM253 253l160 17l-85 204zM342 832l112 -126l-43 -45l-104 114l-76 -127l-89 41l115 163z" />
    <glyph glyph-name="uniFE68" unicode="&#xfe68;" 
d="M379 679l296 -680l-55 -31l-296 681z" />
    <glyph glyph-name="AE" unicode="&#xc6;" horiz-adv-x="877" vert-adv-y="897" 
d="M498 625l260 21l6 -73l-263 -26l8 -189l211 20l6 -71l-215 -23l8 -201l276 36l6 -99l-278 -14l1 -13l-161 -4l2 202l-139 -17l-64 -189l-138 62l246 621l100 -44l1 22l126 2zM366 265l4 333l-117 -345z" />
    <glyph glyph-name="uniFE69" unicode="&#xfe69;" 
d="M570 653l161 -84l-42 -84l-137 78l-16 -213l168 12l-6 -348l-189 -5l-5 -78l-63 6l6 70l-170 -5l-5 104l181 -12l15 185l-200 -13l2 305l225 62l8 89l62 -7l-6 -64zM531 283l-16 -193l86 -5v203zM472 346l17 211l-88 -26l-3 -191z" />
    <glyph glyph-name="Oslash" unicode="&#xd8;" horiz-adv-x="668" vert-adv-y="899" 
d="M358 655l83 -39l47 108l57 -31l-45 -104l73 -33l-39 -559l-285 18l-62 -140l-56 30l50 115l-101 7l-3 553zM223 532l13 -386l179 410l-45 21zM474 529l-190 -434l163 -11z" />
    <glyph glyph-name="guilsinglleft" unicode="&#x2039;" vert-adv-y="924" 
d="M504 359l90 -74l-50 -75l-138 109l-1 80l141 102l48 -65z" />
    <glyph glyph-name="uniFE6A" unicode="&#xfe6a;" vert-adv-y="867" 
d="M441 588l-39 -280l-273 20l-4 273l176 68zM309 598l-79 -36l7 -191l106 -10l26 201zM735 353l140 -81l-39 -280l-273 20l-4 274zM665 247l7 -192l106 -10l25 202l-60 35zM374 -28l-57 30l298 680l56 -30z" />
    <glyph glyph-name="uniFE6B" unicode="&#xfe6b;" 
d="M531 652l305 -99l-47 -426l-197 -26l1 37l-129 -37l-145 62l31 318l332 24l-6 -343l51 6l38 342l-201 70l-290 -70l2 -430l452 -41l-7 -71l-557 56l13 553zM594 202l6 241l-147 -15l-10 -226l52 -27z" />
    <glyph glyph-name="proportional" unicode="&#x221d;" 
d="M844 130l-374 -6l-2 24l-279 -31l-45 301l115 163l252 -67l130 126l214 -49l-67 -147l-184 45l-84 -76l16 -182l248 8zM449 406l-181 50l-38 -51l27 -151l202 19z" />
    <glyph glyph-name="uni2035" unicode="&#x2035;" vert-adv-y="903" 
d="M491 649l94 -253l-37 -29l-134 239z" />
    <glyph glyph-name="Ugrave" unicode="&#xd9;" horiz-adv-x="640" vert-adv-y="880" 
d="M77 67l4 583l149 -6l-15 -517l134 -51l97 40l-6 507l98 2l9 -596l-100 -5v15l-108 -44zM294 859l90 -112l-34 -44l-119 87z" />
    <glyph glyph-name="uniFF3D" unicode="&#xff3d;" 
d="M374 725l-156 19l8 69l287 -26l-18 -910l-297 -35l-8 78l154 24z" />
    <glyph glyph-name="uniFF2C" unicode="&#xff2c;" 
d="M447 86l243 38l12 -101l-404 -25h-1v648l126 2z" />
    <glyph glyph-name="uni2299" unicode="&#x2299;" 
d="M594 782l340 -131l-13 -566l-128 -179l-728 44l19 720zM179 14l571 -47l106 162l14 464l-309 119l-384 -89zM453 402l133 -16l-11 -116l-143 7z" />
    <glyph glyph-name="uni3224" unicode="&#x3224;" vert-adv-y="763" 
d="M702 337l-62 -201l144 6l4 -61l-574 -21l-3 60l141 5v159l-67 -4l-4 48l71 5v161l-79 -1v60l378 2v-58l-202 -2v-155l148 11l6 18zM945 580l-18 -544l-171 -178l-152 28l21 84l117 -29l109 109l9 515l-97 105l-129 -24l-12 85l152 28zM378 -114l-153 -28l-171 178l18 544
l171 179l153 -28l-13 -76l-125 21l-109 -110l-9 -515l96 -105l120 24zM449 129l80 2l52 170l-132 -9v-163z" />
    <glyph glyph-name="afii61352" unicode="&#x2116;" vert-adv-y="903" 
d="M424 22l1 21l-220 365l24 -402l-131 -6l-2 561l100 4l1 -20l232 -381l12 392h84l-16 -537zM579 142l-14 251l216 67l123 -66l-23 -262zM807 189l16 164l-65 47l-80 -27l18 -178zM598 -9l-7 76l276 11l7 -53z" />
    <glyph glyph-name="apple" unicode="&#xf000;" 
d="M770 164q-10 -19 -26 -46t-36.5 -53.5t-45 -45t-50.5 -18.5q-13 0 -26 4l-25 8q-12 4 -24 7.5t-25 3.5t-25.5 -3.5t-25 -8.5t-25.5 -9t-27 -4q-26 0 -49.5 16t-43.5 41t-35.5 56.5t-27 63.5t-17.5 60.5t-6 49.5q0 31 11.5 62.5t33 56.5t51.5 40.5t67 15.5q32 0 60.5 -9.5
t58.5 -15.5q27 5 53 14t55 9q40 0 74 -18.5t62 -43.5q-31 -18 -54 -46t-23 -64q0 -45 24 -75t67 -48zM635 588q0 -34 -7.5 -58t-23 -40t-40.5 -26.5t-61 -15.5q2 65 31.5 101.5t100.5 48.5v-10z" />
    <glyph glyph-name="registered" unicode="&#xae;" horiz-adv-x="856" vert-adv-y="908" 
d="M460 643l230 -99l19 -426l-154 -91v-3l-454 -9l12 544zM212 71l286 3l133 76l-11 351l-128 70l-282 -70zM367 102l-104 -13l-5 395l82 11l2 -15l79 48l153 -57l-19 -213l-58 -11l67 -90l-54 -48l-96 125l-57 -3zM347 398l9 -97l126 16l16 119l-58 26z" />
    <glyph glyph-name="macron" unicode="&#xaf;" horiz-adv-x="315" vert-adv-y="901" 
d="M60 640h203v-72h-203v72z" />
    <glyph glyph-name="uniFF39" unicode="&#xff39;" 
d="M714 634l60 -51l-192 -284l7 -297l-137 -6l4 262l-231 287l122 109l193 -266z" />
    <glyph glyph-name="uni2121" unicode="&#x2121;" vert-adv-y="896" 
d="M471 634l138 13l4 -43l-140 -16l4 -59l110 13l4 -43l-112 -13l6 -67l147 22l3 -59l-149 -8l1 -8l-97 -2l6 283l75 1v-14zM378 600l-85 -6l6 -221l-98 -6l6 223l-92 -6l-3 51l264 12zM751 415l128 25l8 -58l-227 -16h-1v281l76 1z" />
    <glyph glyph-name="fraction" unicode="&#x2044;" vert-adv-y="902" 
d="M620 682l56 -30l-296 -680l-56 30z" />
    <glyph glyph-name="arrowleft" unicode="&#x2190;" 
d="M270 319l324 -136l-30 -76l-506 212l2 78l490 199l35 -77l-323 -129l679 12v-98z" />
    <glyph glyph-name="cedilla" unicode="&#xb8;" horiz-adv-x="295" vert-adv-y="962" 
d="M231 -167l-171 4l4 68l103 -26l10 75l-109 -3v1l28 135h58l-13 -88h104z" />
    <glyph glyph-name="summation" unicode="&#x2211;" 
d="M468 376l-236 318v60h512v-62h-325l219 -316l-234 -328h377v-62h-563v59z" />
    <glyph glyph-name="scaron" unicode="&#x161;" horiz-adv-x="497" vert-adv-y="902" 
d="M405 0l-349 4l4 85l232 -25l11 138l-231 -21v1l3 247l227 72l145 -57l-40 -76l-119 63l-89 -29l3 -146l218 12zM244 531l-114 163l89 41l76 -127l104 115l43 -46l-112 -125z" />
    <glyph glyph-name="uniFE39" unicode="&#xfe39;" 
d="M162 171l-64 -104l-98 8l155 247l690 18l156 -237l-89 -8l-69 106z" />
    <glyph glyph-name="oe" unicode="&#x153;" horiz-adv-x="859" vert-adv-y="921" 
d="M437 -1l-62 -3v5l-306 9l-17 405l249 77l129 -55l120 54l205 -18v-239l-254 -59l8 -97l252 34l4 -100l-309 -12v-2zM372 65v5l-14 314l-83 40l-92 -32l20 -321zM497 247l158 36v130l-107 11l-61 -29z" />
    <glyph glyph-name="yacute" unicode="&#xfd;" horiz-adv-x="509" vert-adv-y="904" 
d="M240 -4l-180 78l1 413l133 4l-14 -378l80 -44l68 36l6 381l100 -2l-22 -650l-297 12l3 90l206 -27l3 123zM360 581l-120 -87l-34 44l91 113z" />
    <glyph glyph-name="dagger" unicode="&#x2020;" 
d="M683 452l-152 24l27 -491h-126l27 491l-142 -24v112l142 -24l-27 180h126l-27 -180l152 24v-112z" />
    <glyph glyph-name="hungarumlaut" unicode="&#x2dd;" vert-adv-y="892" 
d="M499 581l-120 -87l-34 44l91 113zM655 581l-120 -87l-34 44l91 113z" />
    <glyph glyph-name="uniE78E" unicode="&#xe78e;" 
d="M462 300l90 -3l6 75l-84 7zM409 456l218 -25l-14 -201l-240 5z" />
    <glyph glyph-name="uniE78D" unicode="&#xe78d;" 
d="M466 200l25 103l-80 4l25 142l152 -17l-26 -234z" />
    <glyph glyph-name="uniE78F" unicode="&#xe78f;" 
d="M497 240l-99 177l72 44l140 -151z" />
    <glyph glyph-name="ae" unicode="&#xe6;" horiz-adv-x="859" vert-adv-y="921" 
d="M374 -4l-34 1l1 37l-128 -37l-161 61l38 410l361 23l-2 -45l100 45l205 -18v-239l-253 -59l7 -97l252 34l4 -100zM344 99l12 329l-146 -13l-17 -318l52 -25zM496 247l158 36l1 130l-108 11l-61 -29z" />
    <glyph glyph-name="uni0251" unicode="&#x251;" horiz-adv-x="538" vert-adv-y="921" 
d="M213 -3l-161 61l38 410l361 23l-12 -416l58 2l4 -66l-161 -14l1 37zM344 99l12 329l-146 -13l-17 -318l52 -25z" />
    <glyph glyph-name="afii61248" unicode="&#x2105;" vert-adv-y="902" 
d="M722 353l141 -81l-39 -280l-273 20l-4 274zM652 247l7 -192l106 -10l26 202l-61 35zM362 -28l-56 30l297 680l55 -30zM143 325l-7 283l189 59l98 -54l-29 -54l-89 56l-71 -25l11 -222l154 6l-2 -65z" />
    <glyph glyph-name="uni2472" unicode="&#x2472;" vert-adv-y="890" 
d="M585 734l306 -118l-12 -510l-115 -161l-655 40l17 648zM212 43l513 -43l96 146l12 418l-278 107l-345 -80zM327 565l63 2l25 -497l-87 -3zM636 270l-47 -25l-125 50l31 288l226 4l-31 -521l-199 10v74l137 -23zM637 328l14 204l-77 -5l-19 -189l45 -30z" />
    <glyph glyph-name="uniFE4B" unicode="&#xfe4b;" 
d="M922 723l70 -14l-46 -92l-185 -17l-15 76l-58 11l-28 -70l-195 -17l-15 76l-60 12l-5 -12l-18 -59l-195 -17l-15 76l-60 11l-24 -60l-66 2l47 123v1h2l182 -29h1l13 -63l61 4l34 88v1h2l182 -30h1l13 -63l64 5l34 87v1h2l182 -30h1l13 -63l58 5z" />
    <glyph glyph-name="quotedblbase" unicode="&#x201e;" horiz-adv-x="800" 
d="M229 113l133 -16l-14 -168l-83 2l12 55l-69 2zM459 113l133 -16l-14 -168l-83 2l12 55l-69 2z" />
    <glyph glyph-name="daggerdbl" unicode="&#x2021;" 
d="M536 223l152 24v-112l-152 24l37 -171h-146l37 171l-152 -24v112l152 -24l-33 134l33 138l-152 -24v112l152 -24l-37 161h146l-37 -161l152 24v-112l-152 24l33 -138z" />
    <glyph glyph-name="adieresis" unicode="&#xe4;" horiz-adv-x="538" vert-adv-y="906" 
d="M213 -3l-161 61l38 410l361 23l-12 -416l58 2l4 -66l-161 -14l1 37zM344 99l12 329l-146 -13l-17 -318l52 -25zM153 638l102 -13l-8 -99l-109 7zM318 638l101 -13l-8 -99l-109 7z" />
    <glyph glyph-name="uni2168" unicode="&#x2168;" vert-adv-y="902" 
d="M254 640l31 -637l-153 -4v639zM867 558l-185 -223l185 -254l-83 -85l-190 232l-190 -231l-68 71l198 233l-194 235l115 113l172 -237l180 213z" />
    <glyph glyph-name="aacute" unicode="&#xe1;" horiz-adv-x="538" vert-adv-y="904" 
d="M213 -3l-161 61l38 410l361 23l-12 -416l58 2l4 -66l-161 -14l1 37zM344 99l12 329l-146 -13l-17 -318l52 -25zM379 581l-121 -87l-33 44l90 113z" />
    <glyph glyph-name="integral" unicode="&#x222b;" 
d="M412 664l209 79l129 -68l-45 -83l-106 63l-45 -18l34 -743l-209 -79l-129 68l45 83l106 -63l46 18z" />
    <glyph glyph-name="uni2235" unicode="&#x2235;" 
d="M162 550l143 7l11 -116l-133 -16zM684 550l143 7l11 -116l-133 -16zM424 126l143 7l11 -116l-133 -16z" />
    <glyph glyph-name="uni2236" unicode="&#x2236;" 
d="M444 133l133 -16l-11 -116l-143 7zM444 543l133 -16l-11 -116l-143 7z" />
    <glyph glyph-name="uni2237" unicode="&#x2237;" 
d="M196 133l133 -16l-11 -116l-143 7zM692 133l133 -16l-11 -116l-143 7zM196 543l133 -16l-11 -116l-143 7zM692 543l133 -16l-11 -116l-143 7z" />
    <glyph glyph-name="uni2477" unicode="&#x2477;" vert-adv-y="895" 
d="M905 610l-18 -544l-171 -178l-152 28l21 84l117 -29l108 109l9 515l-97 105l-128 -24l-12 85l152 28zM418 -84l-153 -28l-170 178l18 544l170 179l153 -28l-13 -76l-125 21l-109 -110l-9 -515l97 -105l119 24zM520 51l8 177l-177 -13l36 405l83 3l-13 -337l74 4l21 355
l68 -3l-21 -349l71 4l3 -57l-79 -7l-10 -187z" />
    <glyph glyph-name="afii00208" unicode="&#x2015;" 
d="M1 299l-11 98l1012 13l8 -68z" />
    <glyph glyph-name="uni2475" unicode="&#x2475;" vert-adv-y="895" 
d="M923 610l-18 -544l-171 -178l-152 28l21 84l117 -29l108 109l9 515l-97 105l-128 -24l-12 85l152 28zM400 -84l-153 -28l-170 178l18 544l170 179l153 -28l-13 -76l-125 21l-109 -110l-9 -515l97 -105l119 24zM454 177l5 -69l146 34l7 -82l-240 -16l-1 131l143 151
l22 208l-34 33l-111 -85l-31 89l141 80l126 -113l-14 -196z" />
    <glyph glyph-name="thorn" unicode="&#xfe;" horiz-adv-x="625" vert-adv-y="902" 
d="M110 0l-9 648l109 2l5 -147l119 23l167 -161l-117 -207l-153 7l8 -161zM221 426l7 -192l73 -3l84 144l-71 72z" />
    <glyph glyph-name="uniFE40" unicode="&#xfe40;" 
d="M899 865l65 -66l-413 -370l-71 1l-445 365l72 60l413 -324z" />
    <glyph glyph-name="aring" unicode="&#xe5;" horiz-adv-x="538" vert-adv-y="898" 
d="M307 677l104 -81l-30 -109l70 4l-12 -416l58 2l4 -66l-161 -14l1 37l-128 -37l-161 61l38 410l96 6l-7 136zM344 99l12 329l-146 -13l-17 -318l52 -25zM252 588l7 -74l74 -10l23 78l-45 36z" />
    <glyph glyph-name="logicalnot" unicode="&#xac;" horiz-adv-x="557" vert-adv-y="926" 
d="M321 374l-216 -27l-4 83l339 17v-1l-50 -260l-102 29z" />
    <glyph glyph-name="uni301E" unicode="&#x301e;" 
d="M390 646l-148 -97l-42 49l112 125zM582 646l-148 -97l-42 49l112 125z" />
    <glyph glyph-name="uni301D" unicode="&#x301d;" 
d="M688 723l112 -125l-42 -49l-148 97zM496 723l112 -125l-42 -49l-148 97z" />
    <glyph glyph-name="quotedblright" unicode="&#x201d;" horiz-adv-x="800" 
d="M285 552l13 55l-69 3l21 124l133 -15l-14 -169zM493 552l13 55l-69 3l21 124l133 -15l-14 -169z" />
    <glyph glyph-name="equivalence" unicode="&#x2261;" 
d="M867 341l8 -68l-739 -38l-12 78zM867 536l8 -108l-749 3l-2 87zM867 165l8 -68l-739 -38l-12 78z" />
    <glyph glyph-name="uni2010" unicode="&#x2010;" 
d="M361 299l-11 98l292 13l8 -68z" />
    <glyph glyph-name="uni2016" unicode="&#x2016;" 
d="M373 724h80v-906h-80v906zM546 724h80v-906h-80v906z" />
    <glyph glyph-name="amacron" unicode="&#x101;" horiz-adv-x="538" vert-adv-y="905" 
d="M213 -3l-161 61l38 410l361 23l-12 -416l58 2l4 -66l-161 -14l1 37zM344 99l12 329l-146 -13l-17 -318l52 -25zM182 610h202v-72h-202v72z" />
    <glyph glyph-name="uni3013" unicode="&#x3013;" 
d="M795 231l8 -88l-595 -48l-12 98zM795 516l8 -148l-605 3l-2 127z" />
    <glyph glyph-name="eacute" unicode="&#xe9;" horiz-adv-x="525" vert-adv-y="904" 
d="M73 -4l-17 409l193 86l205 -18v-239l-253 -59l6 -97l252 34l5 -100zM195 247l159 36l1 130l-108 11l-61 -29zM343 581l-120 -87l-34 44l91 113z" />
    <glyph glyph-name="uni3012" unicode="&#x3012;" 
d="M139 315q-18 2 -26.5 13t-8 23.5t10 22.5t27.5 10h715q18 0 28 -9t11.5 -21t-6 -23.5t-25.5 -15.5h-327q0 -2 0.5 -3t0.5 -3q0 -54 -1 -102t-1.5 -94.5t-1.5 -94t-1 -101.5q0 -18 -10 -27.5t-22.5 -10t-23.5 8t-13 26.5q0 55 1 104t1.5 97t1.5 96.5t1 103.5h-331z
M133 530q-16 2 -24.5 11t-10 20t5 21.5t21.5 16.5q98 1 188.5 2t179.5 1.5t179.5 1.5t188.5 1q18 0 28 -9t11.5 -21t-6 -23.5t-25.5 -15.5q-98 0 -188.5 -1t-179 -2t-179 -2t-189.5 -1z" />
    <glyph glyph-name="uni3011" unicode="&#x3011;" 
d="M215 -1l133 -27l67 137l-10 407l-81 152l-129 -33l-24 114l348 31l22 -926l-350 31z" />
    <glyph glyph-name="uni3010" unicode="&#x3010;" 
d="M801 -105l-350 -31l22 926l348 -31l-24 -114l-129 33l-81 -152l-10 -407l67 -137l133 27z" />
    <glyph glyph-name="uni3017" unicode="&#x3017;" 
d="M318 -45l176 -35l-13 799l-173 -35l13 -117l84 28l9 -526l-84 21zM293 173l73 -22l-2 361l-80 -30l-34 265l277 48l16 -951l-283 49z" />
    <glyph glyph-name="bullet" unicode="&#x2022;" 
d="M428 445l173 -22l-15 -167l-187 9z" />
    <glyph glyph-name="uni3016" unicode="&#x3016;" vert-adv-y="680" 
d="M661 90l-84 -21l9 526l84 -28l13 117l-173 35l-13 -799l176 35zM731 -107l-283 -49l16 951l277 -48l-34 -265l-80 30l-2 -361l73 22z" />
    <glyph glyph-name="uni3015" unicode="&#x3015;" 
d="M383 655l-106 69l8 89l237 -156l-18 -690l-247 -155l-8 88l104 74z" />
    <glyph glyph-name="uni3014" unicode="&#x3014;" 
d="M646 -26l104 -64l-8 -98l-247 155l-18 690l237 156l8 -89l-106 -69z" />
    <glyph glyph-name="Otilde" unicode="&#xd5;" horiz-adv-x="679" vert-adv-y="880" 
d="M358 655l215 -99l-39 -559l-454 30l-3 553zM223 532l15 -433l209 -15l27 445l-104 48zM461 845l111 -13l-30 -136l-227 -16l-21 123l-72 11l-13 -33l26 -75l-88 -36l-26 96l65 106v1h2l172 -27h1l19 -111l71 5z" />
    <glyph glyph-name="uni2473" unicode="&#x2473;" vert-adv-y="890" 
d="M769 515l-25 -456l-201 23l-3 452l121 61zM697 120l18 363l-55 40l-43 -27l4 -365zM339 181l5 -60l127 30l7 -72l-211 -14v114l125 132l19 182l-30 27l-96 -73l-28 77l123 70l110 -99l-11 -171zM585 734l306 -118l-12 -510l-115 -161l-655 40l17 648zM212 43l513 -43
l96 146l12 418l-278 107l-345 -80z" />
    <glyph glyph-name="uniFE41" unicode="&#xfe41;" 
d="M109 230l2 116h780v-1l-18 -409l-112 15l32 250z" />
    <glyph glyph-name="uni2470" unicode="&#x2470;" vert-adv-y="890" 
d="M585 734l306 -118l-12 -510l-115 -161l-655 40l17 648zM212 43l513 -43l96 146l12 418l-278 107l-345 -80zM621 514l-148 -21l-2 68l252 13l-110 -513l-68 24zM340 565l63 2l25 -497l-87 -3z" />
    <glyph glyph-name="uni223D" unicode="&#x223d;" 
d="M642 445l136 -14l-36 -152l-281 -17l-25 136l-90 12l-16 -36l33 -83l-109 -41l-32 107l81 118v1h2l212 -30h1l23 -123l88 5z" />
    <glyph glyph-name="dotlessi" unicode="&#x131;" horiz-adv-x="268" vert-adv-y="921" 
d="M69 445l117 4l31 -440l-153 -12z" />
    <glyph glyph-name="uni2471" unicode="&#x2471;" vert-adv-y="890" 
d="M585 734l306 -118l-12 -510l-115 -161l-655 40l17 648zM212 43l513 -43l96 146l12 418l-278 107l-345 -80zM722 562l-17 -207l11 -2l-1 -278l-254 -8l-26 158l68 98l-36 187l89 85zM559 315l-41 -62l25 -137l111 4l6 184zM635 361l11 150l-83 21l-27 -29l27 -135z
M313 565l63 2l25 -497l-87 -3z" />
    <glyph glyph-name="uni2476" unicode="&#x2476;" vert-adv-y="895" 
d="M914 610l-18 -544l-171 -178l-152 28l21 84l117 -29l108 109l9 515l-97 105l-128 -24l-12 85l152 28zM409 -84l-153 -28l-170 178l18 544l170 179l153 -28l-13 -76l-125 21l-109 -110l-9 -515l97 -105l119 24zM650 504l-111 -148l102 -179l-7 -71l-243 -62l-9 102l188 27
l-74 121l-12 -18l-68 87l129 159l-42 45l-121 -67l-28 88l157 63z" />
    <glyph glyph-name="section" unicode="&#xa7;" horiz-adv-x="766" vert-adv-y="899" 
d="M572 133l-125 -63l9 -235l-350 4l5 85l223 -25l-4 156l-216 -12v1l-13 266l153 48l3 218l226 72l145 -58l-39 -75l-120 63l-89 -29l3 -183l201 13zM253 292l-28 -9l2 -172l130 6l106 54l6 141z" />
    <glyph glyph-name="uni2474" unicode="&#x2474;" vert-adv-y="895" 
d="M900 610l-18 -544l-171 -178l-152 28l21 84l117 -29l109 109l9 515l-97 105l-129 -24l-12 85l152 28zM423 -84l-153 -28l-171 178l18 544l171 179l153 -28l-13 -76l-125 21l-109 -110l-9 -515l96 -105l120 24zM459 619l73 1l28 -569l-100 -5z" />
    <glyph glyph-name="uni2174" unicode="&#x2174;" vert-adv-y="921" 
d="M285 445l121 49l98 -355l136 352l75 -39l-175 -447l-109 -19z" />
    <glyph glyph-name="uni2478" unicode="&#x2478;" vert-adv-y="895" 
d="M909 610l-18 -544l-171 -178l-152 28l21 84l117 -29l109 109l9 515l-97 105l-129 -24l-12 85l152 28zM414 -84l-153 -28l-171 178l18 544l171 179l153 -28l-13 -76l-125 21l-109 -110l-9 -515l96 -105l120 24zM551 152l-13 170l-161 9l28 288l227 25l2 -81l-155 5
l-14 -174l157 1l28 -279l-181 -78l-116 72l37 77l86 -71z" />
    <glyph glyph-name="uni2479" unicode="&#x2479;" vert-adv-y="895" 
d="M637 62l-266 -12l-11 523l159 76l119 -52l-26 -80l-93 59l-67 -34l3 -129l100 14l98 -110zM900 610l-18 -544l-171 -178l-152 28l21 84l117 -29l109 109l9 515l-97 105l-129 -24l-12 85l152 28zM423 -84l-153 -28l-171 178l18 544l171 179l153 -28l-13 -76l-125 21
l-109 -110l-9 -515l96 -105l120 24zM457 347l8 -237l98 -3l13 184l-54 67z" />
    <glyph glyph-name="uniFFE2.001" 
d="M517 436q25 -1 53 -6.5t52 -16t42.5 -27t25.5 -41.5q8 -30 0.5 -58.5t-21.5 -55.5q-7 -15 -23 -19t-30 0.5t-23 17t-3 31.5q11 22 14.5 38.5t-2 29t-21.5 20.5t-44 13q-44 4 -90 0t-90 -15q-20 -3 -34 6t-18 22t2 26t27 18q43 9 89 14t94 3z" />
    <glyph glyph-name="uniFFE3.001" 
d="M853 660q20 -3 27 -15.5t3.5 -25.5t-17.5 -22.5t-36 -7.5q-28 2 -78 4.5t-113 4t-132 1.5t-133.5 -1t-118.5 -4t-87 -6q-21 -2 -34.5 7t-17 21.5t2.5 25t27 17.5q26 7 81.5 10.5t125 5t146.5 1t146.5 -2.5t124.5 -5.5t83 -7.5z" />
    <glyph glyph-name="uniFFE0" unicode="&#xffe0;" 
d="M518 18l-199 13l-9 396l208 63v54h59v-51l113 -60l-41 -71l-72 45v-303l80 4l-2 -99l-78 4v-58h-59v63zM455 99l63 3v328l-78 -27z" />
    <glyph glyph-name="uni2160" unicode="&#x2160;" vert-adv-y="899" 
d="M545 640l31 -637l-153 -4v639z" />
    <glyph glyph-name="uniFFE1.001" 
d="M745 113q13 12 29.5 11t28.5 -10.5t14.5 -24t-10.5 -28.5q-34 -34 -82.5 -53.5t-104.5 -22.5q-43 -1 -84.5 5.5t-83 14t-84 14t-86.5 8.5q-15 -5 -30 -6t-29 -1q-18 0 -28.5 9.5t-12.5 22t4.5 24t25.5 16.5q13 2 26.5 3t27.5 3q8 1 17.5 8.5t19 17t17 19.5t10.5 17
q15 31 20.5 63.5t10.5 65.5q-35 -3 -54 -6t-35 -8q-19 -6 -32.5 2.5t-17.5 22t2 27t26 18.5q27 8 56 12t59 5q1 49 -1.5 100t10.5 101q7 27 23 54t39 47.5t54.5 33t71.5 12.5q31 0 58 -11.5t46.5 -30t32 -43.5t16.5 -53q2 -16 -10.5 -25t-28.5 -10t-30.5 7t-16.5 25
q-1 10 -6.5 22.5t-14.5 22.5t-21 16.5t-27 6.5q-25 0 -43 -10t-30.5 -25.5t-20.5 -34.5t-11 -36q-5 -43 -3.5 -84.5t-0.5 -85.5q32 -2 64 -6t64 -10q20 -3 26.5 -16t2.5 -26t-17.5 -22t-34.5 -6q-27 5 -53 8t-56 5v-1q-2 -22 -5.5 -48.5t-11 -52.5t-19 -50t-28.5 -44
q32 -5 58.5 -10.5t53 -10.5t55 -9t62.5 -4q52 0 81.5 16t51.5 39z" />
    <glyph glyph-name="uniFFE4" unicode="&#xffe4;" 
d="M545 335l19 -322l-128 -4l-1 326h110zM435 503v278l94 2l16 -280h-110z" />
    <glyph glyph-name="dotaccent" unicode="&#x2d9;" vert-adv-y="901" 
d="M457 650l101 -14l-8 -98l-109 6z" />
    <glyph glyph-name="uniFFE5" unicode="&#xffe5;" 
d="M585 128l4 -116l-137 -6l2 106l-139 -16l-9 91l149 6l1 75l-231 287l122 109l193 -266l174 246l60 -51l-192 -284l3 -112l66 3l7 -63z" />
    <glyph glyph-name="Yacute" unicode="&#xdd;" horiz-adv-x="634" vert-adv-y="880" 
d="M525 634l60 -51l-192 -284l7 -297l-137 -6l4 262l-231 287l122 109l193 -266zM451 789l-120 -87l-34 44l91 113z" />
    <glyph glyph-name="orthogonal" unicode="&#x221f;" 
d="M290 178l512 -1l1 -165l-606 6l51 648l84 -3z" />
    <glyph glyph-name="minute" unicode="&#x2032;" vert-adv-y="903" 
d="M585 606l-133 -239l-38 29l95 253z" />
    <glyph glyph-name="uniFE4C" unicode="&#xfe4c;" 
d="M922 803l70 -14l-46 -92l-185 -17l-15 76l-58 11l-28 -70l-195 -17l-15 76l-60 12l-5 -12l-18 -59l-195 -17l-15 76l-60 11l-24 -60l-66 2l47 123v1h2l182 -29h1l13 -63l61 4l34 88v1h2l182 -30h1l13 -63l64 5l34 87v1h2l182 -30h1l13 -63l58 5zM922 634l70 -14l-46 -92
l-185 -17l-15 76l-58 11l-28 -70l-195 -17l-15 76l-60 12l-5 -12l-18 -59l-195 -17l-15 76l-60 11l-24 -60l-66 2l47 123v1h2l182 -29h1l13 -63l61 4l34 88v1h2l182 -30h1l13 -63l64 5l34 87v1h2l182 -30h1l13 -63l58 5z" />
    <glyph glyph-name="arrowdown" unicode="&#x2193;" 
d="M467 49l-15 671h98l-12 -679l129 323l77 -35l-199 -490l-78 -2l-212 506l76 30z" />
    <glyph glyph-name="uni3229" unicode="&#x3229;" vert-adv-y="763" 
d="M799 319l-232 -12l8 -305l-112 -4l-7 303l-251 -13l-4 68l253 13l-5 219l110 4l6 -218l230 12zM945 580l-18 -544l-171 -178l-152 28l21 84l117 -29l109 109l9 515l-97 105l-129 -24l-12 85l152 28zM378 -114l-153 -28l-171 178l18 544l171 179l153 -28l-13 -76l-125 21
l-109 -110l-9 -515l96 -105l120 24z" />
    <glyph glyph-name="Aring" unicode="&#xc5;" horiz-adv-x="659" vert-adv-y="876" 
d="M329 856l103 -81l-39 -145l-46 4l31 -13l-7 -21l240 -549l-86 -45l-82 195l-217 -27l-64 -189l-138 62l236 596l-50 6l-8 140zM253 253l160 17l-85 204zM275 767l7 -74l74 -10l22 78l-46 36z" />
    <glyph glyph-name="Ograve" unicode="&#xd2;" horiz-adv-x="668" vert-adv-y="880" 
d="M358 655l215 -99l-39 -559l-454 30l-3 553zM223 532l15 -433l209 -15l27 445l-104 48zM314 859l90 -112l-33 -44l-121 87z" />
    <glyph glyph-name="uniFE4F" unicode="&#xfe4f;" 
d="M922 123l70 -14l-46 -92l-185 -17l-15 76l-58 11l-28 -70l-195 -17l-15 76l-60 12l-5 -12l-18 -59l-195 -17l-15 76l-60 11l-24 -60l-66 2l47 123v1h2l182 -29h1l13 -63l61 4l34 88v1h2l182 -30h1l13 -63l64 5l34 87v1h2l182 -30h1l13 -63l58 5z" />
    <glyph glyph-name="uniFF49" unicode="&#xff49;" 
d="M432 445l118 4l31 -440l-152 -12zM436 527l-17 112l116 7l9 -104z" />
    <glyph glyph-name="uni32A3" unicode="&#x32a3;" vert-adv-y="763" 
d="M585 704l306 -118l-12 -510l-115 -171l-656 40l18 658zM364 106l97 4l-8 382l-163 -11l-5 63l440 31l-170 66l-346 -80l1 -461l60 3l-11 207l94 9zM728 265l-134 -4l3 -146l223 10l13 409l-95 36l4 -57l-155 -11l5 -178l136 4v-63zM725 -40l40 71h-554v-28z" />
    <glyph glyph-name="uniE796" unicode="&#xe796;" 
d="M571 721l-16 -133l-116 11l7 143zM571 422l-16 -133l-116 11l7 143zM571 120l-16 -133l-116 11l7 143z" />
    <glyph glyph-name="uniE794" unicode="&#xe794;" 
d="M284 148l-21 84l526 -9l-28 -84l117 -13l35 173l-799 13l35 -176zM87 78l-49 283l951 -16l-48 -277l-265 34l30 80l-361 2l22 -73z" />
    <glyph glyph-name="uniE795" unicode="&#xe795;" 
d="M149 573l-35 -176l799 13l-35 173l-117 -13l28 -84l-526 -9l21 84zM367 598l-22 -73l361 2l-30 80l265 34l48 -277l-951 -16l49 283z" />
    <glyph glyph-name="uniE792" unicode="&#xe792;" vert-adv-y="1300" 
d="M418 709l188 -12l-38 -529l-145 5zM560 -75l-166 8l25 142l152 -17z" />
    <glyph glyph-name="uniE793" unicode="&#xe793;" 
d="M495 711l272 -177l-220 -398l-138 54l171 381l-61 41l-223 -128l-63 113zM539 -76l-166 8l25 142l152 -17z" />
    <glyph glyph-name="uniE790" unicode="&#xe790;" 
d="M562 17l-166 8l25 142l152 -17zM592 457l-166 8l25 142l152 -17z" />
    <glyph glyph-name="uniE791" unicode="&#xe791;" vert-adv-y="1300" 
d="M451 -71l25 93l-80 4l25 142l152 -17l-26 -224zM592 458l-166 8l25 142l152 -17z" />
    <glyph glyph-name="paragraph" unicode="&#xb6;" horiz-adv-x="634" vert-adv-y="898" 
d="M155 268l-99 62l22 286l177 18l1 13l68 -7v-1l272 11l3 -70l-103 -6l23 -553l-123 -6l15 556l-87 -6l4 -542l-105 -9l10 291z" />
    <glyph glyph-name="uniFF48" unicode="&#xff48;" 
d="M301 -2l-13 643l117 6l12 -192l94 36l200 -57l-18 -403l-98 7l20 360l-83 25l-109 -51l23 -365z" />
    <glyph glyph-name="uniFF45" unicode="&#xff45;" 
d="M313 -4l-17 409l191 86l206 -18v-239l-253 -59l7 -97l251 34l5 -100zM435 247l158 36l1 130l-108 11l-61 -29z" />
    <glyph glyph-name="uniFF44" unicode="&#xff44;" 
d="M443 -3l-147 61l37 410l252 17l8 163l109 -6l2 -645l-144 12v23zM581 428l-150 -15l-17 -310l65 -29l85 24z" />
    <glyph glyph-name="uniFF47" unicode="&#xff47;" 
d="M439 -4l-145 62l39 411l243 17v13l129 -7l-21 -659l-303 13l2 89l190 -24l1 127zM576 429l-141 -14l-17 -317l55 -25l101 30z" />
    <glyph glyph-name="uniFF46" unicode="&#xff46;" 
d="M324 409l76 14l1 175l169 71l105 -62l-36 -74l-87 56l-37 -16l8 -129l101 18l9 -56l-105 -25l23 -383l-153 -9l2 360l-64 -15z" />
    <glyph glyph-name="uniFF41" unicode="&#xff41;" 
d="M437 -3l-161 61l38 410l360 23l-11 -416l57 2l3 -66l-159 -14l1 37zM567 99l12 329l-147 -13l-17 -318l53 -25z" />
    <glyph glyph-name="uniFF40" unicode="&#xff40;" 
d="M486 651l90 -113l-33 -44l-120 87z" />
    <glyph glyph-name="uniFF43" unicode="&#xff43;" 
d="M319 21l-9 396l249 77l131 -71l-41 -71l-117 74l-92 -33l15 -304l202 9l-2 -99z" />
    <glyph glyph-name="uniFF42" unicode="&#xff42;" 
d="M314 -20l-14 661l118 6l12 -188l84 32l185 -57l-2 -403l-239 -31l1 -11zM435 365l19 -296l147 20l2 305l-60 23z" />
    <glyph glyph-name="egrave" unicode="&#xe8;" horiz-adv-x="525" vert-adv-y="904" 
d="M73 -4l-17 409l193 86l205 -18v-239l-253 -59l6 -97l252 34l5 -100zM195 247l159 36l1 130l-108 11l-61 -29zM223 651l91 -113l-34 -44l-120 87z" />
    <glyph glyph-name="perthousand" unicode="&#x2030;" vert-adv-y="902" 
d="M352 573l-27 -200l-196 14l-3 196l126 48zM258 580l-56 -25l5 -137l76 -8l18 145zM513 257l101 -57l-29 -200l-194 13l-3 197zM463 181l5 -137l76 -6l18 144l-42 25zM192 12l-49 44l433 584l48 -45zM773 257l100 -57l-27 -200l-196 13l-2 197zM723 181l6 -137l74 -6
l18 144l-42 25z" />
    <glyph glyph-name="uniFF33" unicode="&#xff33;" 
d="M576 86v201l-308 -21l3 305l299 83l161 -84l-42 -85l-150 86l-122 -35l-3 -194l290 20l-6 -348l-421 -12l-5 104z" />
    <glyph glyph-name="icircumflex" unicode="&#xee;" horiz-adv-x="445" vert-adv-y="902" 
d="M159 445l117 4l31 -440l-153 -12zM252 688l112 -126l-43 -45l-103 114l-77 -127l-89 41l115 163z" />
    <glyph glyph-name="ntilde" unicode="&#xf1;" horiz-adv-x="559" vert-adv-y="904" 
d="M91 -4l-27 477l127 8l2 -26l92 36l201 -57l-10 -403l-96 7l11 360l-83 25l-108 -50l31 -363zM383 644l87 -10l-23 -108l-181 -13l-17 97l-57 9l-11 -26l21 -59l-70 -29l-20 76l51 85v1h2l137 -22h1l14 -88l57 4z" />
    <glyph glyph-name="onesuperior" unicode="&#xb9;" horiz-adv-x="176" vert-adv-y="899" 
d="M60 645l60 2l18 -297l-77 -4z" />
    <glyph glyph-name="Ntilde" unicode="&#xd1;" horiz-adv-x="696" vert-adv-y="880" 
d="M477 23v26l-261 417l28 -460l-161 -8l-3 645l125 5l1 -23l277 -438l14 451h95l-18 -617zM451 832l110 -13l-29 -137l-228 -15l-20 122l-73 11l-13 -32l27 -75l-88 -37l-26 96l66 107l172 -27h1l19 -110l71 4z" />
    <glyph glyph-name="fi" unicode="&#xf001;" vert-adv-y="892" 
d="M233 409l76 14l1 175l169 71l105 -62l-37 -74l-86 56l-36 -16l8 -129l100 18l9 -56l-106 -25l24 -383l-152 -9l1 360l-64 -15zM618 445l117 4l31 -440l-152 -12zM621 527l-17 112l116 7l9 -104z" />
    <glyph glyph-name="questiondown" unicode="&#xbf;" horiz-adv-x="666" vert-adv-y="921" 
d="M303 -167l-202 146l164 329l102 -44l-127 -315l45 -34l166 106l47 -94zM379 368l-109 14l9 104l117 -6z" />
    <glyph glyph-name="perpendicular" unicode="&#x22a5;" 
d="M826 -2l-656 13l4 82l283 -7l-17 613l151 -6l-28 -611l266 -7z" />
    <glyph glyph-name="uniFF4E" unicode="&#xff4e;" 
d="M315 -4l-27 477l126 8l2 -26l94 36l201 -57l-11 -403l-97 7l12 360l-83 25l-109 -50l32 -363z" />
    <glyph glyph-name="uniFF4D" unicode="&#xff4d;" 
d="M216 -4l-28 477l126 13l3 -41l301 54l193 -57l-4 -393l-115 -16l20 375l-93 29l-42 -11l-15 -362l-76 -8l-18 339l-143 -40l30 -345z" />
    <glyph glyph-name="copyright" unicode="&#xa9;" horiz-adv-x="856" vert-adv-y="909" 
d="M258 132l-8 315l216 78l107 -62l-40 -72l-94 65l-83 -32l14 -241l178 9l-2 -81zM460 643l230 -99l19 -426l-154 -91v-3l-454 -9l12 544zM212 71l286 3l133 76l-11 351l-128 70l-282 -70z" />
    <glyph glyph-name="uniFF4F" unicode="&#xff4f;" 
d="M301 10l-16 405l248 77l181 -75l-25 -419zM603 65l18 305l-114 54l-93 -32l21 -321z" />
    <glyph glyph-name="uniFF4A" unicode="&#xff4a;" 
d="M487 527l-17 112l116 7l8 -104zM387 -154l2 89l99 -23l-11 533l136 4l-4 -616z" />
    <glyph glyph-name="uniFF4C" unicode="&#xff4c;" 
d="M428 -4l-1 649l118 2l27 -646z" />
    <glyph glyph-name="uniFF4B" unicode="&#xff4b;" 
d="M302 -2l-14 643l118 6l21 -326l222 170l30 -45l-142 -113l174 -279l-75 -57l-172 277l-33 -27l16 -240z" />
    <glyph glyph-name="uni0261" unicode="&#x261;" horiz-adv-x="542" vert-adv-y="922" 
d="M196 -4l-144 62l38 411l243 17v13l130 -7l-21 -659l-303 13l2 89l190 -24v127zM333 429l-139 -14l-17 -317l54 -25l100 30z" />
    <glyph glyph-name="uniFF05" unicode="&#xff05;" 
d="M441 588l-39 -280l-273 20l-4 273l176 68zM309 598l-79 -36l7 -191l106 -10l26 201zM735 353l140 -81l-39 -280l-273 20l-4 274zM665 247l7 -192l106 -10l25 202l-60 35zM374 -28l-57 30l298 680l56 -30z" />
    <glyph glyph-name="uni22BF" unicode="&#x22bf;" 
d="M868 777v-819h-736zM760 29l-9 532l-476 -530z" />
    <glyph glyph-name="ocircumflex" unicode="&#xf4;" horiz-adv-x="550" vert-adv-y="902" 
d="M69 10l-17 405l249 77l182 -75l-27 -419zM372 65l17 305l-114 54l-92 -32l20 -321zM309 688l111 -126l-42 -45l-103 114l-77 -127l-89 41l114 163z" />
    <glyph glyph-name="uni338F" unicode="&#x338f;" vert-adv-y="890" 
d="M188 -1l-11 643l87 6l16 -327l168 169l22 -43l-107 -113l130 -280l-56 -56l-128 276l-25 -27l11 -240zM632 -8l-101 60l26 405l173 16v14l92 -7l-15 -648l-216 12l2 88l136 -25v126zM730 418l-99 -14l-13 -312l39 -25l72 30z" />
    <glyph glyph-name="uni224C" unicode="&#x224c;" 
d="M642 604l136 -14l-36 -152l-281 -17l-25 136l-90 12l-16 -36l33 -83l-109 -41l-32 107l81 118v1h2l212 -30h1l23 -123l88 5zM715 346l8 -108l-449 3l-2 87zM715 191l8 -68l-439 -38l-12 78z" />
    <glyph glyph-name="space" unicode=" " horiz-adv-x="300" vert-adv-y="970" 
 />
    <glyph glyph-name="exclam" unicode="!" horiz-adv-x="400" vert-adv-y="898" 
d="M129 649l152 -11l-31 -440l-118 4zM235 1l-117 6l18 113l107 -15z" />
    <glyph glyph-name="quotedbl" unicode="&#x22;" horiz-adv-x="500" vert-adv-y="898" 
d="M156 497l11 49l-56 3l17 112l108 -14l-12 -152zM309 497l10 49l-56 3l17 112l108 -14l-12 -152z" />
    <glyph glyph-name="numbersign" unicode="#" horiz-adv-x="750" vert-adv-y="899" 
d="M194 1l-1 141l-94 -9l-1 70l94 9l-2 197l-99 -9l-1 70l99 8l-3 171l110 3l9 -165l167 12l1 137l91 -2l-1 -127l81 7l8 -62l-89 -8v-197l89 9l8 -71l-98 -9v-150l-93 3l1 139l-147 -14l8 -150zM319 224l152 14l1 198l-163 -16z" />
    <glyph glyph-name="oacute" unicode="&#xf3;" horiz-adv-x="550" vert-adv-y="904" 
d="M69 10l-17 405l249 77l182 -75l-27 -419zM372 65l17 305l-114 54l-92 -32l20 -321zM373 581l-120 -87l-34 44l91 113z" />
    <glyph glyph-name="circumflex" unicode="&#x2c6;" vert-adv-y="901" 
d="M544 635l112 -125l-44 -46l-103 115l-77 -127l-89 41l115 163z" />
    <glyph glyph-name="uni2197" unicode="&#x2197;" 
d="M690 460l-463 -486l-69 69l488 472l-319 -137l-30 79l488 206l56 -54l-208 -508l-75 33z" />
    <glyph glyph-name="dollar" unicode="$" horiz-adv-x="650" vert-adv-y="893" 
d="M396 653l161 -84l-43 -84l-136 78l-17 -213l168 12l-5 -348l-190 -5l-5 -78l-62 6l5 70l-170 -5l-5 104l181 -12l15 185l-200 -13l4 305l224 62l7 89l62 -7l-5 -64zM356 283l-16 -193l87 -5l-1 203zM298 346l17 211l-89 -26l-3 -191z" />
    <glyph glyph-name="arrowup" unicode="&#x2191;" 
d="M467 670l-136 -323l-76 30l212 506l78 -2l199 -490l-77 -35l-129 323l12 -679h-98z" />
    <glyph glyph-name="percent" unicode="%" horiz-adv-x="887" vert-adv-y="899" 
d="M372 588l-39 -280l-273 20l-4 273l176 68zM240 598l-79 -36l8 -191l106 -10l25 201zM666 353l140 -81l-39 -280l-273 20l-4 274zM595 247l7 -192l107 -10l25 202l-60 35zM305 -28l-56 30l297 680l56 -30z" />
    <glyph glyph-name="ampersand" unicode="&#x26;" horiz-adv-x="663" vert-adv-y="898" 
d="M428 -18l-34 85l-208 -54l-65 254l166 67l-86 214l116 104l228 -31l-10 -246l-130 -53l64 -154l70 25l17 -83l-57 -16l30 -70zM385 372l63 25v180l-113 15l-30 -28zM368 131l-61 152l-61 -25l41 -156z" />
    <glyph glyph-name="quotesingle" unicode="'" horiz-adv-x="364" vert-adv-y="898" 
d="M138 661l108 -14l-12 -152l-67 2l10 49l-56 3z" />
    <glyph glyph-name="Edieresis" unicode="&#xcb;" horiz-adv-x="563" vert-adv-y="882" 
d="M216 625l260 21l7 -73l-264 -26l7 -189l212 20l6 -71l-214 -23l8 -201l275 36l6 -99l-278 -14l1 -13l-162 -4l8 657l127 2zM168 814l101 -13l-8 -98l-108 6zM332 814l101 -13l-8 -98l-109 6z" />
    <glyph glyph-name="parenleft" unicode="(" horiz-adv-x="656" vert-adv-y="894" 
d="M493 -132l-138 -28l-153 178l16 454l153 179l138 -28l-20 -85l-104 30l-58 -65l-8 -515l47 -60l107 24z" />
    <glyph glyph-name="parenright" unicode=")" horiz-adv-x="656" vert-adv-y="894" 
d="M468 472l-16 -454l-154 -178l-137 28l19 84l106 -29l57 64l8 515l-47 60l-107 -24l-19 85l136 28z" />
    <glyph glyph-name="uni339C" unicode="&#x339c;" vert-adv-y="918" 
d="M108 3l-17 459l76 11l1 -40l181 54l117 -57l-3 -376l-70 -14l12 357l-56 29l-25 -11l-9 -346l-46 -8l-10 323l-86 -38l18 -330zM551 3l-17 459l76 11l2 -40l180 54l117 -57l-3 -376l-70 -14l12 357l-55 29l-26 -11l-9 -346l-45 -8l-11 323l-86 -38l18 -330z" />
    <glyph glyph-name="asterisk" unicode="*" horiz-adv-x="463" vert-adv-y="893" 
d="M242 468l-71 -87l-32 36l69 83l-87 14l9 48l80 -10l-9 100l86 2l-9 -101l90 22l8 -43l-78 -24l70 -71l-60 -64z" />
    <glyph glyph-name="plus" unicode="+" horiz-adv-x="714" vert-adv-y="911" 
d="M303 82l-3 206l-170 -19l-9 70l177 16l-3 204l110 3l14 -196l175 16l8 -61l-178 -20l16 -216z" />
    <glyph glyph-name="uniFE4D" unicode="&#xfe4d;" 
d="M40 121h250v-80h-250v80zM710 121h250v-80h-250v80zM383 121h250v-80h-250v80z" />
    <glyph glyph-name="comma" unicode="," horiz-adv-x="364" vert-adv-y="958" 
d="M138 120l108 -15l-22 -181l-67 2l20 79l-56 2z" />
    <glyph glyph-name="uni339D" unicode="&#x339d;" vert-adv-y="917" 
d="M120 21l-6 396l176 77l93 -71l-29 -71l-82 74l-66 -33l10 -304l144 9l-2 -99zM463 -1l-20 463l89 11l1 -40l216 54l137 -57l-3 -380l-83 -14l15 361l-66 29l-30 -11l-10 -349l-55 -8l-13 326l-101 -39l21 -332z" />
    <glyph glyph-name="hyphen" unicode="-" horiz-adv-x="540" vert-adv-y="929" 
d="M130 269l-9 88l318 12l6 -61z" />
    <glyph glyph-name="period" unicode="." horiz-adv-x="364" vert-adv-y="957" 
d="M138 120l108 -15l-9 -104l-116 6z" />
    <glyph glyph-name="slash" unicode="/" horiz-adv-x="482" vert-adv-y="899" 
d="M377 682l56 -30l-296 -680l-57 30z" />
    <glyph glyph-name="zero" unicode="0" horiz-adv-x="500" vert-adv-y="899" 
d="M472 551l-39 -550l-322 29l-3 543l190 76zM358 75l27 437l-88 50l-69 -33l8 -441z" />
    <glyph glyph-name="uni339E" unicode="&#x339e;" vert-adv-y="886" 
d="M120 -1l-11 643l88 6l15 -327l168 169l22 -43l-106 -113l129 -280l-56 -56l-128 276l-25 -27l11 -240zM467 -1l-20 463l89 11l2 -40l214 54l138 -57l-4 -380l-82 -14l15 361l-66 29l-30 -11l-11 -349l-54 -8l-13 326l-102 -39l22 -332z" />
    <glyph glyph-name="one" unicode="1" horiz-adv-x="500" vert-adv-y="900" 
d="M225 613l95 2l35 -602l-129 -4z" />
    <glyph glyph-name="two" unicode="2" horiz-adv-x="500" vert-adv-y="899" 
d="M234 148l9 -72l203 36l8 -88l-334 -16l-1 138l199 159l31 218l-49 35l-154 -89l-43 93l194 85l179 -119l-21 -206z" />
    <glyph glyph-name="three" unicode="3" horiz-adv-x="500" vert-adv-y="899" 
d="M480 492l-144 -157l131 -188l-9 -76l-313 -65l-10 108l241 28l-95 128l-16 -19l-87 92l165 168l-54 47l-154 -71l-36 93l200 67z" />
    <glyph glyph-name="omacron" unicode="&#x14d;" horiz-adv-x="550" vert-adv-y="905" 
d="M69 10l-17 405l249 77l182 -75l-27 -419zM372 65l17 305l-114 54l-92 -32l20 -321zM177 610h203v-72h-203v72z" />
    <glyph glyph-name="four" unicode="4" horiz-adv-x="500" vert-adv-y="899" 
d="M299 13l10 188l-226 -14l44 428l109 2l-17 -356l95 4l27 375l87 -3l-28 -368l92 5l4 -62l-100 -6l-14 -197z" />
    <glyph glyph-name="five" unicode="5" horiz-adv-x="500" vert-adv-y="899" 
d="M354 121l-19 178l-207 10l37 305l293 25l1 -86l-199 6l-18 -183l201 1l37 -294l-231 -83l-150 76l46 81l111 -74z" />
    <glyph glyph-name="six" unicode="6" horiz-adv-x="500" vert-adv-y="899" 
d="M457 26l-342 -13l-13 551l203 80l153 -55l-35 -84l-117 63l-88 -36l6 -136l127 14l126 -116zM226 326l9 -250l127 -3l16 194l-69 70z" />
    <glyph glyph-name="seven" unicode="7" horiz-adv-x="500" vert-adv-y="900" 
d="M324 550l-216 -27l-4 83l371 17h1v-1l-162 -620l-102 29z" />
    <glyph glyph-name="eight" unicode="8" horiz-adv-x="500" vert-adv-y="899" 
d="M502 608l-25 -251l19 -2l-5 -336l-373 -10l-40 193l102 117l-54 226l132 104zM262 310l-62 -75l36 -166l167 4l6 223zM375 365l15 182l-122 24l-41 -34l41 -163z" />
    <glyph glyph-name="nine" unicode="9" horiz-adv-x="500" vert-adv-y="899" 
d="M354 256l-68 -32l-185 61l46 349l331 5l-44 -632l-295 13l3 89l200 -27zM360 325l17 246l-114 -5l-27 -229l67 -37z" />
    <glyph glyph-name="colon" unicode=":" horiz-adv-x="400" vert-adv-y="925" 
d="M138 120l108 -15l-8 -104l-117 6zM170 496l108 -15l-8 -104l-117 6z" />
    <glyph glyph-name="semicolon" unicode=";" horiz-adv-x="400" vert-adv-y="925" 
d="M170 496l108 -15l-8 -104l-117 6zM138 120l108 -15l-11 -151l-68 2l11 49l-57 2z" />
    <glyph glyph-name="less" unicode="&#x3c;" horiz-adv-x="681" vert-adv-y="912" 
d="M229 359l343 -141l-45 -140l-406 172l4 65l5 84l409 168l25 -66z" />
    <glyph glyph-name="equal" unicode="=" horiz-adv-x="586" vert-adv-y="917" 
d="M480 301l6 -61l-355 -43l-10 70zM480 495l6 -115l-363 2l-2 97z" />
    <glyph glyph-name="greater" unicode="&#x3e;" horiz-adv-x="681" vert-adv-y="912" 
d="M572 250l-406 -172l-45 140l344 141l-336 142l24 66l410 -168l5 -84z" />
    <glyph glyph-name="uniFE3F" unicode="&#xfe3f;" 
d="M520 315l-413 -324l-72 60l445 365l71 1l413 -370l-65 -66z" />
    <glyph glyph-name="at" unicode="@" horiz-adv-x="835" vert-adv-y="899" 
d="M448 652l303 -99l-46 -426l-198 -26l1 37l-128 -37l-145 62l30 318l332 24l-4 -343l50 6l38 342l-201 70l-291 -70l2 -430l452 -41l-6 -71l-557 56l12 553zM510 202l5 241l-147 -15l-9 -226l53 -27z" />
    <glyph glyph-name="A" unicode="A" horiz-adv-x="664" vert-adv-y="916" 
d="M182 -15l-138 62l246 621l108 -47l-7 -21l240 -549l-86 -45l-82 195l-217 -27zM273 253l160 17l-85 204z" />
    <glyph glyph-name="B" unicode="B" horiz-adv-x="646" vert-adv-y="898" 
d="M513 575l-13 -204l65 5l-6 -349l-306 -21l1 -13l-154 -4v639l127 2v-16l95 40zM251 75l208 15l5 206l-222 -22zM413 363l13 184l-74 32l-120 -63l6 -169z" />
    <glyph glyph-name="C" unicode="C" horiz-adv-x="600" vert-adv-y="898" 
d="M233 523l31 -434l255 17l2 -111l-413 30l-11 528l289 102l190 -85l-43 -93l-184 92z" />
    <glyph glyph-name="D" unicode="D" horiz-adv-x="631" vert-adv-y="898" 
d="M109 -26l-9 655l135 2l1 -21l159 41l200 -170l-139 -459l-195 -22l1 -23zM242 533l17 -453l113 13l75 407l-71 72z" />
    <glyph glyph-name="E" unicode="E" horiz-adv-x="563" vert-adv-y="898" 
d="M236 625l260 21l7 -73l-264 -26l7 -189l212 20l6 -71l-214 -23l8 -201l275 36l6 -99l-278 -14l1 -13l-162 -4l8 657l127 2z" />
    <glyph glyph-name="F" unicode="F" horiz-adv-x="505" vert-adv-y="898" 
d="M234 544l13 -195l211 15l6 -72l-212 -17l18 -270l-169 -7l-1 647l127 4l2 -26l252 22l5 -73z" />
    <glyph glyph-name="G" unicode="G" horiz-adv-x="630" vert-adv-y="898" 
d="M468 124l1 119l-99 -7l-2 70l191 15l3 -307l-94 -9v26l-364 -24l-12 492l226 161l215 -54l-30 -107l-193 65l-88 -65l37 -408z" />
    <glyph glyph-name="I" unicode="I" horiz-adv-x="305" vert-adv-y="899" 
d="M227 640l31 -637l-152 -4l-1 639z" />
    <glyph glyph-name="J" unicode="J" horiz-adv-x="449" vert-adv-y="899" 
d="M432 580l-81 -4l4 -578l-232 13l2 71l112 -9l-30 497l-127 -7l-4 74l355 12z" />
    <glyph glyph-name="K" unicode="K" horiz-adv-x="604" vert-adv-y="898" 
d="M238 391l232 248l48 -56l-173 -186l234 -330l-85 -67l-224 317l-28 -32l12 -283l-154 -4l4 647l122 2z" />
    <glyph glyph-name="L" unicode="L" horiz-adv-x="522" vert-adv-y="898" 
d="M251 86l243 38l11 -101l-404 -25h-1v648l127 2z" />
    <glyph glyph-name="M" unicode="M" horiz-adv-x="812" vert-adv-y="898" 
d="M574 649l140 -57l-33 -593l-81 6l32 437l-182 -338l-73 46l9 25l-148 279l28 -454l-157 -4l-9 637l127 6l197 -369z" />
    <glyph glyph-name="N" unicode="N" horiz-adv-x="695" vert-adv-y="899" 
d="M497 23v26l-261 417l28 -460l-161 -8l-3 645l125 5l1 -23l277 -438l14 451h95l-18 -617z" />
    <glyph glyph-name="O" unicode="O" horiz-adv-x="668" vert-adv-y="898" 
d="M378 655l215 -99l-39 -559l-454 30l-3 553zM243 532l15 -433l209 -15l27 445l-104 48z" />
    <glyph glyph-name="P" unicode="P" horiz-adv-x="625" vert-adv-y="898" 
d="M555 211l-309 -35l7 -175l-153 -13l4 656l122 2l2 -43l121 40l217 -57zM243 246l214 24l9 280l-98 27l-136 -64z" />
    <glyph glyph-name="uniFE4E" unicode="&#xfe4e;" 
d="M676 121h250v-80h-250v80zM73 121h250v-80h-250v80zM439 153l133 -16l-11 -116l-143 7z" />
    <glyph glyph-name="Q" unicode="Q" horiz-adv-x="704" vert-adv-y="898" 
d="M659 114l-95 17l-10 -135l-454 30l-3 553l281 75l215 -99l-24 -346l100 -18zM480 146l-138 24l11 77l131 -24l19 302l-112 51l-147 -45l15 -433l217 -16z" />
    <glyph glyph-name="R" unicode="R" horiz-adv-x="662" vert-adv-y="898" 
d="M254 1l-154 -13l5 656l122 2l2 -42l120 39l217 -57l-19 -321l-90 -10l154 -198l-84 -67l-186 251l-97 -12zM233 513l9 -214l207 25l16 227l-97 26z" />
    <glyph glyph-name="uniFE49" unicode="&#xfe49;" 
d="M40 708h250v-80h-250v80zM710 708h250v-80h-250v80zM383 708h250v-80h-250v80z" />
    <glyph glyph-name="S" unicode="S" horiz-adv-x="565" vert-adv-y="898" 
d="M382 86v201l-310 -21l4 305l300 83l161 -84l-43 -85l-151 86l-121 -35l-2 -194l289 20l-6 -348l-422 -12l-4 104z" />
    <glyph glyph-name="T" unicode="T" horiz-adv-x="503" vert-adv-y="899" 
d="M501 560l-159 -7l23 -549l-155 -6l14 552l-172 -6l-4 73l450 12z" />
    <glyph glyph-name="U" unicode="U" horiz-adv-x="640" vert-adv-y="898" 
d="M97 67l4 583l149 -6l-15 -517l134 -51l97 40l-6 507l98 2l9 -596l-100 -5v15l-108 -44z" />
    <glyph glyph-name="V" unicode="V" horiz-adv-x="586" vert-adv-y="898" 
d="M563 597l-213 -581l-114 -20l-196 598l140 56l129 -483l171 465z" />
    <glyph glyph-name="W" unicode="W" horiz-adv-x="867" vert-adv-y="898" 
d="M675 43l-129 -33l-110 317l-140 -321l-125 -10l-111 621l151 32l65 -484l119 280l-9 27l94 37l133 -319l95 442l92 -18z" />
    <glyph glyph-name="X" unicode="X" horiz-adv-x="644" vert-adv-y="898" 
d="M600 558l-185 -223l184 -254l-83 -85l-189 232l-191 -231l-68 71l198 233l-194 235l116 113l171 -237l180 213z" />
    <glyph glyph-name="Y" unicode="Y" horiz-adv-x="634" vert-adv-y="898" 
d="M545 634l60 -51l-192 -284l7 -297l-137 -6l4 262l-231 287l122 109l193 -266z" />
    <glyph glyph-name="Z" unicode="Z" horiz-adv-x="553" vert-adv-y="899" 
d="M507 121l2 -105l-449 -20l244 534l-228 -1l4 82h419l-238 -521z" />
    <glyph glyph-name="bracketleft" unicode="[" horiz-adv-x="606" vert-adv-y="899" 
d="M339 -72l125 -22l-7 -70l-241 32l-14 757l232 23l6 -62l-126 -17z" />
    <glyph glyph-name="product" unicode="&#x220f;" 
d="M793 747v-768h-104v684h-329l20 -684h-173v768h586z" />
    <glyph glyph-name="uni3008" unicode="&#x3008;" 
d="M482 339l324 -413l-60 -72l-365 445l-1 71l370 413l66 -65z" />
    <glyph glyph-name="backslash" unicode="\" horiz-adv-x="481" vert-adv-y="899" 
d="M136 679l296 -680l-55 -31l-297 681z" />
    <glyph glyph-name="bracketright" unicode="]" horiz-adv-x="606" vert-adv-y="899" 
d="M190 648l233 -23l-15 -757l-240 -32l-7 70l126 22l24 641l-127 17z" />
    <glyph glyph-name="asciicircum" unicode="^" horiz-adv-x="526" vert-adv-y="898" 
d="M321 635l111 -125l-42 -46l-103 115l-77 -127l-89 41l114 163z" />
    <glyph glyph-name="underscore" unicode="_" horiz-adv-x="315" vert-adv-y="968" 
d="M80 75h203v-72h-203v72z" />
    <glyph glyph-name="uni2171" unicode="&#x2171;" vert-adv-y="905" 
d="M317 445l117 4l31 -440l-152 -12zM320 527l-17 112l116 7l9 -104zM549 445l117 4l31 -440l-153 -12zM552 527l-17 112l115 7l9 -104z" />
    <glyph glyph-name="ogonek" unicode="&#x2db;" vert-adv-y="969" 
d="M522 22l-17 -114l80 1l2 -71l-175 -5l21 196z" />
    <glyph glyph-name="uni2178" unicode="&#x2178;" vert-adv-y="905" 
d="M197 445l118 4l30 -440l-152 -12zM200 527l-17 112l116 7l9 -104zM530 225l-160 184l104 99l139 -190l151 167l53 -58l-154 -176l146 -199l-71 -66l-153 176l-150 -171l-60 62z" />
    <glyph glyph-name="uni2164" unicode="&#x2164;" vert-adv-y="898" 
d="M762 597l-214 -581l-114 -20l-196 598l140 56l129 -483l171 465z" />
    <glyph glyph-name="uniFF0C" unicode="&#xff0c;" 
d="M365 -142l25 113l-80 4l25 142l152 -17l-26 -244z" />
    <glyph glyph-name="uniFF3E" unicode="&#xff3e;" 
d="M544 635l112 -125l-44 -46l-103 115l-77 -127l-89 41l115 163z" />
    <glyph glyph-name="Aacute" unicode="&#xc1;" horiz-adv-x="659" vert-adv-y="880" 
d="M162 -15l-138 62l246 621l108 -47l-7 -21l240 -549l-86 -45l-82 195l-217 -27zM253 253l160 17l-85 204zM418 790l-120 -87l-34 44l91 112z" />
    <glyph glyph-name="cent" unicode="&#xa2;" horiz-adv-x="463" vert-adv-y="906" 
d="M248 19l-183 12l-9 396l192 59v58h59v-42l129 -69l-40 -71l-89 55v-314l96 5l-2 -99l-94 5v-59h-59v64zM201 99l47 2v324l-62 -22z" />
    <glyph glyph-name="uni00AD" unicode="&#xad;" horiz-adv-x="540" vert-adv-y="929" 
d="M110 269l-9 88l318 12l6 -61z" />
    <glyph glyph-name="Zcaron" unicode="&#x17d;" horiz-adv-x="553" vert-adv-y="880" 
d="M487 121l2 -105l-449 -20l244 534l-228 -1l4 82h419l-238 -521zM266 649l-115 163l89 41l76 -127l104 115l43 -46l-112 -125z" />
    <glyph glyph-name="eth" unicode="&#xf0;" horiz-adv-x="608" vert-adv-y="898" 
d="M319 536l-77 32l-117 -63l-35 84l153 55l203 -80v-2l73 17l13 -61l-87 -21l-12 -484l-342 13l-20 268l126 116l127 -14l3 73l-145 -34l-16 69zM239 337l-69 -70l16 -194l126 3l10 250z" />
    <glyph glyph-name="uni2179" unicode="&#x2179;" vert-adv-y="921" 
d="M436 225l-159 184l103 99l140 -190l150 167l52 -58l-154 -176l146 -199l-70 -66l-153 176l-149 -171l-61 62z" />
    <glyph glyph-name="uni33C4" unicode="&#x33c4;" vert-adv-y="918" 
d="M117 21l-9 389l246 77l128 -70l-39 -70l-116 72l-92 -32l16 -299l199 9l-2 -98zM526 21l-9 389l246 77l128 -70l-39 -70l-116 72l-92 -32l15 -299l199 9l-2 -98z" />
    <glyph glyph-name="uniFF23" unicode="&#xff23;" 
d="M397 523l31 -434l254 17l3 -111l-413 30l-11 528l289 102l189 -85l-42 -93l-185 92z" />
    <glyph glyph-name="uniFF0B" unicode="&#xff0b;" 
d="M441 82l-2 206l-170 -19l-9 70l177 16l-4 204l111 3l14 -196l175 16l6 -61l-177 -20l16 -216z" />
    <glyph glyph-name="uniFF0E" unicode="&#xff0e;" 
d="M309 -6l90 -3l6 75l-84 7zM256 150l218 -25l-14 -201l-240 5z" />
    <glyph glyph-name="uni216B" unicode="&#x216b;" vert-adv-y="902" 
d="M680 640l24 -636l-119 -3l-1 637zM560 576l-146 -244l145 -276l-65 -58l-149 227l-149 -226l-54 62l155 238l-168 255l107 95l134 -240l142 216zM847 640l24 -636l-119 -3l-1 637z" />
    <glyph glyph-name="uniFF02" unicode="&#xff02;" 
d="M394 472l11 57l-64 4l20 128l124 -16l-14 -174zM568 472l12 57l-65 4l21 128l123 -16l-13 -174z" />
    <glyph glyph-name="uniFF24" unicode="&#xff24;" 
d="M261 -26l-9 655l135 2v-21l160 41l200 -170l-140 -459l-194 -22l1 -23zM393 533l17 -453l113 13l75 407l-71 72z" />
    <glyph glyph-name="uniFE34" unicode="&#xfe34;" 
d="M546 -135l-14 -70l-92 46l-17 185l76 15l11 58l-70 28l-17 195l76 15l12 60l-12 4l-59 19l-17 195l76 15l11 60l-60 24l2 66l123 -47h1v-2l-29 -182v-1l-63 -13l4 -62l88 -33h1v-2l-30 -182v-1l-63 -13l5 -65l87 -33h1v-2l-30 -182v-1l-63 -13l5 -58z" />
    <glyph glyph-name="uniFF30" unicode="&#xff30;" 
d="M722 211l-309 -35l7 -175l-152 -13l2 656l123 2l2 -43l120 40l217 -57zM410 246l213 24l10 280l-99 27l-136 -64z" />
    <glyph glyph-name="uniFF31" unicode="&#xff31;" 
d="M775 114l-94 17l-10 -135l-454 30l-4 553l282 75l215 -99l-25 -346l101 -18zM596 146l-137 24l11 77l131 -24l18 302l-112 51l-147 -45l15 -433l218 -16z" />
    <glyph glyph-name="uniFF38" unicode="&#xff38;" 
d="M765 558l-184 -223l184 -254l-83 -85l-189 232l-191 -231l-68 71l198 233l-194 235l115 113l172 -237l180 213z" />
    <glyph glyph-name="uniFF07" unicode="&#xff07;" 
d="M480 472l12 57l-64 4l19 128l124 -16l-13 -174z" />
    <glyph glyph-name="uniFE16" unicode="&#xfe16;" vert-adv-y="1300" 
d="M495 711l272 -177l-220 -398l-138 54l171 381l-61 41l-223 -128l-63 113zM539 -76l-166 8l25 142l152 -17z" />
    <glyph glyph-name="onequarter" unicode="&#xbc;" horiz-adv-x="657" vert-adv-y="903" 
d="M158 -28l-57 30l297 680l56 -30zM121 645l59 2l19 -297l-77 -4zM432 0l6 76l-122 -9l27 220l68 2l-11 -177l42 3l16 187l54 -1l-17 -183l33 3l2 -38l-38 -5l-9 -81z" />
    <glyph glyph-name="uniFF3A" unicode="&#xff3a;" 
d="M722 121l2 -105l-448 -20l244 534l-229 -1l5 82h418l-237 -521z" />
    <glyph glyph-name="uniFF37" unicode="&#xff37;" 
d="M745 43l-130 -33l-110 317l-139 -321l-125 -10l-111 621l150 32l65 -484l120 280l-10 27l94 37l134 -319l95 442l91 -18z" />
    <glyph glyph-name="infinity" unicode="&#x221e;" 
d="M144 418l115 163l252 -67l130 126l214 -49l-11 -461l-374 -6l-2 24l-279 -31zM536 231l248 8l4 205l-184 45l-84 -76zM449 406l-181 50l-38 -51l27 -151l202 19z" />
    <glyph glyph-name="emdash" unicode="&#x2014;" 
d="M161 299l-11 98l692 13l8 -68z" />
    <glyph glyph-name="udieresis" unicode="&#xfc;" horiz-adv-x="513" vert-adv-y="906" 
d="M193 491l-7 -376l81 -46l72 39l9 373l97 -2l-14 -470l-94 -2l1 27l-91 -37l-179 77l-8 413zM139 648l101 -14l-8 -98l-109 7zM303 648l101 -14l-8 -98l-109 7z" />
    <glyph glyph-name="uniFF21" unicode="&#xff21;" 
d="M344 -15l-138 62l246 621l108 -47l-8 -21l241 -549l-87 -45l-81 195l-217 -27zM435 253l160 17l-85 204z" />
    <glyph glyph-name="uni33CE" unicode="&#x33ce;" vert-adv-y="893" 
d="M203 391l159 248l33 -55l-118 -186l160 -329l-58 -65l-153 315l-20 -32l8 -282l-105 -3l3 643l83 2zM794 649l97 -56l-23 -590l-56 6l23 435l-125 -336l-51 45l8 24l-101 277l19 -450l-107 -4l-7 633l87 6l134 -366z" />
    <glyph glyph-name="uni3223" unicode="&#x3223;" vert-adv-y="763" 
d="M310 500l380 36v4l86 7l23 -439l-86 -4l-1 5l-368 6l4 -39l-109 -11l-40 448l109 7zM945 580l-18 -544l-171 -178l-152 28l21 84l117 -29l109 109l9 515l-97 105l-129 -24l-12 85l152 28zM378 -114l-153 -28l-171 178l18 544l171 179l153 -28l-13 -76l-125 21l-109 -110
l-9 -515l96 -105l120 24zM352 195l31 256l-68 -6l24 -274l371 -7l-3 60l-158 57h-27v183l-46 -4l-33 -277zM612 319l91 -32l-10 194l-81 -8v-154z" />
    <glyph glyph-name="uniFE30" unicode="&#xfe30;" 
d="M562 17l-166 8l25 142l152 -17zM592 457l-166 8l25 142l152 -17z" />
    <glyph glyph-name="uniFE37" unicode="&#xfe37;" 
d="M1003 164l-41 -149l-93 23l51 147l-19 34l-274 2l-117 157l-138 -152l-287 -11l42 -147l-94 -23l-35 166l44 152l285 -23l129 120l106 -23l59 -92l283 8z" />
    <glyph glyph-name="uniFE36" unicode="&#xfe36;" 
d="M125 748l-27 -133l117 -107l572 10l122 121l-23 139l84 14l31 -170l-199 -189l-604 -20l-198 189l31 170z" />
    <glyph glyph-name="uniFE35" unicode="&#xfe35;" 
d="M31 24l-31 170l198 189l604 -20l199 -189l-31 -170l-84 14l23 139l-122 121l-572 10l-117 -107l27 -133z" />
    <glyph glyph-name="uniFF3F" unicode="&#xff3f;" 
d="M398 75h203v-72h-203v72z" />
    <glyph glyph-name="Oacute" unicode="&#xd3;" horiz-adv-x="668" vert-adv-y="880" 
d="M358 655l215 -99l-39 -559l-454 30l-3 553zM223 532l15 -433l209 -15l27 445l-104 48zM420 790l-120 -87l-33 44l90 112z" />
    <glyph glyph-name="uni216A" unicode="&#x216a;" vert-adv-y="902" 
d="M842 640l30 -637l-152 -4l-1 639zM659 558l-186 -223l185 -254l-83 -85l-190 232l-190 -231l-68 71l198 233l-194 235l115 113l171 -237l180 213z" />
    <glyph glyph-name="uniFF01" unicode="&#xff01;" 
d="M269 751l188 -12l-38 -529l-145 5zM411 -33l-166 8l25 142l152 -17z" />
    <glyph glyph-name="uniFE15" unicode="&#xfe15;" vert-adv-y="1300" 
d="M418 709l188 -12l-38 -529l-145 5zM560 -75l-166 8l25 142l152 -17z" />
    <glyph glyph-name="uniFE13" unicode="&#xfe13;" 
d="M562 17l-166 8l25 142l152 -17zM592 457l-166 8l25 142l152 -17z" />
    <glyph glyph-name="uniFE3A" unicode="&#xfe3a;" 
d="M843 553l69 106l89 -8l-156 -237l-690 18l-155 247l98 8l64 -104z" />
    <glyph glyph-name="agrave" unicode="&#xe0;" horiz-adv-x="538" vert-adv-y="904" 
d="M213 -3l-161 61l38 410l361 23l-12 -416l58 2l4 -66l-161 -14l1 37zM344 99l12 329l-146 -13l-17 -318l52 -25zM258 651l91 -113l-34 -44l-120 87z" />
    <glyph glyph-name="uniFE3D" unicode="&#xfe3d;" 
d="M520 436l-413 -324l-72 60l445 365l71 1l413 -370l-65 -66zM520 149l-413 -324l-72 60l445 365l71 1l413 -370l-65 -66z" />
    <glyph glyph-name="uniFF29" unicode="&#xff29;" 
d="M545 640l31 -637l-153 -4v639z" />
    <glyph glyph-name="uniFF22" unicode="&#xff22;" 
d="M680 575l-14 -204l65 5l-5 -349l-306 -21l1 -13l-153 -4v639l126 2v-16l94 40zM417 75l209 15l4 206l-222 -22zM579 363l14 184l-73 32l-122 -63l7 -169z" />
    <glyph glyph-name="uni2223" unicode="&#x2223;" 
d="M460 850h80v-992h-80v992z" />
    <glyph glyph-name="uni2165" unicode="&#x2165;" vert-adv-y="903" 
d="M675 597l-214 -581l-113 -20l-196 598l140 56l129 -483l171 465zM817 640l30 -637l-152 -4l-1 639z" />
    <glyph glyph-name="uni2167" unicode="&#x2167;" vert-adv-y="903" 
d="M505 607l-151 -589l-103 -20l-132 619l115 29l91 -479l114 461zM595 636l22 -632l-90 -3l-1 633zM727 636l21 -632l-91 -3v633zM858 636l22 -632l-92 -3l-1 633z" />
    <glyph glyph-name="uni2225" unicode="&#x2225;" 
d="M562 853l70 -34l-462 -954l-70 33zM829 853l70 -34l-462 -954l-70 33z" />
    <glyph glyph-name="ccedilla" unicode="&#xe7;" horiz-adv-x="463" vert-adv-y="920" 
d="M331 -167l-171 3l4 68l103 -26l10 75l-109 -3v1l14 71l-117 9l-9 396l249 77l131 -71l-40 -71l-118 74l-92 -33l15 -304l202 9l-2 -99l-158 10l-3 -21h105z" />
    <glyph glyph-name="uniFF3C" unicode="&#xff3c;" 
d="M351 754l366 -755l-69 -34l-366 756z" />
    <glyph glyph-name="trademark" unicode="&#x2122;" vert-adv-y="894" 
d="M468 600l-86 -6l6 -221l-98 -6l6 223l-92 -6l-3 51l264 12zM739 658l60 -12l-9 -272l-49 5l7 185l-76 -146l-40 29l6 13l-58 106l22 -197l-91 -4l-9 286l77 6l84 -149z" />
    <glyph glyph-name="uniFF32" unicode="&#xff32;" 
d="M397 1l-153 -13l4 656l122 2l2 -42l120 39l217 -57l-19 -321l-90 -10l155 -198l-85 -67l-185 251l-98 -12zM376 513l9 -214l208 25l16 227l-98 26z" />
    <glyph glyph-name="angle" unicode="&#x2220;" 
d="M308 178l512 -1l1 -165l-596 6l-47 159l463 489l54 -58z" />
    <glyph glyph-name="uni2169" unicode="&#x2169;" vert-adv-y="898" 
d="M765 558l-184 -223l184 -254l-83 -85l-189 232l-191 -231l-68 71l198 233l-194 235l115 113l172 -237l180 213z" />
    <glyph glyph-name="uni2161" unicode="&#x2161;" vert-adv-y="903" 
d="M437 640l31 -637l-153 -4v639zM653 640l31 -637l-152 -4l-1 639z" />
    <glyph glyph-name="union" unicode="&#x222a;" 
d="M774 682l29 -568l-289 -118l-318 64l13 583l119 -7l-14 -536l172 -28l154 56l-39 539z" />
    <glyph glyph-name="uniFE19" unicode="&#xfe19;" 
d="M566 721l-16 -133l-116 11l7 143zM566 422l-16 -133l-116 11l7 143zM566 120l-16 -133l-116 11l7 143z" />
    <glyph glyph-name="uniFF34" unicode="&#xff34;" 
d="M726 560l-159 -7l23 -549l-155 -6l14 552l-172 -6l-4 73l450 12z" />
    <glyph glyph-name="uni2175" unicode="&#x2175;" vert-adv-y="905" 
d="M657 445l117 4l30 -440l-152 -12zM659 527l-17 112l116 7l9 -104zM195 445l121 49l98 -355l136 352l75 -39l-175 -447l-108 -19z" />
    <glyph glyph-name="lslash" unicode="&#x142;" horiz-adv-x="445" vert-adv-y="895" 
d="M165 -4l-1 400l-91 -11l-9 88l100 4v168l119 2l6 -166l93 4l6 -61l-96 -12l17 -411z" />
    <glyph glyph-name="uniFF06" unicode="&#xff06;" 
d="M589 -18l-34 85l-208 -54l-65 254l166 67l-86 214l116 104l228 -31l-10 -246l-129 -53l63 -154l70 25l17 -83l-57 -16l30 -70zM546 372l63 25v180l-114 15l-28 -28zM530 131l-62 152l-62 -25l43 -156z" />
    <glyph glyph-name="uni2176" unicode="&#x2176;" vert-adv-y="905" 
d="M554 448l104 5l27 -431l-134 -12zM558 530l-16 109l103 7l8 -102zM138 460l115 37l87 -348l120 337l68 -31l-155 -437l-97 -20zM730 448l104 5l27 -431l-134 -12zM733 530l-15 109l102 7l8 -102z" />
    <glyph glyph-name="uni2177" unicode="&#x2177;" vert-adv-y="905" 
d="M473 448l89 5l23 -431l-115 -12zM476 530l-13 109l87 7l8 -102zM118 460l99 37l73 -348l103 337l57 -26l-132 -442l-82 -20zM623 448l88 5l24 -431l-115 -12zM625 530l-13 109l88 7l6 -102zM770 448l88 5l24 -431l-115 -12zM772 530l-13 109l87 7l7 -102z" />
    <glyph glyph-name="uniFF20" unicode="&#xff20;" 
d="M531 652l305 -99l-47 -426l-197 -26l1 37l-129 -37l-145 62l31 318l332 24l-6 -343l51 6l38 342l-201 70l-290 -70l2 -430l452 -41l-7 -71l-557 56l13 553zM594 202l6 241l-147 -15l-10 -226l52 -27z" />
    <glyph glyph-name="uniFF0A" unicode="&#xff0a;" 
d="M495 468l-72 -87l-33 36l70 83l-87 14l9 48l80 -10l-9 100l86 2l-8 -101l88 22l8 -43l-77 -24l69 -71l-59 -64z" />
    <glyph glyph-name="uniFF0D" unicode="&#xff0d;" 
d="M347 269l-9 88l318 12l6 -61z" />
    <glyph glyph-name="uniFF2A" unicode="&#xff2a;" 
d="M677 580l-80 -4l4 -578l-233 13l2 71l112 -9l-29 497l-128 -7l-3 74l353 12z" />
    <glyph glyph-name="uniFE54" unicode="&#xfe54;" vert-adv-y="654" 
d="M300 -132l25 103l-80 4l25 142l152 -17l-26 -234zM441 407l-166 8l25 142l152 -17z" />
    <glyph glyph-name="uniFFE3" unicode="&#xffe3;" vert-adv-y="888" 
d="M775 655l7 -115l-564 2l-1 97z" />
    <glyph glyph-name="uniFE10" unicode="&#xfe10;" vert-adv-y="1002" 
d="M466 200l25 103l-80 4l25 142l152 -17l-26 -234z" />
    <glyph glyph-name="uniFE50" unicode="&#xfe50;" vert-adv-y="429" 
d="M365 -142l25 113l-80 4l25 142l152 -17l-26 -244z" />
    <glyph glyph-name="uniFFE1" unicode="&#xffe1;" vert-adv-y="909" 
d="M693 558l-47 -94l-149 106l-45 -34l31 -136l98 17l9 -56l-93 -23l25 -108l-72 -142l257 38l12 -101l-405 -25l97 204l-35 105l-83 -20l-12 75l74 13l-43 129l203 146z" />
    <glyph glyph-name="uniFFE2" unicode="&#xffe2;" vert-adv-y="664" 
d="M550 374l-216 -27l-4 83l339 17v-1l-50 -260l-102 29z" />
    <glyph glyph-name="uniFE5A" unicode="&#xfe5a;" vert-adv-y="1065" 
d="M566 594l-20 -544l-190 -198l-169 31l23 94l130 -33l121 122l10 512l-108 116l-143 -26l-13 94l169 31z" />
    <glyph glyph-name="uniFE11" unicode="&#xfe11;" vert-adv-y="1003" 
d="M497 240l-99 177l72 44l140 -151z" />
    <glyph glyph-name="uniFE59" unicode="&#xfe59;" vert-adv-y="1065" 
d="M819 -107l-170 -31l-189 198l20 534l189 199l170 -31l-14 -84l-139 23l-121 -122l-10 -502l107 -117l133 27z" />
    <glyph glyph-name="uni4E28" unicode="&#x4e28;" vert-adv-y="1200" 
d="M574 -67l-144 -5l-29 789l144 6z" />
    <glyph glyph-name="uni4E2C" unicode="&#x4e2c;" vert-adv-y="1200" 
d="M729 -66l-121 -6l-11 321l-85 -67q-28 -22 -55 -43.5t-49 -38t-35.5 -26t-14.5 -9.5q-2 1 -16 16.5t-30 35.5q-18 22 -42 51l324 177l-13 398l121 6zM390 605l156 -104l-27 -65l-189 45z" />
    <glyph glyph-name="uni4E2B" unicode="&#x4e2b;" vert-adv-y="1200" 
d="M433 -67v528l83 2l217 285l122 -111l-314 -226l26 -478h-134zM374 460l-223 160l107 108l178 -201z" />
    <glyph glyph-name="uni4E2D" unicode="&#x4e2d;" vert-adv-y="1200" 
d="M627 754l6 -181l127 3v13h127v-346h-51l-192 -13l11 -307l-165 -5l-11 300l-155 -11v-1l-148 -18l-64 365l159 43l4 -29l193 3l-6 178zM313 283l164 11l-7 199l-185 -3zM642 306l118 8v184l-125 -2z" />
    <glyph glyph-name="uni4E30" unicode="&#x4e30;" vert-adv-y="1200" 
d="M703 449v-80l-143 -3l4 -138l317 12l6 -75l-320 -14l8 -230l-144 -5l-8 228l-305 -13l-6 80l308 11l-5 142l-135 -2v81l133 2l-5 145l-204 -7v107l200 -5l-3 106l144 6l4 -116l185 -4l5 -75l-187 -7l5 -148z" />
    <glyph glyph-name="uni5361" unicode="&#x5361;" vert-adv-y="1200" 
d="M719 594l-215 -23l11 -170l386 40l5 -78l-380 -39q14 -93 27 -171q7 -46 14 -90.5t12.5 -80t9 -58t3.5 -24.5q0 -1 -9 -2.5t-23.5 -2.5t-33 -2.5t-37.5 -2.5q-45 -3 -101 -6l-18 424l-271 -27l-6 77l270 28l-22 390l149 9l9 -136l215 22zM562 193l78 61l262 -142
l-120 -120z" />
    <glyph glyph-name="uni4E32" unicode="&#x4e32;" vert-adv-y="1200" 
d="M236 353l4 -29l198 6l-1 89l-86 -7l1 -8l-116 -10l-35 313l116 10l1 -14l116 10l-1 69h105l4 -59l121 11l42 6l41 -306l-75 -6l-1 9l-106 -8l7 -95l208 6l1 6l99 -5l-23 -324l-58 6l-204 4l10 -129l-161 -5l-2 137l-163 3l5 -33l-116 -12l-46 348zM588 108l175 -3l11 153
l-197 -5zM268 114l173 -3l-2 138l-189 -4zM342 494l94 7l-1 131l-108 -9zM558 509l101 7l-18 133l-93 -7z" />
    <glyph glyph-name="uni4E8B" unicode="&#x4e8b;" vert-adv-y="1200" 
d="M300 619l7 -119l123 11l-2 24l-92 -9l-7 71l92 9l-4 45l-277 -15l-8 81l278 16l-6 68l97 13l8 -75l226 13l6 -82l-222 -13l5 -42l165 16v-2l23 2l5 -168h-41l-133 -12l5 -44l93 8l1 13l150 -12l-8 -105l85 6l5 -68l-95 -7l-9 -132l-69 5l-118 -11l6 -49l-155 -204l-89 67
l126 147l-3 29l-214 -19l-5 69l213 18l-5 58l-325 -23l-6 64l325 24l-4 43l-186 -16l-7 69l186 16l-4 45l-125 -11l1 -15l-115 -5l-12 202zM561 294l71 5l3 46l-79 -7zM575 172l48 4l4 56l-58 -4zM535 519l99 9l-1 27l-101 -10z" />
    <glyph glyph-name="uni4E3F" unicode="&#x4e3f;" vert-adv-y="1200" 
d="M584 251l-104 455l153 14l28 -487l-203 -308l-120 101z" />
    <glyph glyph-name="uni4E5D" unicode="&#x4e5d;" vert-adv-y="1200" 
d="M61 537l216 16l84 229l100 -33l-69 -187l267 21v-471l279 47l-9 -172h-387l-45 473l-145 -5l-184 -497l-98 32l170 462l-173 -5z" />
    <glyph glyph-name="uni4E38" unicode="&#x4e38;" vert-adv-y="1200" 
d="M504 -22l66 523l-186 -34l-44 -203l82 -26l-21 -87l-84 12l-45 -208l-115 28l43 198l-100 15l33 136l93 -31l31 142l-161 -29l-17 77l196 35l41 185l116 -27l-30 -136l178 32l3 18l118 -16l-89 -491l308 -6l-10 -134z" />
    <glyph glyph-name="uni4E43" unicode="&#x4e43;" vert-adv-y="1200" 
d="M146 510l-21 108l552 84l-25 -289l242 -76l-108 -401l-132 33l69 307l-193 28l3 300zM301 545l114 -43l-191 -548l-120 42z" />
    <glyph glyph-name="uni4E39" unicode="&#x4e39;" vert-adv-y="1200" 
d="M214 719l67 -3l296 48l-1 6l143 27l62 -354l142 7l5 -76l-133 -7l29 -164l-17 -4l14 -6l-190 -314l-139 87l181 250l-25 143l-339 -17l-13 -332h-105l10 326l-125 -6l-5 77l133 6zM312 419l323 16l-45 253l-269 -44zM479 428l-106 177l136 27l54 -156z" />
    <glyph glyph-name="uni518C" unicode="&#x518c;" vert-adv-y="1200" 
d="M728 199h1l-23 186l-108 -7l10 -241l-78 -6l-10 241l-59 -4l19 -237l-77 -5l-20 237l-109 -7l6 -270l-129 11l20 252l-120 -8l-7 78l134 9l15 185l-21 54l181 64v2l78 5l23 -292l63 4l-7 184h-2l-10 77l165 27v6l121 16l35 -290l130 9l6 -77l-126 -9l27 -217l-8 -1
l-120 -299l-128 57zM272 434l105 7l-18 210l-91 -32zM595 455l102 7l-25 200l-85 -14z" />
    <glyph glyph-name="uni4E45" unicode="&#x4e45;" vert-adv-y="1200" 
d="M440 722l-45 -89l199 -81l19 24l79 -68l-183 -222q6 -3 13 -7q31 -16 70.5 -37.5t80.5 -43.5q96 -52 216 -118l-94 -168l-373 267l-212 -257l-77 67l412 504l-183 76l-132 -260l-120 63l210 409z" />
    <glyph glyph-name="uni4E48" unicode="&#x4e48;" vert-adv-y="1200" 
d="M596 570l78 -62l-264 -355l261 54l-41 82l115 61l160 -314l-116 -60l-57 111l-564 -116l-27 126l118 24zM94 365l337 438l140 -119l-403 -369z" />
    <glyph glyph-name="uni4E4C" unicode="&#x4e4c;" vert-adv-y="1200" 
d="M581 27l123 -39l36 245l-370 -26l-4 -29l-116 18l52 378l-24 -1v79l110 6l61 155l75 -28l-48 -122l133 7l3 19l78 -14l17 1v-4l39 -7l-54 -354l60 4l4 29l133 -24l-64 -444l-133 24l1 9l-135 42zM673 160l6 -80l-584 -64l-7 81zM471 438l95 -19l29 170l-174 -9l-40 -290
l283 19l-113 19l1 10l-99 26z" />
    <glyph glyph-name="uni4E4F" unicode="&#x4e4f;" vert-adv-y="1200" 
d="M775 404l-419 -239l298 -96l231 79l41 -93l-252 -148l-481 166l-83 -47l-37 64l470 266l-372 -44l-19 126h23q19 0 52.5 -0.5t75 -1t88 -1t91.5 -0.5h3l-111 58l52 86l-217 -36l-20 70l478 135l39 -123l-253 -42l132 -90l-68 -59q76 -1 160 -2l62 35z" />
    <glyph glyph-name="uni4E47" unicode="&#x4e47;" vert-adv-y="1200" 
d="M380 556h165v-187l292 33l6 -78l-298 -33v-276l202 24l87 107l82 -16l-20 -188l-432 5l-1 4h-83v321l-285 -31l-12 78l297 32v205zM655 742l17 -76l-418 -62l-12 77z" />
    <glyph glyph-name="uni4E4D" unicode="&#x4e4d;" vert-adv-y="1200" 
d="M221 795l163 -41l-30 -115l465 48l5 -80l-252 -25l5 -163l253 25l10 -78l-261 -25l5 -138l308 5l5 -80l-311 -4l7 -209l-130 -7l-22 661l-107 -11l-68 -266l-164 40z" />
    <glyph glyph-name="uni4E50" unicode="&#x4e50;" vert-adv-y="1200" 
d="M568 532l21 -153l241 17l6 -80l-236 -18l56 -399l-124 -17l-2 13l-191 10l5 82l174 -9l-43 311l-246 -18l-2 -14l-122 17l64 369h-3l21 103l482 14v-139l-375 16l-50 -282l220 15l-19 143zM94 -10l73 219l135 -40l-113 -208zM695 181l211 -58l-16 -83l-218 59z" />
    <glyph glyph-name="uni4E4E" unicode="&#x4e4e;" vert-adv-y="1200" 
d="M650 413l106 200l81 -60l-122 -149l164 11l5 -82l-260 -18l34 -199l-172 -251l-122 64l176 214l-44 163l-376 -25l-5 82l146 10l-90 126l138 70l70 -188l95 6l-59 219l154 39l42 -248l62 4zM249 744l463 -12v-79l-463 10v81z" />
    <glyph glyph-name="uni4E22" unicode="&#x4e22;" vert-adv-y="1200" 
d="M563 654l3 -127l168 17l5 -78l-172 -17l4 -155l311 18l5 -75l-379 -23l-118 -195l256 72l-34 63l93 55l122 -232l-93 -49l-48 88l-338 -106l-89 81l102 215l-243 -14l-6 77l314 17l-4 149l-184 -18l-5 77l186 18l-3 115l-173 -59l-32 72l474 157l34 -67l-224 -76h68z" />
    <glyph glyph-name="uni4E18" unicode="&#x4e18;" vert-adv-y="1200" 
d="M672 731l27 -110l-396 -110l15 -101l498 29v-93l-123 -4v-205l233 4v-121l-852 2v104l156 3l-71 475l97 13zM360 131l202 3v205l-232 -7z" />
    <glyph glyph-name="uni4E52" unicode="&#x4e52;" vert-adv-y="1200" 
d="M102 257l150 2l-69 420l95 11l398 101l26 -97l-380 -98l14 -89l477 26v-82l-117 -3v-182l223 4v-107l-817 2v92zM376 261l194 3v180l-223 -5zM453 78l-224 -198l-86 96l264 156z" />
    <glyph glyph-name="uni4E53" unicode="&#x4e53;" vert-adv-y="1200" 
d="M102 257l150 2l-69 420l95 11l398 101l26 -97l-380 -98l14 -89l477 26v-82l-117 -3v-182l223 4v-107l-817 2v92zM376 261l194 3v180l-223 -5zM872 -49l-84 -84l-205 199l79 84z" />
    <glyph glyph-name="uni4E56" unicode="&#x4e56;" vert-adv-y="1200" 
d="M805 589v-80l-270 -5l49 -604l-139 -11l-50 613l-274 -5v80l268 4l-8 90l-136 -2l17 115l343 -54l-15 -55l-68 -1l7 -90zM313 462l57 -336l-46 -10l-198 -59l-28 75l149 48l-16 98l-145 -27v82l133 13l-16 99zM844 427l35 -69l-181 -91l-2 -79l127 17v59l81 -7l9 -109
l-311 -16l-15 281h115l-2 -53z" />
    <glyph glyph-name="uni4E58" unicode="&#x4e58;" vert-adv-y="1200" 
d="M827 599v-84l-287 -4l23 -341l353 -85l-40 -139l-304 78l9 -125l-124 -5l-16 233l-246 -205l-68 82l306 253l-17 253l-332 -4v88l326 2l-4 60l-146 -3l30 138l349 -75l-11 -55l-97 -2l4 -62zM804 501l36 -74l-160 -92l2 -29l141 -1l-11 62l79 -2l9 -150l-292 -11l-24 294
h86l4 -68zM340 488l31 -274l-54 -9l-157 -60l-33 80l150 58l-6 69l-136 -50l-11 100l141 14l-5 59z" />
    <glyph glyph-name="uni79C9" unicode="&#x79c9;" vert-adv-y="1200" 
d="M243 379v66l216 13l-3 78l-370 -11l-5 82l372 11l-2 60l-162 -12l-14 55l390 106l46 -128l-127 -10l2 -67l283 8v-82l-280 -8l3 -74l82 5l2 13l134 -11l-14 -115l111 5v-81l-121 -6l-5 -41v-80l-179 -5l3 -90l314 -27l-16 -133l-295 65l4 -100l-133 -6l-5 136l-102 22
l20 62l79 -7l-2 75l-64 -1l6 -3l-157 -256l-69 42l131 215l-51 -1v81l201 4l-1 34l-321 -15l-5 81l324 15l-2 46zM596 349l64 3l5 46l-71 -3zM599 231l47 1l4 38l-52 -2z" />
    <glyph glyph-name="uni5782" unicode="&#x5782;" vert-adv-y="1200" 
d="M876 421l5 -81l-148 -16l-9 -136l152 12l5 -81l-271 -21l10 -110l140 9l6 -79l-435 -23v74l148 10l-9 109l-260 -20l-11 81l89 6l-40 117l-120 -13l-5 74l100 11l-18 53l104 35l26 -75l111 13l-9 112l-314 -27l-5 82l312 27l-5 60l138 11l5 -59l280 24l5 -81l-278 -25
l9 -108l72 9l6 83l82 -5l-5 -68zM616 796l17 -80l-359 -63l-17 74zM402 164l61 4l-10 126l-93 -10zM603 179l38 3l9 133l-59 -6z" />
    <glyph glyph-name="uni4E86" unicode="&#x4e86;" vert-adv-y="1200" 
d="M241 673l416 28l22 29l118 -83l-259 -185l-1 -1l112 -75l-24 -458l-353 46l11 77l195 -15l2 297l-72 89l174 179l5 6l-340 -49z" />
    <glyph glyph-name="uni4E70" unicode="&#x4e70;" vert-adv-y="1200" 
d="M842 272l6 -81l-253 -25l-264 -289l-102 112l218 163l-319 -30l-10 82l390 36l41 303l161 -33l-86 -259zM766 778l82 -23l-70 -232l-76 23l34 125l-572 -54l-12 79l607 59zM639 122l242 -150l-51 -88l-244 145zM187 423l167 -59l-34 -104l-168 59zM421 414l-165 86l89 74
l124 -110z" />
    <glyph glyph-name="uni758B" unicode="&#x758b;" vert-adv-y="1200" 
d="M789 407l6 -85l-217 -4l9 -200l342 -96l-30 -101l-644 179l-57 -173l-134 47l152 463l134 -50l-61 -185l162 -46l-19 444l-246 -48l-19 129l643 47l-32 -217l-139 32l26 103l-100 -20l9 -224z" />
    <glyph glyph-name="uni4E66" unicode="&#x4e66;" vert-adv-y="1200" 
d="M618 102l111 -52l39 253l-316 -19l25 -386l-151 -11l-3 389l-221 -14l-7 81l228 13l-2 224l-144 -12l-6 82l150 12l-1 118l99 10l8 -120l160 13l1 2l116 -19l-38 -289l115 7l3 18l148 -44l-76 -417l-141 21l1 10l-134 60zM447 364l68 4l53 232l-136 -11zM828 568
l-120 165l129 46l60 -170z" />
    <glyph glyph-name="uni4E88" unicode="&#x4e88;" vert-adv-y="1200" 
d="M349 491l82 76l41 -37l77 105l-294 -35l-12 77l368 42l34 46l98 -72l-181 -244l20 -17l-7 -4h2l300 33l-37 -193l-72 10l-8 110l-134 -29l24 -479l-148 -6l-1 8l-198 31l12 77l183 -31l-18 368l-330 -71l-27 122l340 37z" />
    <glyph glyph-name="uni752C" unicode="&#x752c;" vert-adv-y="1200" 
d="M301 180h122l-4 81l-135 5v81l131 -4l-2 52l-159 -26l-1 5l-10 -459h-118l6 540h124v-2l216 33l-205 93l29 75l99 -44l89 95l-344 -16l-6 80l430 22l39 43l103 -100l-170 -187l21 -9l-20 -42l85 14l-2 12l145 29l110 -511l-4 -1h1l-119 -187l-105 49l81 135l-14 62h-142
l7 -144l-145 -6l-7 150h-126v82zM565 257l3 -77h127l-29 131v-57zM561 339l99 -3l-22 97l-81 -13z" />
    <glyph glyph-name="uni52C7" unicode="&#x52c7;" vert-adv-y="1200" 
d="M338 354h127l-3 50h-107v61h103l-3 47l-117 -17l-11 70l132 18l-86 47l41 69l44 -24l-4 6l59 42l-250 -24l-11 82l393 35l32 23l69 -92l-181 -129l29 -16l109 16v4l115 14l41 -406l-115 -12l-34 331l-110 -16l4 -68h76v-61h-72l3 -50h92v-60h-88l2 -35l-69 -6l33 -40
l-25 -24h128l1 7l95 -7h3l66 -5l-31 -326l-162 12l1 13l-184 62l5 32l186 -8l13 140h-205l-256 -244l-56 58l194 186h-97v80h180l62 59l-27 -2l-3 48h-131v60zM173 239l-32 315h161v-315h-129z" />
    <glyph glyph-name="uni4E00" unicode="&#x4e00;" vert-adv-y="1200" 
d="M167 308v82l665 52v-109z" />
    <glyph glyph-name="uni4E03" unicode="&#x4e03;" vert-adv-y="1200" 
d="M439 704l13 -223l476 70l17 -99l-487 -70l20 -327l246 37l100 148l95 -22l-23 -264l-499 7v1l-78 -6l-25 403l-229 -33l-11 97l234 34l-14 237z" />
    <glyph glyph-name="uni4E0E" unicode="&#x4e0e;" vert-adv-y="1200" 
d="M787 549l-371 -28v-132l327 5l6 29l158 -32l-93 -490l-65 14v-3l-56 14l-38 8v2l-148 37l16 71l146 -37l60 311l-481 -10v78h6l39 372l123 -13v-147l366 30zM92 210l23 1q23 1 61 2t86 2t99 3q119 3 270 7l10 -77l-532 -86z" />
    <glyph glyph-name="uni4E08" unicode="&#x4e08;" vert-adv-y="1200" 
d="M799 609l5 -76l-209 -18l-100 -264l407 -155l-85 -180l-373 199l-79 -211l-198 66l113 233l-182 98l47 85l189 -73l91 188l-225 -18l-6 78l271 21l101 209l121 -31l-62 -165z" />
    <glyph glyph-name="uni4E1C" unicode="&#x4e1c;" vert-adv-y="1200" 
d="M329 28l209 -38l-20 280l-109 -15l-2 -14l-53 7h-3v1l-99 14l44 301l-94 -4l-5 77l111 4l21 144l155 -21l-17 -116l248 11v-76l-260 -12l-35 -241l93 14l-8 124l131 10l8 -115l108 17l12 -78l-115 -15l6 -78l246 -71l-32 -105l-206 60l13 -175l-109 -6l-1 -7l-254 45z
M214 253l88 -50l-115 -215l-88 50z" />
    <glyph glyph-name="uni4E0A" unicode="&#x4e0a;" vert-adv-y="1200" 
d="M517 665l13 -250l217 40l13 -76l-225 -43l12 -227l355 12l5 -77l-815 -28v78l290 9l-30 551z" />
    <glyph glyph-name="uni4E11" unicode="&#x4e11;" vert-adv-y="1200" 
d="M614 670l141 -10l-40 -590l193 4v-74l-817 -15v73l223 4l7 186l-136 -18v96l140 16l6 172l157 -1l-28 -156l133 15l15 211l-428 -65l-10 74l443 66zM409 64l164 3l14 216l-143 -19z" />
    <glyph glyph-name="uni4E16" unicode="&#x4e16;" vert-adv-y="1200" 
d="M306 665l15 -186l128 10l-33 239l114 16l34 -247l102 8l-25 166l136 20l27 -176l110 9l5 -74l-104 -8l30 -196l-106 -16l-133 -36l3 -21l-114 -15l-36 257l-132 -10l30 -365l536 23v-73l-530 -23l2 -24l-137 -16l-37 468l-105 -8l-5 75l104 7l-15 186zM595 271l103 28
l-21 133l-103 -8z" />
    <glyph glyph-name="uni4E14" unicode="&#x4e14;" vert-adv-y="1200" 
d="M362 692l1 -23h271l1 18h105l-22 -643l224 5v-83l-892 -17v82l204 4l-45 646zM617 474l5 -83h-239l10 -136l227 27l11 305h-262l8 -113h240zM409 38l203 4l5 156l-218 -28z" />
    <glyph glyph-name="uni4E1B" unicode="&#x4e1b;" vert-adv-y="1200" 
d="M600 673l159 -48l-110 -234l297 -122l-74 -159l-270 180l-85 -181l-93 39zM325 628l-55 -223l189 -96l-47 -107l-171 89l-45 -184l-132 29l158 523zM868 -28l-717 -29l-6 72l718 30z" />
    <glyph glyph-name="uni4E1D" unicode="&#x4e1d;" vert-adv-y="1200" 
d="M513 130l146 286l-151 33l80 315l139 -46l-109 -230l72 -13l67 131l117 -87l-186 -288l189 27l23 -112zM104 120l162 285l-179 33l108 299l136 -52l-103 -214l69 -12l55 96l93 -28l-156 -308l153 20l16 -103zM172 -90v135l678 11l10 -114z" />
    <glyph glyph-name="uni4E1E" unicode="&#x4e1e;" vert-adv-y="1200" 
d="M193 724l478 12l-176 -249l80 -204l-74 -238l217 4l10 -114l-466 -28v135l113 1l92 230l-104 287l89 37l9 -25l46 89l-286 -61zM89 292l-18 120l291 -3l-169 -388l-121 71l168 222zM770 512l65 -46l-91 -124l184 -104l-108 -130l-238 238l41 66l54 -31z" />
    <glyph glyph-name="uni4E9F" unicode="&#x4e9f;" vert-adv-y="1200" 
d="M397 538l103 30l63 125l-310 -82l-25 107l469 40l-155 -266l77 -282l-104 -212l259 8v-81l-526 -17v81l204 7l-39 26l100 188zM204 441l2 -19l111 9v4l81 6l6 -313l-41 -3l-126 -23l2 -20l-127 -12l-41 359zM809 498l22 -7l6 1v-3l49 -14l-61 -198l113 -34l-61 -160
l-93 62l-27 -88l-80 25l35 111l-95 65l22 75l107 -33l34 106l-105 -18l-11 81l142 19zM229 183l92 18l-3 148l-104 -8z" />
    <glyph glyph-name="uni4E01" unicode="&#x4e01;" vert-adv-y="1200" 
d="M856 716l6 -78l-256 -24l109 -353l-206 -349l-112 66l157 264l-133 355l-279 -25l-5 77z" />
    <glyph glyph-name="uni4E0C" unicode="&#x4e0c;" vert-adv-y="1200" 
d="M915 607l5 -76l-161 -4l75 -583l-201 -5l-6 584l-251 -6l-126 -570l-139 28l115 538l-141 -3l-5 75z" />
    <glyph glyph-name="uni4E09" unicode="&#x4e09;" vert-adv-y="1200" 
d="M106 -15v98l780 45l7 -150zM215 575l16 142l488 -24l13 -99zM283 399h370v-97h-370v97z" />
    <glyph glyph-name="uni4E07" unicode="&#x4e07;" vert-adv-y="1200" 
d="M915 683l5 -76l-308 -14l-41 -67l161 -58l2 6l137 -44l-172 -528l-131 45v2l-142 85l37 66l129 -76l117 372l-178 64l-283 -468l-168 105l378 490l-330 -14l-5 77z" />
    <glyph glyph-name="uni4E0D" unicode="&#x4e0d;" vert-adv-y="1200" 
d="M75 193l340 400l-276 -16l-6 72l718 43l5 -73l-306 -18l-101 -153l93 8l9 -116l373 -105l-21 -73l-346 102l27 -322l-142 -10l-32 456l-199 -301z" />
    <glyph glyph-name="uni4E15" unicode="&#x4e15;" vert-adv-y="1200" 
d="M836 641l-291 -17l-96 -146l88 8l7 -110l357 -100l-20 -70l-332 97l18 -247l-135 -10l-22 374l-188 -285l-130 101l323 380l-262 -15l-6 69l684 41zM927 -7l-774 -39l-6 69l775 40z" />
    <glyph glyph-name="uni4E10" unicode="&#x4e10;" vert-adv-y="1200" 
d="M274 556l28 -222l133 8l-32 315l-195 -2v78l566 5v-77l-227 -3l12 -112h166l5 -78h-162l13 -117l140 8l4 16l49 -12l88 -21l-99 -461l-143 32l1 8l-247 66l16 67l260 -6l54 235l-392 -27l1 -3l-138 -20l-38 307z" />
    <glyph glyph-name="uni4E25" unicode="&#x4e25;" vert-adv-y="1200" 
d="M254 682v91l506 10v-84l-79 -3l-2 -154l159 88l41 -69l-168 -93l-33 57l-2 -118l179 9l5 -80l-409 -21l-81 -425l-183 33l113 385l-179 -9v82l228 11l-19 292zM499 399l62 3l4 290l-85 -3zM222 443l-91 122l117 62l44 -143z" />
    <glyph glyph-name="uni4E19" unicode="&#x4e19;" vert-adv-y="1200" 
d="M813 504l3 -49l68 -344l-89 -215l-118 47l62 171l-41 304l-189 -17l-22 -96l210 -79l-35 -99l-198 79l-29 -126l-98 26l69 285l-129 -12l43 -411l-156 -14l-48 487l153 16v-5l155 15l35 147l-295 -10v72l581 21l4 -73l-190 -7l-33 -140z" />
    <glyph glyph-name="uni4E3D" unicode="&#x4e3d;" vert-adv-y="1200" 
d="M599 48l-80 -6l-31 492l186 29v2l71 10l55 8l-4 -2l70 -447l-123 -245l-73 28l66 211l-15 105l-136 47zM473 89l-82 -12l-27 170l-97 8l27 -213l-144 -6l-16 509l95 14l5 -38l169 8l1 -13zM750 663l-579 -37l-5 82l579 33zM595 344q15 -4 34.5 -9t40.5 -11q19 -5 40 -11
l-25 175l-111 -17l7 -124q6 -1 14 -3zM257 337l94 -8l-18 114l-89 -4z" />
    <glyph glyph-name="uni4E24" unicode="&#x4e24;" vert-adv-y="1200" 
d="M95 14l6 490l103 4l1 -21l102 12l42 144l87 -24l-30 -109l113 14l22 114l92 -19l-17 -84l112 14l71 16l106 -411l-155 -250l-120 73l126 208l-77 280l-78 -10l-20 -100l141 -78l-36 -70l-121 65l-24 -127l-92 17l54 281l-120 -15l-13 -45l101 -48l-33 -74l-88 49
l-30 -107l-92 23l55 189l-73 -9l25 -385zM725 758l5 -80l-554 -46l-7 79z" />
    <glyph glyph-name="uni4E59" unicode="&#x4e59;" vert-adv-y="1200" 
d="M718 704l10 -77l-59 -10h8l-339 -456l93 -99l324 20l37 160l84 14l26 -265l-618 -18l-121 199l291 408l-347 -58l-10 77z" />
    <glyph glyph-name="uni4E5C" unicode="&#x4e5c;" vert-adv-y="1200" 
d="M642 644l136 -16l-63 -424l-125 14l-1 -2l-10 4l-109 42l19 68l101 -34l35 233l-277 -63l-2 -389l594 47v-149l-721 2l-25 454l-118 -27l-16 68l130 31l-10 199l170 16l-1 -177l288 68z" />
    <glyph glyph-name="uni4E5F" unicode="&#x4e5f;" vert-adv-y="1200" 
d="M473 728l136 -10l-10 -159l159 32l3 32l136 -10l-31 -423l-95 6v-2l-10 3l-32 2v7l-115 36l21 68l100 -31l18 235l-159 -30l-16 -258l-137 9l14 222l-118 -23l9 -380l594 49v-152l-721 5l-42 447l-102 -20l-16 68l112 22l-9 96l171 16l2 -79l125 25z" />
    <glyph glyph-name="uni4E61" unicode="&#x4e61;" vert-adv-y="1200" 
d="M177 519l212 264l115 -66l-139 -200l85 -22l184 149l66 -82l-330 -268l266 16l108 147l115 -82l-295 -405l3 -6l-340 -72l-44 79l285 112l87 118l-405 -24l-10 103l48 3l170 137z" />
    <glyph glyph-name="uni4E69" unicode="&#x4e69;" vert-adv-y="1200" 
d="M423 377l12 -1l15 1v-2l47 -3l-22 -299v-46h-234l4 -26l-131 -17l-53 388l131 15l3 -25l30 2l-59 314l123 11l7 -123h148v-74h-144l7 -123l116 6v2zM561 7l38 627h82l9 -537l139 14l-20 99l61 14l68 -191zM231 100h173l14 202l-213 -13z" />
    <glyph glyph-name="uni4E73" unicode="&#x4e73;" vert-adv-y="1200" 
d="M501 284l22 -69l-83 -28l-42 -269l-235 13l7 76l127 13l22 126l-232 -78l-20 75l250 81l-54 62l39 76l-132 -43l-20 113l296 13l-81 -147l47 -43zM560 2l16 599l148 -19l-74 -510l173 13l5 130l64 12l56 -225h-388zM460 833l20 -94l-386 -94l-22 89zM475 718l84 -42
l-99 -189l-85 48zM140 649l90 -135l-90 -57l-89 135zM266 671h73v-126h-73v126z" />
    <glyph glyph-name="uni80E4" unicode="&#x80e4;" vert-adv-y="1200" 
d="M423 362v-1l79 8v4l74 10l52 -361l-11 -2l-94 -119l-57 48l83 101l-6 41l-99 -7l11 -146l-137 -10l-30 424zM646 33l10 587h74l28 -510l105 16l16 92l68 8l18 -172zM486 644l59 -52l-125 -131l103 12l-16 40l69 33l52 -126l-68 -32l-10 23l-241 -28l-12 64l6 1l91 97
l-122 24l130 211l106 -47l-119 -137l44 -9zM199 236l-85 395l102 9l54 -419l-129 -247l-106 84zM439 147l95 7l-8 53l-91 -6zM430 263l87 6l-9 59l-82 -7z" />
    <glyph glyph-name="uni4E5E" unicode="&#x4e5e;" vert-adv-y="1200" 
d="M680 417l11 -76l-43 -4l-232 -279l51 -69l266 34l17 104l73 -7l19 -187l-520 -16l-84 140l200 262l-193 -17l-5 76zM763 642l5 -76l-452 -17l-102 -128l-57 32l152 331l141 -67l-70 -88z" />
    <glyph glyph-name="uni4E36" unicode="&#x4e36;" vert-adv-y="1200" 
d="M502 245l-109 211l160 42l53 -238z" />
    <glyph glyph-name="uni4E4B" unicode="&#x4e4b;" vert-adv-y="1200" 
d="M104 500q2 0 28 1t66.5 2.5t92 3t104.5 3.5q111 3 249 7l76 60l58 -74l-448 -352l289 -131l244 102l55 -63l-278 -168l-431 165l-70 -55l-57 79l439 342l-393 -64zM403 772l148 -122l-53 -71l-172 71z" />
    <glyph glyph-name="uni4E3B" unicode="&#x4e3b;" vert-adv-y="1200" 
d="M701 312l5 -73l-132 -11l4 -205l314 14l5 -105l-795 -6v77l303 13l-4 198l-146 -11l-6 81l150 9l-4 207l-224 -8v95l574 1v-74l-177 -7l4 -203zM477 630l-127 128l134 59l72 -138z" />
    <glyph glyph-name="uni4E49" unicode="&#x4e49;" vert-adv-y="1200" 
d="M677 583l62 -55l-202 -219l350 -215l-141 -178l-324 269l-238 -257l-56 55l232 253l-248 206l64 90l290 -179zM446 535l-138 197l134 49l73 -184z" />
    <glyph glyph-name="uni4E3A" unicode="&#x4e3a;" vert-adv-y="1200" 
d="M805 573l70 -451l-226 -237l-92 92l185 191l-45 299l-206 -27l-192 -483l-175 81l213 382l-174 -22l-12 82l236 30l126 225l83 -32l-70 -176l158 20l-1 9zM486 340l163 -115l-77 -103l-160 116zM295 565l-157 125l132 85l88 -156z" />
    <glyph glyph-name="uni8671" unicode="&#x8671;" vert-adv-y="1200" 
d="M177 429l3 -36l112 19l-5 62l-110 -1l-7 77l365 6l5 -78l-159 -2l3 -49l69 12l-1 7l77 16l50 -264l-78 -17l-2 8l-96 -6l7 -90l95 16l-4 44l78 11l15 -214l-75 -6l-7 75l-352 -58l-17 88l173 28l-8 101l-108 -7l4 -35l-116 -10l-33 286zM131 608l-27 110l622 50l-34 -522
l253 -208l-108 -120l-228 287l-31 472zM194 236l110 7l-7 101l-111 -19zM398 249l89 5l-22 119l-76 -13z" />
    <glyph glyph-name="uni516B" unicode="&#x516b;" vert-adv-y="1200" 
d="M204 480l142 -39l-173 -416l-90 39zM619 640l297 -545l-141 -74l-294 545z" />
    <glyph glyph-name="uni516D" unicode="&#x516d;" vert-adv-y="1200" 
d="M621 188l140 69l141 -222l-85 -62zM159 4l154 304l131 -67l-213 -276zM554 506l-176 158l135 86l133 -178zM929 479v-78l-858 -22v78z" />
    <glyph glyph-name="uni5171" unicode="&#x5171;" vert-adv-y="1200" 
d="M796 618l5 -81l-96 -7l-30 -188l259 11v-81l-868 -34v81l261 10l-29 171l-121 -8l-7 80l115 8l-21 128l143 15l5 -133l187 13l22 137l116 -18l-18 -110zM323 209l109 -77l-169 -241l-110 81zM664 185l226 -213l-72 -76l-226 219zM421 332l135 6l29 183l-170 -12z" />
    <glyph glyph-name="uni5174" unicode="&#x5174;" vert-adv-y="1200" 
d="M894 375l5 -81l-811 -53l-5 81l424 28l242 330l91 -63l-186 -258zM685 224l232 -219l-93 -94l-226 220zM331 188l69 -21l-134 -269l-126 82zM305 414l-169 183l126 76l113 -214zM459 487l-59 185l105 30l36 -190z" />
    <glyph glyph-name="uni5175" unicode="&#x5175;" vert-adv-y="1200" 
d="M326 695l1 -6l391 93l18 -81l-392 -94l19 -98l448 28v-77l-104 -4v-194l198 5l1 -62l-812 -39l-1 83l177 4l-84 414zM414 256l189 4v193l-227 -8zM343 162l92 -70l-146 -202l-91 70zM654 149l175 -179l-59 -52l-173 174z" />
    <glyph glyph-name="uni5178" unicode="&#x5178;" vert-adv-y="1200" 
d="M241 651l3 -20l105 7l-14 123l80 13l16 -130l115 8l-3 156l82 6l2 -157l99 7l1 10l57 -6l7 1v-1l52 -5l-29 -392l105 4v-81l-839 -28v81l114 4l-69 378zM653 166l203 -152l-70 -97l-208 150zM168 3l150 154l95 -49l-117 -199zM312 255l83 2l-17 143l-92 -2zM477 260l76 3
l-3 141l-90 -2zM634 265l63 2l10 140l-75 -2zM450 482l99 3l-2 85l-106 -7zM630 487l83 2l7 93l-91 -6zM277 478l91 2l-9 77l-100 -7l18 -100v28z" />
    <glyph glyph-name="uni5177" unicode="&#x5177;" vert-adv-y="1200" 
d="M347 747l1 -20l259 11v2h82v-489l189 3v-80l-757 -12v82l118 1l-26 495zM200 2l159 146l62 -41l-127 -182zM624 139l186 -157l-53 -63l-185 156zM354 597l253 4v68l-256 -13zM372 247l235 3v56l-238 -8zM360 477l247 7v47l-249 -4zM366 367l241 9v39l-243 -8z" />
    <glyph glyph-name="uni5176" unicode="&#x5176;" vert-adv-y="1200" 
d="M425 765l2 -96l179 10l-1 81h80l1 -77l156 9l6 -82l-161 -9l4 -369l185 7v-82l-410 -12l-130 -264l-135 81l174 180l-280 -8v76l219 8l-12 363l-126 -6l-6 80l130 7l-3 98zM662 147l242 -163l-62 -93l-244 163zM440 222l170 7l-1 77l-171 -3zM431 528h176l-1 69l-176 -9z
M436 385l172 3v59h-174z" />
    <glyph glyph-name="uni5180" unicode="&#x5180;" vert-adv-y="1200" 
d="M713 814l60 -76l-190 -48l3 -73l163 -9l136 87l48 -32l-160 -180l-103 29l54 -248l-72 -15l-3 12l-244 -15l13 -49l147 6l7 36l71 -9l-5 -24l100 4l6 -51l-116 -5l-12 -63l272 4v-71l-492 -6l6 -4l-99 -150l-66 45l77 108l-247 -3v71l276 3l-15 55l-100 -4l-5 51l91 3
l-9 33l-87 -7l-15 278l-96 -27l-20 69l167 47l-4 76l-171 -4l5 90l163 -15l-4 81l99 6l15 -290l-49 -3l-98 -28l122 11v-13l269 14l43 9l-155 44l10 6h-11l-10 250l100 5l2 -68zM764 -56l-47 -80l-129 75l40 75zM612 405v-51h-81l1 -49l107 6l-31 151l-79 -4l1 -53h82z
M446 89l98 1l11 62l-124 -5zM344 293l87 5l-1 56h-89zM338 405h91l-1 48l-93 -5z" />
    <glyph glyph-name="uni516C" unicode="&#x516c;" vert-adv-y="1200" 
d="M642 251l179 -284l-87 -50l-67 108l-429 -98l136 438l139 -57l-117 -249l223 44l-58 95zM505 635l59 82l399 -293l-99 -146zM291 708l102 -59l-253 -428l-104 64z" />
    <glyph glyph-name="uni516E" unicode="&#x516e;" vert-adv-y="1200" 
d="M278 297l-13 109l435 9v-65l-183 -23l-19 -154h195l-60 -282l-97 11l23 187l-180 -20l-24 237zM505 685l56 76l380 -278l-96 -140zM301 776l97 -55l-243 -407l-97 60z" />
    <glyph glyph-name="uni5206" unicode="&#x5206;" vert-adv-y="1200" 
d="M425 6l127 -10l-18 291l-98 -10l-131 -347l-123 75l169 263l-102 -10l-6 78l286 28v4l182 17l27 -456l-166 -10v-1l-7 1l-8 -1v1l-138 9zM507 672l56 76l380 -278l-94 -138zM304 764l100 -61l-248 -407l-99 62z" />
    <glyph glyph-name="uni52F9" unicode="&#x52f9;" vert-adv-y="1200" 
d="M323 780l115 -66l-58 -100l400 34v-4l44 4l73 -672l-65 -5l1 -4h-41l-23 -2v2h-201v53l190 41l-53 503l-372 -31l-121 -209l-110 65z" />
    <glyph glyph-name="uni52FA" unicode="&#x52fa;" vert-adv-y="1200" 
d="M470 38l184 -45l55 574l-396 -13l-74 -159l-121 55l164 357l122 -55l-55 -119l367 12l1 7l52 -5l25 1v-3l88 -8l-72 -748l-164 16l1 10l-200 51zM244 323l270 -28l-12 -115l-269 28z" />
    <glyph glyph-name="uni52FF" unicode="&#x52ff;" vert-adv-y="1200" 
d="M566 38l83 -26l135 451l-430 90l-201 -273l-98 70l323 435l95 -70l-68 -93l400 -88l3 10l137 -39l-181 -610l-138 39l1 5l-83 28zM566 468l99 -51l-247 -489l-99 50zM405 511l95 -57l-176 -322l-98 55z" />
    <glyph glyph-name="uni52FE" unicode="&#x52fe;" vert-adv-y="1200" 
d="M513 11l161 -22l41 558l-393 -14l-100 -159l-110 66l226 363l110 -70l-76 -121l348 13l2 18l165 -10l-55 -743l-164 11l1 11l-167 22zM551 356l100 -246l-110 -45l-26 69l-290 -70l55 315l144 3l-78 -197l134 47l-32 88z" />
    <glyph glyph-name="uni5300" unicode="&#x5300;" vert-adv-y="1200" 
d="M483 38l168 -23l62 522l-381 -9l-107 -171l-110 72l220 358l116 -68l-71 -114l342 7l3 21l159 -19l-82 -697l-160 17v4l-170 24zM544 269l44 -66l-336 -203l-38 65zM351 445l154 -84l-49 -97l-160 83z" />
    <glyph glyph-name="uni53E5" unicode="&#x53e5;" vert-adv-y="1200" 
d="M491 38l168 -23l57 531l-418 -13l-1 8l-80 -113l-111 77l225 308l105 -77l-89 -125l377 12l3 24l166 -15l-78 -715l-164 16v5l-171 23zM359 423l1 -8l167 10l1 13h78l-11 -336h-77v13l-112 -19l2 -15l-127 -16l-48 341zM394 174l127 22l4 151l-154 -9z" />
    <glyph glyph-name="uni65EC" unicode="&#x65ec;" vert-adv-y="1200" 
d="M506 22l165 -29l51 576l-418 -14l-95 -137l-105 71l225 330l110 -71l-80 -114l370 12l2 19l165 -11l-66 -759l-92 10l-1 -5l-60 11l-13 1v1l-176 31zM356 434v-2l150 10v8h76v-378h-72l-121 -14l1 -4l-127 -17l-32 386zM369 284l137 11v68l-143 -8zM383 134l123 10v74
l-130 -10z" />
    <glyph glyph-name="uni7538" unicode="&#x7538;" vert-adv-y="1200" 
d="M505 27l166 -30l51 577l-431 -14l-3 32l-85 -92l-100 93l232 237l93 -88l-97 -104l397 12l2 15l166 -12l-66 -758l-166 17v6l-174 32zM253 477l2 -25l245 22v3l78 6l5 -412l-78 -5v5h-208l5 -44l-127 -12l-49 445zM427 148h77l-1 86l-77 -1zM425 311l77 1l-1 86l-77 -7z
M271 309l77 1l-1 73l-83 -8zM289 148h61l-1 84l-69 -1z" />
    <glyph glyph-name="uni8A07" unicode="&#x8a07;" vert-adv-y="1200" 
d="M256 819l121 -56l-47 -92l440 23l131 -517l-156 -296l-140 69l159 230l-83 431l-391 -23l-1 5l-67 -132l-123 64zM319 165l3 -17h228v-178h-68v8l-131 -10l3 -16l-103 -19l-37 215zM383 565l116 -116l-9 -9l119 3l5 -64l-190 -5l-238 -6l-6 65l181 4l-53 53zM233 252
l324 -11v-63l-324 11v63zM550 346l7 -65l-313 -12l-5 64zM341 31l141 10v44h-150z" />
    <glyph glyph-name="uni5305" unicode="&#x5305;" vert-adv-y="1200" 
d="M216 818l121 -38l-28 -87l414 14l54 7l66 -534l-59 -7l1 -2l-206 -37l-9 44l131 66l-48 384l-368 -13l-86 -274l-120 37zM319 393v61l266 11v-265l-14 -2l1 -2l-200 -24l22 -188l413 29l-22 119l136 17v-202l-682 -23l-8 448h118l14 -123l128 16l2 135z" />
    <glyph glyph-name="uni5306" unicode="&#x5306;" vert-adv-y="1200" 
d="M557 47l85 -25l129 435l-408 85l-194 -265l-93 68l307 415l90 -69l-62 -84l381 -80v1l8 -2l66 -14l-1 -4l59 -16l-174 -581l-73 21l-57 16l1 3l-85 28zM421 519l94 -48l-91 -172l51 -20l97 187l95 -47l-93 -180l51 -20l-43 -102l-57 28l-104 -202l-94 52l102 196l-49 25
l-53 -100l-90 47l50 98l-57 28l39 73l58 -24z" />
    <glyph glyph-name="uni5308" unicode="&#x5308;" vert-adv-y="1200" 
d="M176 486l113 309l123 -41l-70 -110l457 46l109 -512l-168 -312l-95 42l122 292l-61 405l-408 -29l-69 -108zM196 325l55 -241l261 45l8 110l-80 -80l-90 76l-62 -75l-59 48l63 76l-116 100l52 53l126 -79l105 126l61 -44l-102 -123l103 -64l5 72h76l-21 -330h-78l4 55
l-351 -62l-4 29l-61 281z" />
    <glyph glyph-name="uni530D" unicode="&#x530d;" vert-adv-y="1200" 
d="M141 475l125 310l137 -40l-74 -104l452 49l133 -516l-198 -309l-87 53l136 287l-87 400l-398 -34l-80 -113zM444 501l1 -68l214 7l6 -55l-219 -8l1 -35l74 8v2l94 6l16 -353l-93 -6l-5 93l-81 -7l3 -118h-110l-3 108l-86 -8l-5 54l90 6l-1 46l-67 -9l-11 56l77 10l-1 44
l-71 -10l-5 56l75 9l-1 45l-146 -5l-5 56l150 5l-1 71h110zM86 330h154v-331h-154v331zM475 489l87 34l21 -81l-60 -4zM451 135l80 6l-3 59l-78 -11zM449 245l76 11l-2 45l-75 -11z" />
    <glyph glyph-name="uni5310" unicode="&#x5310;" vert-adv-y="1200" 
d="M378 786l-38 -52l575 13l-30 -889l-299 28l-2 12q-1 5 -1 12v13q0 5 0.5 10t2.5 7t30.5 5t62.5 6q40 4 89 7l-7 673l-486 13l-112 -156l-78 56l211 297zM316 -56l-138 -20l-54 317l137 22l4 -24l299 18v6h76v-308h-76v5h-251zM542 488l-12 -203h-76v4l-118 -3l-85 -12
l-28 193l110 16l3 -25l128 22l1 8h77zM536 509l-307 -15l-6 65l307 18zM351 353l106 2l3 57l-114 -20zM469 28h95v56l-97 -6zM283 134l103 6l-1 40l-109 -6zM301 28h90l-2 46l-95 -6zM464 145l100 6v39l-102 -6z" />
    <glyph glyph-name="uni5201" unicode="&#x5201;" vert-adv-y="1200" 
d="M876 149h-1l-214 -248l-97 83l147 145l-76 480l-410 -35l-9 70l570 48l1 -6l4 1l85 -537v-1zM578 362l-347 -178l-42 78l340 179z" />
    <glyph glyph-name="uni4E60" unicode="&#x4e60;" vert-adv-y="1200" 
d="M752 733l1 -8l5 1l94 -592l-14 -2l-232 -270l-107 92l203 200l-78 485l-427 -50l-10 78zM509 315l40 -66l-369 -192l-32 65zM244 446l93 99l121 -129l-54 -67z" />
    <glyph glyph-name="uni53F8" unicode="&#x53f8;" vert-adv-y="1200" 
d="M236 579l-3 127l496 18l110 -490l-138 -314l-74 19l93 300l-60 386zM308 364v-5h166v5h76v-275h-44l-167 -15l2 -13l-105 -10l-38 301zM572 518l7 -77l-413 -33l-5 76zM331 152l143 12v117h-157z" />
    <glyph glyph-name="uni5315" unicode="&#x5315;" vert-adv-y="1200" 
d="M701 600l39 -100l-430 -155l25 -238l350 48l28 170l96 3l36 -293l-689 -10l-2 626l124 11l22 -215z" />
    <glyph glyph-name="uni5317" unicode="&#x5317;" vert-adv-y="1200" 
d="M770 579l48 -61l-159 -143l15 -250l155 37v191l97 3l35 -322l-454 -29l4 328l-4 5l4 4l5 348l124 12l13 -230zM57 359v118h208l3 164h136l-10 -626h-137l1 66l-186 -80l-31 121l218 39l4 234z" />
    <glyph glyph-name="uni9B2F" unicode="&#x9b2f;" vert-adv-y="1200" 
d="M674 216l26 -71l-253 -90l16 -82l272 49l9 92l87 12l30 -211l-556 -15v316l111 9l17 -91zM181 226l-79 365l150 22l43 -288l449 29l-6 -71zM308 451l-13 83l57 25l40 -86l48 84l-121 83l75 65l90 -71l82 144l96 -54l-88 -160l129 -100l-35 -62l-134 91l-37 -68l40 18
l55 -48l-55 -45l-44 67l-44 -79l-103 54l40 70zM764 595l113 -11l-22 -336l-112 10zM634 566l14 74l101 -20l-17 -98zM422 755l41 51l73 -39l-38 -64z" />
    <glyph glyph-name="uni51AB" unicode="&#x51ab;" vert-adv-y="1200" 
d="M149 29l-106 126l272 176l51 -43zM155 628l143 -110l-67 -88l-143 115z" />
    <glyph glyph-name="uni51AF" unicode="&#x51af;" vert-adv-y="1200" 
d="M825 705l-71 -338l29 1l2 11l138 -16l-55 -430l-138 16v4l-110 23l17 73l103 -23l33 263l-236 -6v-14h-138l9 343l-26 -2l-5 78l341 31l2 8zM539 360l105 3l58 278l-156 -15zM31 181l259 168l48 -41l-206 -247zM725 148l-376 -53l-11 77l377 53zM274 527l-64 -84
l-136 110l63 79z" />
    <glyph glyph-name="uni51B0" unicode="&#x51b0;" vert-adv-y="1200" 
d="M512 121l63 -38l-27 640l116 5l12 -290l22 -21l118 139l57 -49l-124 -139l218 -206l-79 -83l-205 194l12 -294l-77 -3l-1 -2l-3 2l-34 -2l-1 23l-103 61zM443 514l100 -42l-172 -435l-104 37l128 320l-87 -17l-16 74l136 25zM121 88l-88 80l192 168l47 -42zM155 660
l142 -158l-68 -57l-141 153z" />
    <glyph glyph-name="uni51B2" unicode="&#x51b2;" vert-adv-y="1200" 
d="M935 289l-32 -8v-3l-18 -1l-18 -4l-1 3l-117 -5l16 -341l-136 -5l-16 339l-113 -5l3 -26l-71 -21l-78 318l47 12v4h18l47 13l1 -11l132 4l-6 135l136 5l6 -135l97 3l56 12zM30 165l259 168l46 -43l-204 -245zM273 511l-64 -84l-136 110l63 79zM491 331l118 6l-6 141
l-128 -5zM745 344l108 6l-25 137l-89 -4z" />
    <glyph glyph-name="uni51B3" unicode="&#x51b3;" vert-adv-y="1200" 
d="M388 301l109 7l47 196l-125 -6v73l143 7l34 141l112 -22l-29 -113l91 5l3 13l130 -27l-45 -241l89 6v-110l-359 7l-79 -305l-99 16l70 291l-95 2zM58 162l259 168l48 -41l-206 -247zM946 7l-82 -90l-191 179l86 89zM609 316l111 8l36 191l-97 -5zM301 508l-64 -84
l-136 110l63 79z" />
    <glyph glyph-name="uni51B1" unicode="&#x51b1;" vert-adv-y="1200" 
d="M366 554v133h472v-62l-234 -35l-29 -126l152 10l5 19l126 -31l-96 -390l196 2v-89h-628v84l300 2l23 97l-217 25l14 373zM143 68l-101 120l261 167l47 -40zM156 639l162 -151l-73 -79l-162 152zM529 265l150 11l30 123l-151 -11z" />
    <glyph glyph-name="uni51B6" unicode="&#x51b6;" vert-adv-y="1200" 
d="M505 312l3 -23l265 18l1 10h115l-11 -335h-115v17l-216 -14l1 -9l-121 -14l-47 334zM828 613l105 -205l-100 -52l-29 56l-455 -51l162 382l114 -55l-115 -211l242 36l-24 48zM537 57l229 15l5 160l-254 -16zM39 170l259 168l48 -41l-206 -247zM282 516l-64 -84l-136 110
l63 79z" />
    <glyph glyph-name="uni51B7" unicode="&#x51b7;" vert-adv-y="1200" 
d="M588 807l68 -58l-5 -5l303 -259l-100 -121l-302 259l-199 -240l-67 57zM711 -104l-195 102l67 103l36 -31l27 135l-224 -24l-18 84l376 17l-81 -279l36 -30zM38 166l234 169l48 -41l-181 -248zM583 503l122 -94l-79 -95l-117 95zM256 513l-64 -84l-136 110l63 79z" />
    <glyph glyph-name="uni6B21" unicode="&#x6b21;" vert-adv-y="1200" 
d="M527 749l-10 -112l281 -18l13 28l109 -45l-124 -279l-110 50l81 178l-255 16l5 70l-30 -332l-129 11l39 443zM681 392l-53 -166l297 -167l-65 -115l-271 157l-48 -153l-95 30l141 444zM53 142l259 168l48 -41l-206 -247zM296 488l-64 -84l-136 110l63 79z" />
    <glyph glyph-name="uni51BB" unicode="&#x51bb;" vert-adv-y="1200" 
d="M757 -59l-100 -9v-3l-9 2l-22 -2l-1 7l-165 38l16 76l144 -32l-17 263l-93 -23v-1h-1h-1l-129 17l41 295l-78 -5l-5 78l94 6l19 133l126 -16l-14 -109l261 17l5 -78l-277 -18l-30 -235l77 18l-7 116l132 11l6 -96l85 20l16 -72l-96 -25l5 -82l190 -57l-32 -103l-151 41z
M41 191l236 168l48 -41l-183 -247zM506 167l-142 -159l-72 67l137 157zM261 537l-64 -84l-136 110l63 79z" />
    <glyph glyph-name="uni51B5" unicode="&#x51b5;" vert-adv-y="1200" 
d="M812 677l-27 -329l-18 1v-1h-119l4 -2l-192 -403l-114 57l144 301l-97 -11l-46 387l141 17l5 -38l206 20l1 12zM741 258l-23 -254l143 22l-3 97l49 5l25 -187l-297 -6l-2 326zM42 180l243 168l48 -41l-190 -247zM523 425h158l12 171l-190 -18zM269 526l-64 -84l-136 110
l63 79z" />
    <glyph glyph-name="uni51C0" unicode="&#x51c0;" vert-adv-y="1200" 
d="M452 794l95 -45l-27 -39l207 8l14 21l80 -46l-138 -162l77 2v7h100l-4 -147l90 3l4 -70l-96 -3l-3 -132h-5l-160 -11l10 -93h-2l2 -1l-100 -200l-111 55l90 169l-7 63l-138 -9l-4 70l134 9l-8 69l-196 -6l-5 70l193 6l-8 75l-110 -3l-5 70l181 5l78 118l-204 -8v7
l-84 -122l-48 27zM41 196l238 167l48 -41l-185 -246zM263 541l-64 -84l-136 110l63 79zM664 386l92 3l2 74l-102 -3zM678 250l74 5l2 64l-83 -3z" />
    <glyph glyph-name="uni51BC" unicode="&#x51bc;" vert-adv-y="1200" 
d="M532 699l-40 -93l84 10l-12 154h131v-141l84 10l11 -78l-95 -11v-154l184 17l5 -77l-243 -22l-192 -397l-121 61l163 322l-169 -15l-3 31l-181 -238l-101 120l236 161l46 -40l-3 44l277 24l-11 151l-126 -14l-45 -105l-122 49l122 287zM638 241l130 -1l-41 -191l218 35
l11 -140l-342 -2zM257 537l-64 -84l-136 110l63 79z" />
    <glyph glyph-name="uni51CB" unicode="&#x51cb;" vert-adv-y="1200" 
d="M703 567l-5 -75l-75 4l6 -62h111v-72h-298v72h92l-5 66l-72 4l5 72l62 -3l-4 62l-145 -20l-9 62l452 69l130 -491l-164 -356l-83 23l122 340l-88 402l-126 -17l7 -77zM599 115l-105 -16l-37 215l104 21l4 -23l96 16v2h75l4 -204h-58l-85 -4zM442 43h-79l-16 513h79z
M39 191l232 159l48 -41l-179 -238zM255 528l-64 -84l-136 110l63 79zM585 195l79 3l-2 60l-85 -18z" />
    <glyph glyph-name="uni51C9" unicode="&#x51c9;" vert-adv-y="1200" 
d="M825 234l-78 -6l-1 9l-62 -6l27 -309l-110 -11l-1 11l-98 33l21 72l70 -21l-18 216l-150 -13v2l-22 -2l-34 271l121 16l1 -8l266 15h1l38 6zM294 620l300 12l-101 98l99 60l61 -127l-48 -31l273 11l9 -71l-581 -57zM40 168l227 173l48 -41l-174 -252zM515 295l225 18
l-9 111l-231 -13zM501 126l-100 -182l-99 49l94 188zM251 519l-64 -84l-136 110l63 79zM927 83l-29 -70l-176 63l27 72z" />
    <glyph glyph-name="uni51CC" unicode="&#x51cc;" vert-adv-y="1200" 
d="M528 176l141 -32l47 104l-146 1l-136 -227l-76 43l214 354l77 -38l-41 -69l206 -3l-63 -183l166 -36l-67 -134l-136 61l-25 -75l-94 36l35 78l-136 62zM829 529l-461 -10v76l184 5l-1 42l-97 -3v75l96 7l-2 96h143l2 -85l68 6l16 -87l-82 -3l1 -44l133 4v-79zM38 171
l231 169l48 -41l-178 -248zM485 488l-57 -207l-104 36l90 188zM253 518l-64 -84l-136 110l63 79zM871 452l-12 -77l-197 33l17 77z" />
    <glyph glyph-name="uni51C4" unicode="&#x51c4;" vert-adv-y="1200" 
d="M439 39l45 96l-151 -5l-2 61l186 13l33 69l-114 -7l-5 70l114 7l-5 57l-202 -6l-6 69l203 6l-6 70l-122 -13l-7 64l123 15l-6 81l-179 -16l-6 72l179 15l-4 52l120 9l3 -50l223 19l5 -69l-224 -21l5 -78l107 13l2 10l140 -17l-22 -145l38 1l8 -70l-56 -2l-21 -143
l-129 16l-56 -3l-31 -67l77 5l18 38l69 -31l153 11v-85q-45 -1 -94 -3q-40 -2 -92 -4l-45 -91l180 -45l-50 -126l-179 72l-47 -96l-68 34l43 90zM63 143l229 119l25 -53l-213 -166zM160 590l121 -118l-48 -76l-152 91zM648 473l75 2l13 86l-93 -10zM635 140l-49 -2l-22 -50
l63 -16l32 68h-24zM656 349l50 3l7 53l-61 -2z" />
    <glyph glyph-name="uni51C6" unicode="&#x51c6;" vert-adv-y="1200" 
d="M876 511l-110 -11l5 -85l100 6l5 -76l-100 -7l4 -73l108 18l17 -76l-120 -21l5 -82l131 20l11 -77l-364 -55l-10 78l122 18l-5 79l-90 -15l-17 77l102 17l-5 85l-124 -8v78l120 7l-5 81l-131 -12l-11 77l357 32zM576 725l-103 -144l8 1l61 -667l-88 -10l-53 577l-30 -43
l-99 73l204 285zM43 178l237 159l48 -41l-184 -238zM264 515l-64 -84l-136 110l63 79zM655 760l116 -93l-20 -47l-160 54z" />
    <glyph glyph-name="uni51D1" unicode="&#x51d1;" vert-adv-y="1200" 
d="M751 636l-141 -11l-18 -44l121 16l6 -77l-160 -21l-18 -42l311 47l15 -88l-72 -10l160 -172l-88 -78l-210 231l-153 -22l-102 -248l-97 47l85 186l-85 -12l-9 82l136 20l21 46l-32 -4l-11 76l81 10l23 50l-126 -9l-5 76l167 13l40 87l79 -16l-26 -63l103 8zM790 129
l-173 -25l-53 -196l-93 29l39 151l-61 -9l-11 77l93 13l16 60l-21 -2l-12 78l177 22l6 -78l-41 -6l-16 -58l140 21zM851 -36l-55 -61l-160 138l50 60zM44 169l190 105l23 -47l-176 -149zM114 572l110 -107l-43 -69l-138 83z" />
    <glyph glyph-name="uni51CF" unicode="&#x51cf;" vert-adv-y="1200" 
d="M804 555l-41 -1l8 -287l19 -23l59 124l71 -33l-74 -157l117 -137l-108 -91l-63 113l-54 -114l-72 33l79 166l-41 74l-45 329l-257 -6l8 -379l-133 -230l-66 51l110 199l6 426l42 1v8l280 7l-18 134l126 14l4 -145l43 1v-77zM539 -1l-77 -6l-27 281l77 5v-8l132 14v-6h39
v-253h-77l-68 -16zM40 169l197 114l23 -47l-183 -158zM644 362l-199 -22l-10 77l204 23zM117 581l110 -107l-43 -69l-138 83zM809 646l77 63l63 -104l-49 -54zM530 87l76 16v100l-86 -9z" />
    <glyph glyph-name="uni51DB" unicode="&#x51db;" vert-adv-y="1200" 
d="M869 638v-326h-36l-321 -19l1 -11l-131 -5l-14 341l130 4l12 -275l268 17v223h-275v55l340 -4h26zM744 -123l-116 -15l-1 13l-124 48l25 64l92 -32l-11 135l-138 -5l27 -19l-110 -163l-60 39l98 141l-44 -1l-5 70l536 20l5 -70l-194 -8zM928 687l-656 -35v71l272 14
l-36 51l80 54l68 -99l272 15v-71zM37 161l233 169l45 -39l-182 -245zM732 412l-49 -11l-1 5l-66 -4l2 -15l-70 -10l-20 165l70 11l1 -11l104 16v-1l5 1zM257 502l-59 -81l-136 106l60 75zM764 198l-221 -11l-5 70l220 10zM750 55l203 -12v-77l-203 43v46zM609 458l61 3
l-7 34l-57 -9z" />
    <glyph glyph-name="uni51C7" unicode="&#x51c7;" vert-adv-y="1200" 
d="M585 339l-26 -67l-28 11l7 -290h-109l-8 333l-47 19l-36 -290l-93 17l51 402l-56 -4l-7 73l182 13l-3 156h110l3 -147l55 4l3 -52l55 183l105 -31l-95 -304l-100 32l29 98l-50 -4l3 -130zM957 83l-63 -32l-41 91l-248 -100l51 307l120 -25l-72 -186l126 55l-31 72l70 28z
M749 550l211 -73l-51 -115l-192 139zM39 201l183 103l23 -47l-169 -147zM113 599l99 -104l-43 -69l-127 80zM384 419l35 -14l-2 78l-25 -2z" />
    <glyph glyph-name="uni51BD" unicode="&#x51bd;" vert-adv-y="1200" 
d="M599 611l-129 -14l-16 -89l84 -26l2 6l110 -43l-88 -254l35 -39l-52 -53l-11 12l-56 -163l-116 42l79 223l-33 37l-9 -51l-100 16l71 371l-76 -8l-10 68l309 37zM950 242h-2l3 -1l-90 -314l-94 27l80 287l-86 461l100 21zM764 173h-84l-6 324h84zM58 194l207 107l23 -47
l-193 -151zM145 599l110 -107l-43 -69l-138 83zM440 330l31 -35l42 119l-72 22l-22 -126z" />
    <glyph glyph-name="uni51DD" unicode="&#x51dd;" vert-adv-y="1200" 
d="M589 598l14 97l273 -18l-81 -164l20 -11l-33 -50l157 10l-34 -127l-50 6v69l-54 -12l4 -117l111 10l6 -71l-114 -16l3 -89l152 -58l-38 -110l-286 105l-10 -86l-76 6l-45 -50l-105 88l50 61l100 -89l38 309l77 -10l-13 -106l55 -21l-7 223l-114 -25l-17 88l153 9l-64 61
l36 59l40 -23l25 61zM241 156l33 207l83 -18l-12 -38l185 23l11 -78l-93 -12l-20 -84l112 38l11 -78l-140 -32l-40 -168l-78 23l30 124l-81 -18l-3 48l99 33l25 103l-37 -4l-2 13l-30 -98zM519 727l27 -78l-189 -68l-9 -125l123 12v80l44 16l41 -136l-289 -47l-27 337
l128 19l-5 -67zM119 80l-78 110l157 119l37 -41zM93 600l95 -132l-56 -50l-95 126z" />
    <glyph glyph-name="uni535C" unicode="&#x535c;" vert-adv-y="1200" 
d="M266 -64l-17 797l106 2l30 -278l365 -85l-32 -149l-317 79l40 -366h-175z" />
    <glyph glyph-name="uni4E0B" unicode="&#x4e0b;" vert-adv-y="1200" 
d="M865 545l-352 -31q20 -147 36 -266q7 -57 14.5 -112t13 -98.5t9 -71.5t3.5 -30q-1 -3 -29 -6.5t-62 -7.5q-40 -4 -90 -8l-28 588l-300 -26l-5 75l785 67zM609 363l73 66l242 -154l-111 -126z" />
    <glyph glyph-name="uni535E" unicode="&#x535e;" vert-adv-y="1200" 
d="M881 482l-351 -31q15 -127 28 -230q6 -49 11.5 -97t10 -86.5t7 -64t2.5 -29.5v-1q-1 -1 -8.5 -2.5t-19.5 -3t-27.5 -3t-31.5 -2.5q-38 -4 -85 -7l-27 514l-322 -28l-6 77l814 71zM635 317l79 57l223 -172l-120 -111zM546 653l-93 -72l-105 149l93 67z" />
    <glyph glyph-name="uni5362" unicode="&#x5362;" vert-adv-y="1200" 
d="M695 544h121l-11 -193h6v-77l-461 -10l-46 -369l-120 16l68 545h-53v77l232 2l-5 251l143 5l1 -97l219 15l5 -77l-223 -16l1 -79l122 1zM360 341l325 7l6 112l-316 -3z" />
    <glyph glyph-name="uni5360" unicode="&#x5360;" vert-adv-y="1200" 
d="M703 387h126l-17 -439l-127 7v16l-311 -31l4 -21l-137 -17l-70 462l134 23l6 -40l78 4l-11 411l140 7l4 -174l238 17v-81l-236 -18l4 -153l174 10zM362 20l327 33l10 236l-376 -21z" />
    <glyph glyph-name="uni5364" unicode="&#x5364;" vert-adv-y="1200" 
d="M329 -78l-142 -16l-55 581l141 10l3 -31l112 9l-24 279l141 16l10 -109l207 17l5 -70l-206 -17l9 -105l272 21v-2l15 2l46 -549l-111 -12l-2 16l-424 -15zM319 19l426 12l-33 398l-429 -32zM379 362l127 -83l100 123l56 -41l-96 -121l112 -72l-78 -108l-103 93l-93 -119
l-57 47l97 120l-117 107z" />
    <glyph glyph-name="uni5363" unicode="&#x5363;" vert-adv-y="1200" 
d="M251 502l3 -33l120 9l-27 298l151 16l10 -115l222 18l4 -75l-219 -19l10 -111l290 22v-2l16 2l49 -585l-118 -11l-1 15l-453 -14l3 -28l-151 -16l-59 618zM584 368l64 -248l-54 -14l1 -2l-13 -2l-35 -9l-2 5l-252 -31l8 -75l453 14l-35 424l-458 -35l7 -68l314 43l-1 -3z
M286 143l240 28l-32 122l-220 -28z" />
    <glyph glyph-name="uni5367" unicode="&#x5367;" vert-adv-y="1200" 
d="M509 677l6 -75l-133 -2l5 -132l39 2l1 10l115 -5l-12 -271h-87l-55 -7v-113l106 14l7 -113l-373 -21l-23 631h-43l-5 77zM724 706l9 -317l209 -59l-56 -142l-150 97l10 -356l-111 -6l-22 783h111zM204 254l214 21l5 118l-214 -10zM198 60l96 12v114l-92 -11zM211 459
l82 4l-4 135l-73 -1z" />
    <glyph glyph-name="uni5366" unicode="&#x5366;" vert-adv-y="1200" 
d="M380 750l5 -123l146 13l6 -74l-149 -13l3 -95l94 9l4 -74l-95 -9l4 -105l108 9l4 -71l-109 -10l4 -93l126 19l8 -69l-449 -96l-19 97l213 31l-4 99l-136 -12l-5 75l138 11l-4 104l-129 -11l-12 74l138 12l-4 94l-216 -18l-6 74l219 19l-5 128zM614 -51l16 742l98 -9
l15 -296l213 -50l-27 -94l-181 43l17 -336h-151z" />
    <glyph glyph-name="uni5382" unicode="&#x5382;" vert-adv-y="1200" 
d="M261 775l1 -14l642 14v-78l-638 -14l44 -766l-164 -6l-50 853z" />
    <glyph glyph-name="uni5385" unicode="&#x5385;" vert-adv-y="1200" 
d="M241 769v-8l671 15l5 -78l-671 -15l50 -765l-165 -7l-49 848zM869 539l5 -78l-169 -10l108 -288l-196 -300l-104 53l135 229l-120 296l-221 -12l-6 77z" />
    <glyph glyph-name="uni5384" unicode="&#x5384;" vert-adv-y="1200" 
d="M127 718l87 -4l595 15v-73l-553 -14l-29 -672l-131 5zM377 -73v362l86 6l51 -284l272 41l-2 71l65 15l54 -174zM558 279l67 -39l11 166l-309 -38l-5 72l318 40l1 9l99 -12l-21 -336l-99 12v11v-1l-100 53z" />
    <glyph glyph-name="uni5386" unicode="&#x5386;" vert-adv-y="1200" 
d="M354 411l190 -5l74 164l93 -39l-58 -128l100 -3l3 16l142 -27l-99 -491l-109 23l-2 -5l-148 52l24 48l113 -9l61 317l-119 3l-199 -444l-93 38l183 408l-156 4v78zM287 -82l-143 -12l-27 802l143 11v-3l519 66l21 -114l-538 -27z" />
    <glyph glyph-name="uni5389" unicode="&#x5389;" vert-adv-y="1200" 
d="M913 525l5 -77l-226 -11l-20 -42l163 -68l-2 -4l68 -18l-120 -440l-126 35l-1 -2l-5 4l-5 1v2l-88 65l42 60l67 -44l78 295l-105 43l-183 -384l-140 88l266 403l-230 -11v77zM247 740v-12l604 12v-78l-599 -9l44 -728l-165 -10l-50 820z" />
    <glyph glyph-name="uni538B" unicode="&#x538b;" vert-adv-y="1200" 
d="M228 740v-14l564 14l6 -74l-566 -14l32 -688l-157 -10l-36 775zM835 96l5 -84l-545 -16l-5 82l167 5l-5 228l-123 1l3 94l118 3l-3 127h142l2 -123l135 4l-6 -107h-127l5 -222zM813 321l116 -125l-68 -64l-114 125z" />
    <glyph glyph-name="uni538C" unicode="&#x538c;" vert-adv-y="1200" 
d="M282 -34l-143 -12l-43 776l143 11v-7l598 10l6 -72l-600 -11zM560 572l93 -26l-45 -154l150 11l7 -72l-179 -13l-17 -57l315 -198l-62 -99l-289 175l-57 -196l-88 26l97 341l-166 -12l-6 74l194 13zM769 602l126 -109l-73 -80l-120 105z" />
    <glyph glyph-name="uni538D" unicode="&#x538d;" vert-adv-y="1200" 
d="M479 655l93 -16l-20 -111l270 6v-77l-284 -7l-24 -137l78 7l-3 60l144 10l3 -58l96 9l5 -76l-97 -9l5 -86l155 15l4 -112l-153 -4l9 -156l-143 -6l-10 159l-260 -6l-10 72l265 25l-5 86l-188 -17l-12 77l14 1l28 144l-80 -2v77l95 2zM238 771l1 -15l610 15l5 -78
l-611 -14l44 -739l-143 -12l-49 832z" />
    <glyph glyph-name="uni4EC4" unicode="&#x4ec4;" vert-adv-y="1200" 
d="M213 744l1 -15l614 15v-77l-610 -15l44 -740l-142 -10l-50 830zM376 -9l238 523l128 -46l-139 -215l326 -135l-61 -148l-319 199l-128 -198z" />
    <glyph glyph-name="uni8FB0" unicode="&#x8fb0;" vert-adv-y="1200" 
d="M128 723l95 -11l533 48l5 -74l-503 -45l-68 -646l-135 15zM819 429l11 -72l-378 -45l-8 -304l124 65l37 -63l-252 -136l-32 69l7 4l8 351l-87 -10l-6 74zM642 272l89 -76l81 133l109 -82l-122 -108l146 -122l-89 -100l-305 256zM689 586l5 -73l-357 -42l-9 75z" />
    <glyph glyph-name="uni5398" unicode="&#x5398;" vert-adv-y="1200" 
d="M439 583l1 -5l286 22v12l127 5l27 -431l-88 -4v-1h-107l3 -48l88 9l11 -76l-95 -10l3 -61l224 4l5 -76l-622 -13l-6 78l277 5l-3 51l-114 -12l-5 78l115 11l-3 60h-83l-134 -27l-73 397l95 18v3l22 2zM649 782l5 -77l-448 -23l35 -683l-126 -6l-39 756l32 1v4zM493 259
h66l-5 101l-78 -1zM681 259h68l-7 103l-66 -1zM463 435l87 1l-4 73l-94 -7zM672 438l65 1l-6 84l-63 -5z" />
    <glyph glyph-name="uni539A" unicode="&#x539a;" vert-adv-y="1200" 
d="M238 780v-7h573v-84h-568l40 -733l-143 -10l-44 825zM462 654l1 -15h274l1 5h64l-20 -278h-3h-298l-119 -11l-19 289zM903 155v-76l-187 -10l-15 -189l-232 24l10 44l113 -9l14 124l-268 -13v78l240 11l-57 33l93 94l-187 -15l-8 66h238l14 16l107 -47l-158 -101l91 -39z
M476 429h247l4 56l-253 -16zM469 534l262 15l2 26h-266z" />
    <glyph glyph-name="uni539F" unicode="&#x539f;" vert-adv-y="1200" 
d="M422 20l107 -18l-46 251h-76l5 -29l-116 -17l-50 376l110 17l3 -21l66 2l68 104l-295 -16l15 -671h-121l-16 750h121v-1l463 23v-76l-97 -5l19 -13l-64 -93l164 4v2h76l-21 -336l-22 1v-1h-106l51 -309l-116 -22l-132 22zM710 207l213 -115l-54 -105l-215 116zM345 170
l72 -28l-83 -182l-71 27zM376 460l299 -9l3 58l-308 -8zM396 329h272l3 46l-283 8z" />
    <glyph glyph-name="uni539D" unicode="&#x539d;" vert-adv-y="1200" 
d="M241 765l1 -15l611 15v-78l-606 -15l45 -738l-143 -10l-50 829zM528 281l2 -21l179 17v4h77l-11 -363h-77v6h-128l1 -6l-142 -18l-43 364zM831 566l5 -77l-101 -6l-15 -89l181 7v-76l-582 -22v77l135 5l-16 82l-92 -5l-5 76l82 4l-15 76l120 11l7 -80l114 6l5 81l105 -15
l-10 -60zM546 122l158 17l2 60l-167 -17zM561 0h139l2 66l-147 -16zM549 388l92 4l4 86l-104 -6z" />
    <glyph glyph-name="uni53A3" unicode="&#x53a3;" vert-adv-y="1200" 
d="M102 708h51l552 73l20 -107l-242 -13l43 -27l-37 -62l144 8v-58l-185 -18l-85 -140l90 9v-5l186 18l-118 54l18 56l369 -77l-43 -136l-99 45l-10 -301h-72v6h-49l7 -143l-111 -5l-7 148h-47l3 -32l-121 -11l-20 334l-43 -72l-78 41v-355h-126zM269 487v74l100 5l55 92
l-206 -11v-330l106 175zM818 513l-128 84l47 59l118 -94zM631 105h55l2 84l-60 -6zM624 253l66 6l2 58l-71 -6zM472 105h48l-3 67l-49 -5zM462 240l52 4l-3 59l-53 -4z" />
    <glyph glyph-name="uni53A6" unicode="&#x53a6;" vert-adv-y="1200" 
d="M475 571l1 -10l17 1l22 39l-253 -12v80l585 29v-80l-236 -12l-22 -39l199 10l1 -14l17 3l34 -274l-34 -4v-1l-233 -34l47 -34l-6 -8l221 -9l-88 -133l158 -36l-50 -106l-157 67l-70 -106l-101 58l82 85l-100 43l-79 -104l-100 79l134 169l-81 -12l-58 342zM661 820l6 -82
l-420 -18l38 -739l-151 -6l-40 822l149 5zM733 159l-164 -7l-27 -35l123 -29zM521 304l214 32l-2 17l-219 -12zM504 398l221 13l-4 24l-221 -13zM490 480l223 12l-3 22l-153 -7l-71 -4z" />
    <glyph glyph-name="uni5395" unicode="&#x5395;" vert-adv-y="1200" 
d="M736 772l6 -78l-551 -47l11 -653h-122l-10 722h84zM841 627l88 -418l-3 -1h3l-77 -331l-121 27l68 320l-80 376zM339 562l1 -15l229 17l15 -391l-68 -2l-12 325l-160 -41l16 -307l-87 -5l-28 414zM400 396l77 -10l-30 -239l152 -53l-29 -73l-133 47l-15 -118l-77 10z
M709 430l5 -254h-77l-6 254h78z" />
    <glyph glyph-name="uni96C1" unicode="&#x96c1;" vert-adv-y="1200" 
d="M197 753v-6l451 23v-76l-449 -24l8 -271l178 244l75 -54l-98 -139l6 1l7 -74l207 271l61 -49l-105 -140l27 2l56 -523l-121 -16l-45 425l-22 -29l-57 43l36 -391l-73 -5l-41 394l-41 -58l-49 39l11 -364l-122 -6l-22 778zM874 484l6 -78l-65 -4l3 -52l56 1l6 -77l-57 -1
l2 -41l66 9l5 -78l-66 -8l3 -55l85 9l6 -77l-303 -27l-5 75l112 10l-3 52l-93 -11l-11 76l99 12l-3 51l-118 -2l-6 78l120 2l-3 49l-133 -7l-7 77zM654 545l79 54l70 -101l-53 -19z" />
    <glyph glyph-name="uni53A8" unicode="&#x53a8;" vert-adv-y="1200" 
d="M767 744v-78l-568 -25v-647h-121v738h121v-15zM915 435l6 -78l-82 -7l11 -434l-245 24l3 85l152 -21l-29 338l-152 -12l-5 78l150 12l-10 120l120 13l3 -124zM320 462l4 -22l173 28l1 -6h48l5 -259h-77v8l-96 -22l3 -14l-88 -16l-67 286zM446 187l73 -28l-32 -90l71 13
l14 -57l-309 -93l-30 93l87 15l-36 93l85 21l9 -104l29 5l-9 4zM243 583h293v-78h-293v78zM640 297l54 -160l-75 -22l-51 159zM362 261l110 29l-2 94l-129 -21z" />
    <glyph glyph-name="uni53A5" unicode="&#x53a5;" vert-adv-y="1200" 
d="M204 710v-10l614 10v-77l-609 -10l43 -682l-110 -6l-48 769zM552 103l-3 18l-45 -4l16 -169l-118 -4l8 162l-113 -12l29 183l61 -15l-9 -95l35 2l7 148h66l13 -141l40 3l-15 87h68l12 -161zM472 579l94 -29l-41 -141l51 -1v-78l-286 11v77l61 -2l-23 92l75 23l16 -118h8z
M681 286l66 -15l-22 -82l181 -133l-71 -100l-142 110l-22 -82l-67 16zM625 325l9 242l86 -7l-14 -69l196 -17l-73 -243l-47 13l28 172l-116 14l-22 -114z" />
    <glyph glyph-name="uni53A2" unicode="&#x53a2;" vert-adv-y="1200" 
d="M690 533v-15l132 7v8h115l5 -544h-230l-105 -6l-22 544zM200 748v-3l594 30v-77l-592 -29l20 -653l-142 -5l-23 731zM509 638l4 -145l56 2v-77l-54 -2l5 -167l71 -18l-17 -78l-51 15l7 -240l-98 -5l-9 274l-45 14l-14 -194l-105 15l61 377l-48 -2l-6 76l148 6l-4 143z
M709 65h117l-1 92l-120 -15zM702 219l123 11l-1 83l-125 -22zM696 370l127 21l-1 57l-129 -7zM387 285l34 -9l-4 136l-25 -1l-10 -143z" />
    <glyph glyph-name="uni53A9" unicode="&#x53a9;" vert-adv-y="1200" 
d="M257 -36l-67 451l89 45l2 -42l132 -5l4 70l-214 -15l-6 77l225 16l1 12l105 -10l-22 -344l-92 6l-120 -27l7 -129l111 25l-37 58l92 35l62 -163l-52 -31l-33 51zM716 776l5 -76l-547 -23l-9 -700l-106 -5l10 739h1v38zM698 501l105 -21l-33 -141l126 21v-112l-151 -16
l-79 -337l-105 27l70 298l-89 -9l21 238l67 -6l-17 -129l42 7zM761 -51l-16 219l103 14l-6 -160l115 36l5 -102zM886 590v-78l-286 -5v77zM289 278l117 25l3 49l-123 -19z" />
    <glyph glyph-name="uni53AE" unicode="&#x53ae;" vert-adv-y="1200" 
d="M395 640l1 -72l81 7v47h78v-41l37 3l12 -78l-48 -4l3 -290l40 4l10 -78l-201 -21l-49 -189l-132 64l98 117l-96 -10l-5 77l66 7l-3 298l-36 -2l-5 78l40 3l-1 80h110zM64 750h44l623 27l6 -77l-552 -25l-5 -637h-121zM841 501l7 -76l-121 -9l3 -137l199 35l11 -77
l-57 -10l30 -337l-116 -11l-28 328l-37 -6l5 -173l-110 -6l-10 387l-13 -1v76zM517 116l92 -116l-65 -50l-89 121zM399 194l83 9l-1 49l-82 -3v-55zM397 447h82l-1 49l-81 -6v-43zM398 327l82 3v39h-82v-42z" />
    <glyph glyph-name="uni5507" unicode="&#x5507;" vert-adv-y="1200" 
d="M769 668l-480 -42l-64 -616l-129 15l70 679l91 -12l507 47zM485 -68l-120 -21l-54 280l123 21l4 -24l253 5l1 11h77l-22 -278l-76 6l3 48l-194 -24zM813 449l-341 -36l-8 -91l95 41l33 -42l-203 -112l-35 66h1h-3l11 126l-81 -8l-1 72l530 36zM956 271l-72 -113l-273 198
l44 63l92 -46l102 81l68 -50l-107 -62zM709 538l-344 -31l-5 71l339 25zM466 32l214 22l5 61l-233 -4z" />
    <glyph glyph-name="uni8703" unicode="&#x8703;" vert-adv-y="1200" 
d="M507 308l98 5v-48h178v-1l5 1l16 -193l-28 -2l-171 -18v-40l147 11l-13 24l59 12l110 -103l-92 -46l-24 42l-502 -39l-5 75l238 18l-2 37l-111 -12l-86 -17l-52 232l105 23l1 -4h131zM806 698l-521 -31l-86 -660l-127 13l92 715l96 -11l541 34zM798 511l-332 -24l-9 -103
l74 27l33 -35l-200 -95l-34 56l17 6l12 136l-81 -6l-1 61l512 51zM935 361l-71 -95l-268 167l43 53l94 -40l97 65l67 -42l-102 -49zM698 595l-338 -26l-5 60l333 21zM413 108l104 11l-4 70h-118zM605 128l115 12l-4 49h-111v-61z" />
    <glyph glyph-name="uni8D5D" unicode="&#x8d5d;" vert-adv-y="1200" 
d="M149 704h2l-2 34l618 49l5 -77l-153 -13l10 -9l-73 -79l18 1l16 -303l-76 -5l-15 245l-63 -69l-56 55l145 157l-90 -8l18 -11l-77 -119l38 -233l-78 -12l-23 147l-20 -31l-41 27l-14 -446h-111zM463 292l2 -43l305 45l1 -244l-113 6l15 174l-206 -31l7 -151l-104 -5
l-12 236zM449 -85l68 267l110 -12l-40 -107l268 -64l-28 -100l-276 69l-28 -75zM827 615v-55l-53 -2l2 -16l51 3v-56l-46 -3l2 -20l55 6l5 -54l-55 -6l2 -24l76 7l6 -55l-243 -21l-6 55l84 7l-2 21l-65 -7l-11 55l71 7l-3 25l-86 -4v55l81 4l-1 17l-101 -4v55zM259 668
l-5 -158l107 166zM656 662l55 38l65 -33l-54 -55z" />
    <glyph glyph-name="uni9765" unicode="&#x9765;" vert-adv-y="1200" 
d="M836 321v-6h48l5 -367h-83l-334 -28l3 -13l-115 -21l-69 387l111 22l1 -9l31 2v1l53 74l-121 -11l-1 4l-35 -73l-90 48l92 183l-34 -3v69l68 3l45 89l-160 -8l-48 -705l-115 10l53 760l58 -5l517 68l19 -103l-239 -12l21 -10l-38 -78l170 9v-52l-201 -20l-47 -96l182 17
l-42 19l18 54l352 -74l-40 -130l-240 109l7 -47l-56 -6l-56 -76zM716 14l57 5l-3 223l-54 -4v-224zM459 -8l42 4l-35 221l-49 -4zM826 535l-122 81l45 56l112 -90zM584 94l59 18v42l-65 -14zM597 4l46 4v46l-52 -7zM570 195l73 10v27l-77 -7z" />
    <glyph glyph-name="uni990D" unicode="&#x990d;" vert-adv-y="1200" 
d="M87 765h32l604 71l19 -101l-306 -14l52 -28l-30 -59l171 18v-53l-203 -32l-123 -249l-95 50l90 179l-23 -3l-18 68l77 8l49 98l-177 -8l-20 -789h-115zM211 199l297 283l45 -26l355 -116l-27 -77l-364 122l4 13l-82 -109l39 1v1l55 5l-41 30l37 29l72 -52l25 3l1 7l47 -2
l19 2v-3l51 -2l-12 -210l-62 2l1 -2l-167 -35v-109l93 12l22 -66l-181 -31l-40 366l-93 -125zM814 159l61 -44l-68 -95l121 -28l-43 -115l-286 136l28 50l94 -23zM549 529l13 38l252 -51l-28 -94zM791 567l-120 79l83 73l72 -106zM504 215l119 13v10l-119 -11v-12zM504 131
l115 24l1 6l-116 -13v-17z" />
    <glyph glyph-name="uni9B47" unicode="&#x9b47;" vert-adv-y="1200" 
d="M757 132l-194 -17l-21 -112l-166 -115l-49 78l138 89l10 52l-27 -2l1 -2l-105 -17l-36 231l-3 -5l-72 40l91 161l-35 -3v75l78 4l54 95l-186 -10l-51 -752l-121 5l55 816l58 -6l562 75l21 -110l-259 -14l9 -5l-49 -90l205 11v-59l-244 -23l-79 -144l62 7l3 -24l25 3l-5 4
l77 94l76 -61l-19 -25l128 12l1 7l49 -6l-196 78l24 51l369 -50l-49 -137l-109 43l-21 -237h-1zM571 104l103 9l-12 -170l241 50l17 -82l-311 -20zM911 32l-66 -39l-13 21l-125 -19l17 124h1q3 0 13 -1.5t21.5 -4t21.5 -4.5t12 -2l-11 -75l34 9l-21 35l67 38zM724 622l49 62
l121 -98l-38 -51zM662 266v-36l-79 -4l-6 -32l96 7l9 108l-84 -7l-7 -37zM423 263l83 1l6 32l-93 -7zM436 182l55 5l7 35l-68 -3z" />
    <glyph glyph-name="uni5AE0" unicode="&#x5ae0;" vert-adv-y="1200" 
d="M451 -9l11 123h-141v78h149l9 105l-157 -10l-50 -382l-121 18l56 417l6 -1l-1 18l397 27l33 81l-78 24l38 116l85 -27l32 80l-94 -4v20l-67 -125l-66 34l126 242l66 -40l-29 -54l211 11l6 -78l-138 -6l60 -27l-32 -77l142 -44l-32 -115l-156 48l-22 -54l78 6l6 -77
l-213 -15l-13 -111h64l14 55l115 -28l-7 -27h177v-78h-195l-23 -95l124 -33l-19 -73l-124 28l-16 -69l-115 33l15 62zM255 538l28 -6l-1 23l-38 -1l-88 -264l-71 28l78 232l-34 -1l-5 78l155 6l-2 48l-121 -6l-5 77l123 6l-2 45l115 5l2 -44l97 5v-76l-93 -5l3 -50l85 4
l5 -77l-86 -4l3 -52l139 -26l-17 -76l-118 24l3 -52h-121l-3 78l-47 10zM536 62l46 -13l15 65h-55z" />
    <glyph glyph-name="uni5200" unicode="&#x5200;" vert-adv-y="1200" 
d="M705 643l4 -1l20 1v-3l149 -14l-70 -676l-173 18l1 16l-179 61l9 40l179 -21l51 497l-230 -5l65 -33l-301 -562l-108 59l287 535l-224 -5v82l520 10v1z" />
    <glyph glyph-name="uni5203" unicode="&#x5203;" vert-adv-y="1200" 
d="M600 553l-364 -608l-114 61l341 569l-306 -5v86l544 10v1l182 -18l-73 -707l-181 18l1 16l-188 64l9 42l188 -22l53 519l-139 -2zM286 435l-142 -231l-89 52l141 232z" />
    <glyph glyph-name="uni5207" unicode="&#x5207;" vert-adv-y="1200" 
d="M533 483l16 134l407 -56l-59 -631l-233 72l20 76l118 -29l8 444l-73 -3l-214 -553l-150 72l264 478zM155 765l146 -10l-18 -285l144 7v-74l-149 -6l-15 -242l120 86l44 -58l-164 -121l-5 7l-1 -16l-144 5l20 333l-90 -3v72l94 4z" />
    <glyph glyph-name="uni526A" unicode="&#x526a;" vert-adv-y="1200" 
d="M550 351l-3 -1l-71 -139l-86 41l27 59h-118l4 -65l-145 -6l-18 342l145 5l1 -18l125 15l65 21l72 -248l2 -1l-1 -2zM713 206v-6l64 -5l-29 -330l-110 9v-4l-21 5l-14 1v3l-138 32l17 43l127 -8l16 178h-114l-197 -243l-64 54l155 189h-63v82h371zM737 784l-60 -76l210 13
l6 -80l-783 -48l-5 81l242 14l-92 80l127 60l71 -133l77 4l120 148zM765 572h18q16 0 35 1q22 0 49 1l28 -338l-143 -5zM690 344h-82l-11 198h81zM295 379h146l-12 39l-135 -8zM290 479l119 7l-8 28l-112 -14z" />
    <glyph glyph-name="uni5288" unicode="&#x5288;" vert-adv-y="1200" 
d="M922 480l-129 -1l5 -59l78 4v-65l-73 -2l9 -109l-131 -6l-9 113l-86 -1v57l82 3l-5 63l-147 -1v74l113 1l-39 69l-47 -2l-5 75l341 14l5 -73l-204 -10l9 -72l69 1l16 70l89 -18l-48 -52l107 2v-75zM760 210l-26 -300l-100 8v-3l-22 5l-10 1v2l-124 29l15 39l114 -6
l15 159h-105l-237 -252l-58 48l192 204h-115v74h330v2zM482 745l-32 -206l-11 1v-1l-233 -24l-54 -215l-76 16l85 347l-31 -2l-5 73l280 19l1 3l11 -2l22 2v-5zM367 263l-93 -15l-54 248l97 16l3 -17l124 11v-2l38 2l5 -184l-18 -2l1 -5l-109 -25zM225 592l156 16l12 70
l-149 -10zM662 818l113 -74l-44 -39l-129 43zM351 341l60 8l-3 80l-73 -7z" />
    <glyph glyph-name="uni520D" unicode="&#x520d;" vert-adv-y="1200" 
d="M723 470l150 -18l-58 -543l-151 16v6l-382 -6v82l391 4l16 152h-354v82h363l15 135l-396 -32l-7 81l210 17l-28 18l90 153l-161 41l-179 -234l-116 81l255 332l116 -80l-23 -30l151 -35l10 16l104 -59l-112 -194l95 8z" />
    <glyph glyph-name="uni4E89" unicode="&#x4e89;" vert-adv-y="1200" 
d="M121 568l160 276l125 -61l-19 -20l184 3l12 25l75 -36l-30 -64v-4h-2l-67 -144l91 3l2 21l156 -19l-27 -150l112 2l5 -80l-132 -3l-16 -91l5 -66l-183 -9l16 -111l-151 -187l-115 80l125 152l-9 59l-235 -12l-9 80l232 12l-13 85l-306 -6l-6 82l300 5l-11 68l-225 -9
l-6 81h8zM168 530l301 10l66 145l-224 -3zM539 393l102 2l4 73l-116 -5zM561 231l69 3l5 80l-85 -2z" />
    <glyph glyph-name="uni9F9F" unicode="&#x9f9f;" vert-adv-y="1200" 
d="M371 9l-143 -16l-55 446l-38 -32l-69 60l313 335l112 -97l-56 -47h124l123 -44l-83 -126l37 4l-1 7l77 13l67 -354v-5l-195 -60l11 -94l241 36l15 145q3 0 12 -1t18 -3q11 -2 23 -3l30 -216l-392 -25l-50 -6l-16 134l-108 -33zM310 467l1 -11l204 23l25 98h-191v9
l-160 -134zM358 103l110 33l-11 93l-113 -22zM332 296l115 14l-9 85l-117 -16zM557 323l109 13l-17 87l-102 -14zM575 169l116 35l-13 69l-112 -22z" />
    <glyph glyph-name="uni8272" unicode="&#x8272;" vert-adv-y="1200" 
d="M292 389l10 -102l165 7l-13 108h-244v74h273l-9 7l68 90l-194 24l-67 -114l-127 72l166 269l121 -71l-49 -83l205 -26l19 26l61 -43l-115 -151h121v1h102l10 -249l-151 -5v1l-334 -12l12 -116l346 -62l84 117l93 -28l-86 -218l-4 2l-1 -7l-533 94v1l-6 -1l-39 378z
M543 297l113 4l15 101h-145z" />
    <glyph glyph-name="uni5942" unicode="&#x5942;" vert-adv-y="1200" 
d="M584 649l88 -52l-100 -173l123 5l3 11l69 -22l-52 -178l135 12l5 -73l-383 -32l-80 -244l-69 21l68 216l-282 -24l-5 73l127 10l-33 226l114 15l4 -26l132 5l77 130l-142 24l-80 -104l-70 31l140 302l136 -65l-75 -97l131 -23zM615 149l235 -158l-68 -100l-234 158z
M496 222l144 12l34 119l-136 -4zM347 209l67 6l42 132l-129 -4z" />
    <glyph glyph-name="uni514D" unicode="&#x514d;" vert-adv-y="1200" 
d="M117 555l215 268l106 -38l-72 -106l228 -10l-83 -152l153 15l3 17l81 -11l-45 -336l-41 6l-53 -3l-17 -213l266 63l25 -152l-386 -12l-31 307l-21 -1l-101 -310l-82 28l94 277l-36 -2l7 -52l-145 -16l-47 368l98 12zM472 279l159 8l22 162l-130 -12zM279 508l1 -13
l145 14l32 106h-135l-75 -111zM309 271l75 4l53 154l-146 -14z" />
    <glyph glyph-name="uni5154" unicode="&#x5154;" vert-adv-y="1200" 
d="M261 481l1 -7l147 15l31 98h-146l-68 -97l-127 55l217 261l105 -39l-83 -117l241 -10l-82 -142l156 16l1 8l81 -11l-45 -331l-36 5h-1l-60 -3l-18 -175l266 60l25 -147l-387 -10l-30 264l-37 -2l-105 -282l-82 30l78 200l-140 -16l-41 359zM443 255l175 8l23 167
l-137 -14zM707 150l81 100l113 -69l-29 -80zM291 247l63 3l61 158l-143 -14zM306 127l15 40l-20 -1z" />
    <glyph glyph-name="uni8C61" unicode="&#x8c61;" vert-adv-y="1200" 
d="M837 374l-103 -149l158 -88l-60 -110l-189 102l23 -94l-148 -180l-116 88l162 105l-25 91l-270 -260l-56 54l303 292l-12 44l-19 5l-183 -202l-61 54l58 63q-3 1 -10 4q-9 5 -20 11q-13 7 -29 16l61 114l-108 -14l-35 253l122 17v-4l224 29l25 78l-154 -4l-64 -86l-80 27
l101 215l120 -52l-32 -43l249 -16l-62 -105l37 5v-3l38 9l62 -260l-77 -16l-4 18l-254 -16l-10 -16l198 -30l5 -22l67 -37l107 157zM501 513q-17 -27 -39 -62q-2 -3 -4 -5l187 12l-23 94l-105 -14q-7 -11 -16 -25zM303 436l55 3l45 84l-111 -14zM337 250q-16 -27 -26 -44
q-5 -8 -7 -11l97 105l-27 9q-21 -33 -37 -59z" />
    <glyph glyph-name="uni5371" unicode="&#x5371;" vert-adv-y="1200" 
d="M272 516v-11l253 5l40 86l-180 7l-91 -71l-89 110l258 200l88 -110l-71 -56l121 -4l6 14l34 -15h10v-4l21 -9l-21 -50v-15h-7l-34 -81l207 4v-78l-545 -9l5 -513h-133l-5 600h133zM354 -113l-18 457h102v-3l257 9l3 -239l-176 -14l-1 87l112 -16l-24 127l-160 -34
l38 -283l260 2v81l61 15l52 -155z" />
    <glyph glyph-name="uni8A79" unicode="&#x8a79;" vert-adv-y="1200" 
d="M181 543l94 -9l297 11l39 84l-195 16l-91 -99l-77 39l139 235l135 -60l-38 -41l163 -13l8 17l104 -53l-58 -121l116 5l7 -68l-127 -5l106 -48l-90 -79l-109 123l-98 -4l-98 -156l-116 53l126 99l-127 -5l-40 -562l-116 10zM517 91l2 -16l260 10l38 6l30 -189l-70 -14
l-2 9l-232 9l2 -10l-109 -25l-35 204zM858 351l6 -63l-538 -46l-12 64l241 20l-61 78l125 22v-95zM812 168v-65l-376 -5v64zM748 260l6 -64l-260 -18l-7 64zM534 -30l232 -10l-9 61l-229 -9z" />
    <glyph glyph-name="uni5202" unicode="&#x5202;" vert-adv-y="1200" 
d="M739 784l159 -536l-6 -2l-136 -379l-133 51l122 343l-145 483zM590 508l15 -326l-87 -5l-16 324z" />
    <glyph glyph-name="uni5208" unicode="&#x5208;" vert-adv-y="1200" 
d="M805 786l141 -508l-8 -2l-129 -375l-130 47l121 341l-127 461zM412 613l83 -52l-124 -208l140 -120l-55 -91l-155 92l-120 -202l-88 46l123 207l-163 98l106 153l137 -118zM631 561l21 -335l-83 -5l-21 334z" />
    <glyph glyph-name="uni520A" unicode="&#x520a;" vert-adv-y="1200" 
d="M566 343l-173 -12l26 -359l-141 -10l-26 360l-210 -14l-6 73l211 14l-12 169l142 4l11 -163l172 12zM941 255l-5 -2l-112 -324l-125 40l107 298l-109 417l129 29l113 -450zM482 662v-72h-361v72h361zM688 196l-81 -6l-14 319l79 5z" />
    <glyph glyph-name="uni5217" unicode="&#x5217;" vert-adv-y="1200" 
d="M508 692l6 -74l-198 -17l-25 -92l119 -25l4 8l110 -52l-117 -245l43 -32l-47 -58l-28 22l-83 -174l-109 53l94 198l-55 43l-12 -48l-137 36l94 354l-89 -7l-10 72zM811 733l121 -481l-9 -2l-116 -339l-132 42l113 315l-113 434zM649 524l17 -334l-85 -7l-15 335zM242 322
l67 -51l68 144l-105 22z" />
    <glyph glyph-name="uni521B" unicode="&#x521b;" vert-adv-y="1200" 
d="M941 255l-8 -2l-111 -322l-125 40l108 300l-108 413l129 29zM424 749l-71 -113l226 -98l-44 -106l-224 138l-162 -257l-92 52l274 438zM539 406v-276h-120v11l-88 27l28 67l60 -17v97l-193 -37l-16 73l209 42v13h120zM190 249h116l-15 -220l211 52l13 -114l-301 -19z
M688 196l-81 -6l-14 319l79 5z" />
    <glyph glyph-name="uni521A" unicode="&#x521a;" vert-adv-y="1200" 
d="M464 665h74v-581h-74v216l-42 -97l-94 68l-58 -108l-63 28l22 -196l-105 -11l-64 613l70 11l-1 11l335 43v3zM804 786l136 -503l-8 -2l-118 -401l-130 42l113 366l-124 461zM370 499l63 -34l-55 -103l86 -50v274l-297 -39l39 -346l62 113l-78 58l35 79l90 -52zM663 503
l15 -299l-84 -4l-15 299z" />
    <glyph glyph-name="uni5212" unicode="&#x5212;" vert-adv-y="1200" 
d="M261 692l58 -186l177 18l5 -73l-160 -17l48 -153l76 65l48 -58l-100 -84l73 -235l-116 -31l-57 181l-104 -87l-48 57l128 108l-70 224l-173 -18l-10 74l160 16l-50 162zM795 771l168 -509l-8 -3l8 -2l-142 -366l-126 47l122 328l-148 463zM659 477l21 -340l-84 -6
l-21 341zM480 570l-109 112l96 63l67 -135z" />
    <glyph glyph-name="uni5218" unicode="&#x5218;" vert-adv-y="1200" 
d="M767 745l168 -493l-8 -3l-138 -353l-127 52l121 318l-148 436zM127 33l106 162l-94 54l50 83l104 -46l75 115l61 -31l-53 -121l98 -43l-49 -119l-96 54l-75 -172zM457 530l13 -74l-394 -56l-11 71zM626 497l21 -302l-85 -4l-20 301zM310 542l-125 107l107 82l79 -125z
" />
    <glyph glyph-name="uni5211" unicode="&#x5211;" vert-adv-y="1200" 
d="M503 11l-115 -6l-14 265l-125 -6l-14 -249l-113 25l32 219l-119 -6v96l134 12l26 179l69 -3l-9 -168l113 11l-10 193l-221 -17l-6 73l398 31l11 -73l-66 -5l9 -191l82 8l14 -118l-90 -5zM941 255l-8 -2l-111 -322l-125 40l108 300l-108 413l129 29zM688 196l-81 -6
l-14 319l79 5z" />
    <glyph glyph-name="uni5219" unicode="&#x5219;" vert-adv-y="1200" 
d="M208 683v-3l203 17v2l-1 4l87 4l6 -428h-73l-16 340l-202 -16l18 -377l-166 -12l-22 464zM836 749l121 -485h-1l-104 -364l-144 39l98 324l-113 447zM302 447l98 -23l-60 -235l208 -71l-24 -105l-202 107l-42 -165l-94 28zM654 501l28 -280l-78 -12l-27 287z" />
    <glyph glyph-name="uni520E" unicode="&#x520e;" vert-adv-y="1200" 
d="M190 676l100 -59l-46 -87l248 -59l2 6l115 -31l-130 -499l-115 27l1 4l-59 17l21 72l56 -17l90 347l-27 7l-198 -409l-74 36l185 393l-41 10l-134 -282l-79 36l131 265l-29 6l-72 -137l-100 58zM834 749l129 -502l-6 -2l-102 -361l-126 43l91 322l-116 463zM714 528
l15 -335h-83l-16 335h84z" />
    <glyph glyph-name="uni5216" unicode="&#x5216;" vert-adv-y="1200" 
d="M210 687v-17l175 10v7h99l15 -634h-99l-4 163l-181 -12l2 -184h-126l-5 667h124zM760 758l153 -500l-7 -2l-130 -355l-126 47l114 327l-135 444zM620 493l21 -335h-84l-21 335h84zM214 279l180 12l-3 138l-178 -23zM212 477l177 26l-3 127l-176 -15z" />
    <glyph glyph-name="uni5220" unicode="&#x5220;" vert-adv-y="1200" 
d="M623 392l-13 -1l39 -198v-1h-1l-125 -286l-84 50l103 254l-33 176l-88 -5l7 -198h-69l-7 195l-40 -2l22 -213l-71 -11l-23 220l-94 -5l14 -257l-112 11l11 242l-20 -1l-6 71l29 1l7 144h1l-17 49l156 53v7l70 6l25 -247l45 3l-5 162l-10 52l120 23l-1 7l96 15l47 -247
l27 2v-71zM950 262l-3 -1h2l-100 -337l-105 32l93 312l-107 414l105 32zM740 236h-72l-6 263h73zM143 438l90 5l-16 164l-81 -29zM419 452l77 4l-29 158l-53 -10z" />
    <glyph glyph-name="uni5228" unicode="&#x5228;" vert-adv-y="1200" 
d="M789 787l161 -524l-141 -373l-125 48l123 337l-150 469zM144 766l109 -38l-37 -111l142 8v4l121 10l63 -481l-120 -15l-1 3l-133 -8l-2 35l125 49l-43 332l-175 -7l-27 -80l-116 37zM161 369v65l189 19l9 -204l4 -18l-153 -30l30 -160l290 48l19 -113l-406 -20l-13 376
l56 4l11 -62l77 13l-17 88zM642 513l15 -314l-85 -5l-14 314z" />
    <glyph glyph-name="uni522B" unicode="&#x522b;" vert-adv-y="1200" 
d="M202 702l2 -14l197 7v1h72l16 -282h-47l-190 -13l1 -3l-135 -21l-53 304zM809 665l126 -429l-105 -309l-132 47l91 270l-112 384zM296 398l62 -36l-39 -69l96 7l1 16l117 -4l-25 -335l-227 39l1 65l122 -13l8 164l-134 -13l-146 -261l-61 37l120 216l-63 -6l-10 72l115 9
zM651 512l17 -314l-84 -5l-16 314zM240 473l172 11l-7 138l-188 -8z" />
    <glyph glyph-name="uni5229" unicode="&#x5229;" vert-adv-y="1200" 
d="M403 552l3 -71l70 9l10 -72l-76 -16l9 -203l95 -28l-22 -77l-69 20l9 -185l-139 -6l-10 231l-71 21l-62 -208l-77 22l109 366l-122 -25l-10 105l219 28l-3 82zM850 711l99 -435l-6 -2l-126 -384l-137 44l119 362l-87 382zM167 581l-11 68l247 80l31 -98zM647 507l11 -286
h-77l-12 286h78zM235 253l44 -13l-6 134l-2 -1z" />
    <glyph glyph-name="uni5224" unicode="&#x5224;" vert-adv-y="1200" 
d="M213 -12l80 173l-9 77l-166 -13l-6 74l164 12l-12 100l-157 -13l-5 74l154 13l-28 248l125 16l16 -128l94 107l58 -52l-115 -126l-31 25l10 -79l157 13l5 -74l-152 -13l12 -101l114 9l5 -73l-109 -9l10 -79l-32 -4h28l-111 -222zM871 655l37 -618l-126 -11l-35 618z
M604 518h73l-9 -276h-75zM159 687l69 -164l-69 -26l-68 163z" />
    <glyph glyph-name="uni522D" unicode="&#x522d;" vert-adv-y="1200" 
d="M563 420l-33 -89l-215 78q-21 -32 -42 -63q-31 -47 -56 -84.5t-41 -60.5t-17 -23q-2 0 -18 13.5t-34 30.5q-21 19 -47 45l284 357l-203 -13v74l371 25l-144 -219zM941 255l-8 -2l-111 -322l-125 40l108 300l-108 413l129 29zM168 51l147 11l-7 125l-65 -4l-6 74l258 17
l5 -74l-57 -4l7 -123l59 5l6 -53l-333 -69zM688 196l-81 -6l-14 319l79 5z" />
    <glyph glyph-name="uni522E" unicode="&#x522e;" vert-adv-y="1200" 
d="M532 488l5 -74l-169 -8v-96l82 3v1h74l-10 -240h-6v-41h-225l4 -27l-126 -11l-38 309l125 16l2 -14l44 1l-12 95l-211 -9v74l201 9l-11 87l-125 -29l-12 65l291 105l37 -97l-84 -20v-107zM938 262l-2 -1l-114 -330l-125 40l107 298l-110 422l129 29zM688 196l-81 -6
l-14 319l79 5zM275 104h166l6 136l-188 -8z" />
    <glyph glyph-name="uni523A" unicode="&#x523a;" vert-adv-y="1200" 
d="M129 565v79l106 3l-5 63l105 13l7 -74l90 3l6 -63l-89 -7l10 -98l95 11l3 24l73 -11l-31 -251l-68 11l15 150l-79 -9l21 -196l184 -87l-30 -67l-145 67l18 -175l-118 -19l-17 193l-126 -162l-95 80l207 254l-9 99l-88 -11l7 -145l-115 4l21 243h82l1 -26l86 10l-9 103z
M792 754l148 -491l-6 -2l-121 -350l-130 43l112 316l-133 448zM667 493l5 -256l-73 -6l-6 256z" />
    <glyph glyph-name="uni5230" unicode="&#x5230;" vert-adv-y="1200" 
d="M497 712v-73l-168 -7l-88 -159l164 38l-24 50l55 46l123 -167l-78 -81l-34 67l-60 -14l2 -112l61 9l9 -68l-69 -12l1 -81l63 25l32 -69l-330 -130l-32 68l136 54l-2 112l-91 -15l-11 74l101 14l-2 100l-157 -36l-20 90l15 3l102 188l-76 -3v74zM795 769l126 -524l-10 -2
l-122 -348l-130 47l113 326l-108 470zM659 498l21 -294l-90 -4l-21 293z" />
    <glyph glyph-name="uni5241" unicode="&#x5241;" vert-adv-y="1200" 
d="M807 769l135 -496l-6 -2l-129 -359l-132 47l122 325l-122 450zM392 378l1 -64l136 11l6 -62l-140 -12l2 -93l161 -28l-15 -101l-144 48l4 -123l-131 -5l-7 292l-176 -14l-6 63l180 14l-1 69zM126 744l136 -14l-2 -16l72 3v10l98 -2l-13 -241l82 1v70l36 5l18 -137
l-203 -3l-14 225l-85 -5l-30 -246l-138 16zM666 509l20 -309l-84 -6l-21 310zM151 206l70 -32l-100 -194l-64 31z" />
    <glyph glyph-name="uni5242" unicode="&#x5242;" vert-adv-y="1200" 
d="M204 489l99 -49l101 97l-279 -48l-15 71l413 75l11 -75l-107 -19l75 -80l-82 -79l145 -72l-36 -64l-164 82l-94 -91h21v-262h-72v212l-79 -76l-84 90l191 185l-77 39zM795 759l147 -486l-6 -2l-120 -344l-130 43l109 315l-130 439zM481 252l37 -298l-88 -10l-39 297z
M660 509l14 -299h-84l-15 299h85zM332 602l-127 92l97 80l88 -120z" />
    <glyph glyph-name="uni523B" unicode="&#x523b;" vert-adv-y="1200" 
d="M782 734l142 -482l-6 -2l-120 -338l-130 42l109 311l-126 432zM530 587l7 -72l-201 -17h1l-105 -247l41 -3l85 156l63 -37l-231 -424l-62 38l106 196l-32 2l-5 -11l-32 14l-12 1v4l-77 35l113 264l-103 -8l-5 67zM288 -24l142 269l88 -32l-61 -92l115 -99l-77 -89
l-102 91l-51 -77zM662 452l10 -257h-72l-11 250zM329 580l-156 81l95 93l106 -118z" />
    <glyph glyph-name="uni523D" unicode="&#x523d;" vert-adv-y="1200" 
d="M941 255l-8 -2l-111 -322l-125 40l108 300l-108 413l129 29zM548 231l-182 -30l-61 -130l128 32l-19 50l65 30l82 -173l-69 -54l-31 77l-253 -59l-17 68l21 5l68 140l-125 -20l-15 74l393 63zM585 571l-31 -64l-213 106l-189 -294l-108 95l291 340l69 -44l-23 -35z
M688 196l-81 -6l-14 319l79 5zM251 408l215 33v-80l-215 -21v68z" />
    <glyph glyph-name="uni5237" unicode="&#x5237;" vert-adv-y="1200" 
d="M298 347l3 -37l48 2l-5 83l115 13l5 -90l79 5l70 8l-12 -314l-119 5l4 -68l-115 -5l-18 286l-44 -3l24 -250l-105 -5l-34 358zM150 610l78 -16l-11 -52l222 18l15 82l-309 -9v77l323 8l3 14l98 -17l-33 -215h-1l1 -11l-335 -27l-73 -353l-77 11zM834 749l115 -464l-8 -2
l-112 -367l-122 38l108 352l-108 414zM718 505l21 -302l-75 -5l-23 302zM526 61l-6 182l-51 -2l10 -172z" />
    <glyph glyph-name="uni5239" unicode="&#x5239;" vert-adv-y="1200" 
d="M809 744l147 -508l-9 -2l-117 -353l-131 41l113 323l-135 462zM521 362l6 -74l-106 -9l2 -71l124 -24l-16 -74l-106 22l5 -214l-232 21l21 86l90 -7l-24 249l-230 -20l-11 73l234 20l-10 102l149 19l2 -108zM411 791l57 -41l-104 -135l130 -71l-40 -68l-163 44l-125 -163
l-58 47l107 137l-115 31l76 148l125 -70zM642 520l21 -336l-84 -6l-21 336zM176 236l63 -30l-131 -238l-64 38z" />
    <glyph glyph-name="uni5236" unicode="&#x5236;" vert-adv-y="1200" 
d="M145 776l94 -27l-41 -138l99 9l-4 118l133 6l4 -111l138 13v-87l-136 -6l5 -146l131 19l7 -60l-135 -28l3 -98l96 17l3 12l27 -6l6 1v-3l67 -14l-56 -253l-100 22l36 164l-76 -14l8 -233l-133 -6l-8 215l-110 -21l3 -167l-100 -5l-5 260h100v-14l110 20l-4 95l-210 -43
l-26 86l234 34l-6 161l-122 -5l-37 -125l-95 27zM900 705l55 -530l-7 -1l-114 -247l-122 62l105 217l-49 487zM739 545l13 -336l-100 -6l-10 337z" />
    <glyph glyph-name="uni5233" unicode="&#x5233;" vert-adv-y="1200" 
d="M933 255l-8 -2l-111 -322l-125 40l108 300l-108 413l129 29zM358 742l-44 -82l214 21l10 -77l-139 -13l176 -83l-53 -105l-187 87l56 100l-120 -11l-147 -275l-84 43l119 221l-71 -6l-5 75l119 12l72 132zM558 216l-201 -9l-10 -65l163 -14l-73 -215l-79 15l25 147
l-135 -4l8 132l-104 -4l-5 76l406 18zM680 196l-81 -6l-14 319l79 5zM464 408v-77h-235v77h235z" />
    <glyph glyph-name="uni523F" unicode="&#x523f;" vert-adv-y="1200" 
d="M250 760h136v-162l76 13l-19 86l88 21l48 -199l-90 -26l-11 46l-164 -29l56 -33l-20 -38l107 -52l7 10l94 -61l-283 -414l-94 69l118 169l-72 44l-19 -36l-100 53l143 278l-182 -32l16 241l112 -6l-23 -138l76 12v184zM841 734l89 -518l-12 -2l-140 -318l-115 52l135 305
l-84 459zM684 472l10 -310l-85 -4l-9 309zM263 274l69 -66l81 116l-98 48z" />
    <glyph glyph-name="uni5240" unicode="&#x5240;" vert-adv-y="1200" 
d="M495 436v-235h-11l2 -3l-190 -28l23 -117l156 57l31 -101l-301 -85l-27 309l208 11v109l-236 -21l-10 74l246 21v9h109zM941 255l-8 -2l-111 -322l-125 40l108 300l-108 413l129 29zM584 506l-110 -20l-9 48l-371 -103l-18 216l121 9l-7 -127l89 19l-19 224l110 11
l17 -212l68 14l-17 89l109 21zM688 196l-81 -6l-14 279l79 5z" />
    <glyph glyph-name="uni5250" unicode="&#x5250;" vert-adv-y="1200" 
d="M156 368v-6l79 9l23 95l-21 -3l2 -34l-128 -6l-10 309l127 6v-2l176 14v4h77v-270h-66l-123 -14l95 -25l-14 -58l164 20v-2l10 -75l-74 -9l-10 60l74 25v-1l81 -291l-99 -197l-99 70l89 129l-36 205l-120 -14l-13 -56l136 -54l-34 -71l-121 48l-22 -92l-125 31l10 -125
l-100 -6l-28 380zM905 644l39 -612l-122 -6l-37 612zM717 484l13 -275h-78l-10 275h75zM235 537l169 23v113l-173 -14zM174 122l41 169l-53 -7z" />
    <glyph glyph-name="uni524A" unicode="&#x524a;" vert-adv-y="1200" 
d="M122 495l105 -11l-8 -116l204 16l-11 81l-180 -19v71l22 2l-5 246h132l3 -103l124 65l39 -66l-161 -81l1 -51l54 5l106 16l60 -485l-137 -165l-111 88l102 122l-5 38l-253 -11l-9 -143l-105 5zM888 649l73 -611l-116 -12l-77 606zM724 489l5 -275h-77l-6 275h78zM208 215
l237 10l-11 81l-221 -16zM122 710l100 -99l-83 -83l-100 104z" />
    <glyph glyph-name="uni5251" unicode="&#x5251;" vert-adv-y="1200" 
d="M962 275l-110 -381l-120 45l94 338l-118 483l124 40zM442 775l-43 -72l220 -43l-52 -131l-213 99l-209 -346l-106 66l292 491zM190 6l387 95l30 -57l-377 -141zM703 204l-80 -5l-16 320l81 5zM233 425l259 38l25 -69l-266 -80zM130 216l88 41l66 -130l-88 -81zM273 279
l119 44l20 -171l-58 -32zM519 310l48 -23l-68 -194l-58 15z" />
    <glyph glyph-name="uni524D" unicode="&#x524d;" vert-adv-y="1200" 
d="M274 -23l-145 -6l-10 446l128 4l148 21l65 16l87 -348l-7 -2l-121 -248l-87 40l83 175h-144zM865 538l-746 -35v81l406 18l121 209l91 -58l-83 -145l204 10zM746 416q2 0 18 0.5t36 1.5q23 1 51 2l30 -478l-148 -6zM692 116l-82 -6l-12 276l82 8zM230 718l131 88l90 -170
l-85 -36zM269 155h167l-19 69l-149 -9zM266 297l130 7l-16 58l-115 -21zM437 151v-32l5 12z" />
    </font>
</defs>
</svg>
